/* XPM */
static char *result[] = {
/* columns rows colors chars-per-pixel */
"64 64 13 1 ",
"  c #FF9144",
". c #FC904F",
"X c #FF9C4B",
"o c #FF9252",
"O c #F2975D",
"+ c #F8915A",
"@ c #FF9C5A",
"# c #FFAA4C",
"$ c #FFAA5D",
"% c #FFB75E",
"& c #FFAA6C",
"* c #FFC66F",
"= c None",
/* pixels */
"================================================================",
"================================================================",
"================================================================",
"================================================================",
"================================================================",
"================================================================",
"================================================================",
"================================================================",
"================================================================",
"================================================================",
"================================================================",
"================================================================",
"================================================================",
"================================================================",
"================================================================",
"================================================================",
"================================================================",
"================================================================",
"================================================================",
"================================================================",
"================================================================",
"================================================================",
"================================================================",
"================================================================",
"================================================================",
"===================================oo===========================",
"===================================oo===========================",
"===============================ooooo+o==========================",
"==============================oooooo+oo=o=======================",
"==============================oo o.@o  oo=======================",
"==============================oo o.ooX oo=======================",
"=============================ooo@@@XXX oo=======================",
"=============================oo+o&*##$ooo=======================",
"=============================ooo.O%$@oXo========================",
"=============================ooooo@@ooooo=======================",
"============================oo+oooooooooo=======================",
"============================oooo+oo++oooo=======================",
"===============================o.oo.+oooo=======================",
"===============================ooooo=o==========================",
"=================================o==============================",
"=================================o==============================",
"================================================================",
"================================================================",
"================================================================",
"================================================================",
"================================================================",
"================================================================",
"================================================================",
"================================================================",
"================================================================",
"================================================================",
"================================================================",
"================================================================",
"================================================================",
"================================================================",
"================================================================",
"================================================================",
"================================================================",
"================================================================",
"================================================================",
"================================================================",
"================================================================",
"================================================================",
"================================================================"
};
