/* XPM */
static char *result[] = {
/* columns rows colors chars-per-pixel */
"64 64 197 2 ",
"   c #711E05",
".  c #5E251C",
"X  c #7F2608",
"o  c #6D2615",
"O  c #7D341E",
"+  c #7E3F29",
"@  c #6C3D32",
"#  c #822C0F",
"$  c #8D320D",
"%  c #9B370E",
"&  c #8F3717",
"*  c #943F10",
"=  c #9D3D19",
"-  c #AC380E",
";  c #AC3E1A",
":  c #A0430E",
">  c #AD4A0C",
",  c #BA4C0E",
"<  c #A0451E",
"1  c #B94219",
"2  c #BA4C1F",
"3  c #8D4225",
"4  c #814835",
"5  c #AC4A20",
"6  c #A04E2F",
"7  c #B15323",
"8  c #BB5825",
"9  c #BB502C",
"0  c #A55C3E",
"q  c #BB5C31",
"w  c #BB6837",
"e  c #B9613D",
"r  c #C84E0F",
"t  c #D45F11",
"y  c #E04F1D",
"u  c #E35F16",
"i  c #FF731C",
"p  c #C94F20",
"a  c #C95A23",
"s  c #D75C25",
"d  c #C85F31",
"f  c #F45F25",
"g  c #D76B27",
"h  c #CC6A38",
"j  c #D86130",
"k  c #D86D36",
"l  c #DB7539",
"z  c #E56024",
"x  c #E66A28",
"c  c #FF6323",
"v  c #F16E2C",
"b  c #FF6F29",
"n  c #E86231",
"m  c #E66D35",
"M  c #F66F34",
"N  c #E67A39",
"B  c #F37A37",
"V  c #FF7D36",
"C  c #855745",
"Z  c #B96A47",
"A  c #A06C55",
"S  c #BE7352",
"D  c #817270",
"F  c #AA7D66",
"G  c #C86241",
"H  c #CA6D46",
"J  c #D86642",
"K  c #CB784E",
"L  c #D77045",
"P  c #D77C4E",
"I  c #E67043",
"U  c #ED754F",
"Y  c #E57D4A",
"T  c #F27F49",
"R  c #FF8226",
"E  c #FF9F28",
"W  c #F38837",
"Q  c #FF8D33",
"!  c #FF9B3A",
"~  c #FFA93D",
"^  c #FFBD33",
"/  c #FFB63B",
"(  c #9C8A79",
")  c #AA9C7D",
"_  c #ADA075",
"`  c #BBA47F",
"'  c #DB834E",
"]  c #DC8A5D",
"[  c #FF8246",
"{  c #FB8843",
"}  c #FF8942",
"|  c #FB894F",
" . c #FF8B4F",
".. c #FB9044",
"X. c #FF9144",
"o. c #FC904F",
"O. c #F59A4D",
"+. c #FF9C4B",
"@. c #E88853",
"#. c #F18C50",
"$. c #E69753",
"%. c #FF9252",
"&. c #F2975D",
"*. c #F8915A",
"=. c #FF9C5A",
"-. c #F6A84D",
";. c #FFAA4C",
":. c #F6B14F",
">. c #FFB84E",
",. c #F1AC5D",
"<. c #FFAA5D",
"1. c #EEB75F",
"2. c #FFB75E",
"3. c #C28461",
"4. c #C3986F",
"5. c #DE9D65",
"6. c #FF9F67",
"7. c #F09E68",
"8. c #DFB86F",
"9. c #D8A97B",
"0. c #CAB774",
"q. c #EDAB6F",
"w. c #FFAA6C",
"e. c #F2B76E",
"r. c #FFB96D",
"t. c #FFAE79",
"y. c #EFB87D",
"u. c #FFB97B",
"i. c #FFCB41",
"p. c #FFC450",
"a. c #FFC55F",
"s. c #FFD35E",
"d. c #FFE24A",
"f. c #DBD273",
"g. c #EDC462",
"h. c #F2C46F",
"j. c #FFC66F",
"k. c #F0CF6F",
"l. c #EBDE6F",
"z. c #F2D569",
"x. c #F0C37E",
"c. c #FFC57B",
"v. c #EBD17E",
"b. c #EBDF7F",
"n. c #FFD270",
"m. c #FFD37E",
"M. c #FFE162",
"N. c #FFEC62",
"B. c #F0E66C",
"V. c #FEFA61",
"C. c #FFE071",
"Z. c #F1EA70",
"A. c #FFEC71",
"S. c #FFE07F",
"D. c #FEFB74",
"F. c #F5F37B",
"G. c #B3AD84",
"H. c #C4B884",
"J. c #F2B68B",
"K. c #D6C389",
"L. c #DBD487",
"P. c #EBCF8E",
"I. c #F1C38D",
"U. c #FFC689",
"Y. c #FFD48C",
"T. c #EBDF9B",
"R. c #FFD599",
"E. c #FFDF9C",
"W. c #E9E08E",
"Q. c #EFEA8D",
"!. c #F2EB82",
"~. c #FFEC80",
"^. c #FFE08E",
"/. c #FFEB8D",
"(. c #FEFC80",
"). c #F9F288",
"_. c #FFF688",
"`. c #FEFE8A",
"'. c #F1E99D",
"]. c #FFEB9C",
"[. c #F7F294",
"{. c #FFF492",
"}. c #F7FA92",
"|. c #FEFD93",
" X c #F7F79A",
".X c #FFF59A",
"XX c #F2E9AA",
"oX c #F8F2A0",
"OX c #FFF5A1",
"+X c #FEF7A7",
"@X c #FAFBA3",
"#X c #FEFEA2",
"$X c #FFF6AF",
"%X c #FEFEA9",
"&X c #FEFEAF",
"*X c #FAF3B1",
"=X c None",
/* pixels */
"=X=X=X=X=X=X=X=X=X=X=X=X=X=X=X=X=X=X=X=X=X=X=X=X=X=X=X=X=X=X=X=X=X=X=X=X=X=X=X=X=X=X=X=X=X=X=X=X=X=X=X=X=X=X=X=X=X=X=X=X=X=X=X=X",
"=X=X=X=X=X=X=X=X=X=X=X=X=X=X=X=X=X=X=X=X=X=X=X=X=X=X=X=X=X=X=X=X=X=X=X=X=X=X=X=X=X=X=X=X=X=X=X=X=X=X=X=X=X=X=X=X=X=X=X=X=X=X=X=X",
"=X=X=X=X=X=X=X=X=X=X=X=X=X=X=X=X=X=X=X=X=X=X=X=X=X=X=X=X=X=X=X=X=X=X=X=X=X=X=X=X=X=X=X=X=X=X=X=X=X=X=X=X=X=X=X=X=X=X=X=X=X=X=X=X",
"=X=X=X=X=X=X=X=X=X=X=X=X=X=X=X=X=X=X=X=X=X=X=X=X=X=X=X=X=X=X=X=X=X=X=X=X=X=X=X=X=X=X=X=X=X=X=X=X=X=X=X=X=X=X=X=X=X=X=X=X=X=X=X=X",
"=X=X=X=X=X=X=X=X=X=X=X=X=X=X=X=X=X=X=X=X=X=X=X=X=X=X=X=X=X=X=X=X=X=X=X=X=X=X=X=X=X=X=X=X=X=X=X=X=X=X=X=X=X=X=X=X=X=X=X=X=X=X=X=X",
"=X=X=X=X=X=X=X=X=X=X=X=X=X=X=X=X=X=X=X=X=X=X=X=X=X=X=X=X=X=X=X=X=X=X=X=X=X=X=X=X=X=X=X=X=X=X=X=X=X=X=X=X=X=X=X=X=X=X=X=X=X=X=X=X",
"=X=X=X=X=X=X=X=X=X=X=X=X=X=X=X=X=X=X=X=X=X=X=X=X=X=X=X=X=X=X=X=X=X=X=X=X=X=X=X=X=X=X=X=X=X=X=X=X=X=X=X=X=X=X=X=X=X=X=X=X=X=X=X=X",
"=X=X=X=X=X=X=X=X=X=X=X=X=X=X=X=X=X=X=X=X=X=X=X=X=X=X=X=X=X= =X=X= = = =X=X=X=X=X=X=X=X=X=X=X=X=X=X=X=X=X=X=X=X=X=X=X=X=X=X=X=X=X",
"=X=X=X=X=X=X=X=X=X=X=X=X=X=X=X=X=X=X=X=X=X=X=X=X=X=X=X=X* = =X= = =X=X=X=X=X=X= = & & =X=X=X5 =X& =X=X=X=X=X=X=X=X=X=X=X=X=X=X=X",
"=X=X=X=X=X=X=X=X=X=X=X=X=X=X=X=X=X=X=X=X=X=X=X=X=X=X=X=X* * * = = =X=X=X=X= =X=X& = = & & & =X=X=X=X=X=X=X=X=X=X=X=X=X=X=X=X=X=X",
"=X=X=X=X=X=X=X=X=X=X=X=X=X=X=X=X=X=X=X=X=X=X=X=X=X=X=X=X* * * = = =X=X=X=X* * & = & = = =X=X& & =X=X=X=X=X=X=X=X=X=X=X=X=X=X=X=X",
"=X=X=X=X=X=X=X=X=X=X=X=X=X=X=X=X=X=X=X=X=X=X=X=X=X=X=X=X* < * = = = =X=X=X* & & & & = * & =X$ & $ =X=X=X=X=X=X=X=X=X=X=X=X=X=X=X",
"=X=X=X=X=X=X=X=X=X=X=X=X=X=X=X=X=X=X=X=X=X=X=X=X=X=X= =X=X% 5 = % < =X=X=X< % & $ = * < =X=X= $ =X=X=X5 =X=X=X=X=X=X=X=X=X=X=X=X",
"=X=X=X=X=X=X=X=X=X=X=X=X=X=X=X=X=X=X=X& =X=X=X=X* =X= * * * 9 2 : : * * * $ > 2 5 : < s : < =X& & < d 5 7 5 =X=X=X=X=X=X=X=X=X=X",
"=X=X=X=X=X=X=X=X=X=X=X=X=X=X=X=X=X=X=X=X=X& * * = < * j * ; s 2 # O C e 5 2 n M d 2 5 s * : =X< & $ j 7 6 5 5 =X=X=X=X=X=X=X=X=X",
"=X=X=X=X=X=X=X=X=X=X=X=X=X=X=X=X=X=X=X=X& * * : % : * 2 1 R : p 0 ' ] @.Y V N K S a : z a : $ % * = < 5 5 < =X=X=X=X=X=X=X=X=X=X",
"=X=X=X=X=X=X=X=X=X=X=X=X=X=X=X=X=X=X=X& & * : < * % * r > V b V b +.Q ;.] O.%.P ' @.v b V n : $ a 5 s j s 5 =X=X=X=X=X=X=X=X=X=X",
"=X=X=X=X=X=X=X=X=X=X=X=X=X=X=X=X=X=X< ; = * 7 3 3 7 : , b M v ..+.! -.>.k.z.a.O.$.O.W B n V X.M x 5 a b n 5 & =X=X=X=X=X=X=X=X=X",
"=X=X=X=X=X=X=X=X=X=X=X=X=X=X=X=X=X=X& a x % * * a * e h N R V O.5.$.~ g.C.S.8.g.1.5.@.Y ' O.[ z n 5 a b x a = X =X=X=X=X=X=X=X=X",
"=X=X=X=X=X=X=X=X=X=X=X=X=X=X=X=X=X=X2 M j s q B } } g l b S @.' 3.3.( D.s.v.K.8.C.h.u.<.#.&.X.} M c V s b n < & $ =X=X=X=X=X=X=X",
"=X=X=X=X=X=X=X=X=X=X=X=X=X=X=X=X=X5 8 < v M %.f v } v L M @.D ) ,.a.h.V.b.,.$.>.s.a.<.a.<.y.w.%.b M X.f n s s # $ =X=X=X=X=X=X=X",
"=X=X=X=X=X=X=X=X=X=X=X=X=X=X=X=X=X8 * < 8 v { x } M [ Y ~ -.3.9.M.h.D 9.g.5.a.$.>.j.r.q.t.m.} <.<.X.b p V s a $ = =X=X=X=X=X=X=X",
"=X=X=X=X=X=X=X=X=X=X=X=X=X=X=X=X> * : a a x s m <.=.B T O.5.5.F (.F ( G.8.] 3.$.e.c.c._.4.n.<.Q [ <.{ b 2 j $ $ = < 5 5 =X=X=X=X",
"=X=X=X=X=X=X=X=X=X=X=X=X=X=X=X=X=X: < f > 1 V b Q +.{ #.a.-.:.F q.4.( G.g.9.F 3.4.0.9._ 4.C.S.j.R V Q +.v   =X= =X= =X=X=X=X=X=X",
"=X=X=X=X=X=X=X=X=X=X=X=X=X=X=X=X=X# a V V b Q ~ ! ~ Q ;.a.O.s.s.g.0.` f.l.8.>.4.4.4.h.G.5.,.%.! ! V M } V + 7 1 * 5 5 =X=X=X=X=X",
"=X=X=X=X=X=X=X=X=X=X=X=X=X=X=X% * 2 a } ;.>.a./ ~ ~ E / ~ V.M.N.( ` f.g.K.f.B.k.4.4.9.9.8.9.y.+.V V v B s * 0 5 =X5 5 5 =X=X=X=X",
"=X=X=X=X=X=X=X=X=X=X=X=X=X=X: : a s > V ;./ / ~ >.>.E :.i.D.V.m.C.A.l.l.0.f.l.) D ) y.4.` q.q.P  .#.t [ X.: & 3 =X=X=X=X5 =X=X=X",
"=X=X=X=X=X=X=X=X=X=X=X=X=X= 8 7 = b t [ b R >./ ^ a.a.5.q.K.B.(.~._.L.l.b.A.H._ K.G.n.f.8.9.T -.6.<.d } 7 # + 3 =X= 5 5 5 =X=X=X",
"=X=X=X=X=X=X=X=X=X=X=X=X* 9 : * * $ 7 M | X.6.p.a.e.9.q.z.C.J.S.(.^.Y.l.f.b.v.K.0.g.8.` g.j.@.8.y.u.T z B 6 O # =X5 5 5 =X=X=X=X",
"=X=X=X=X=X=X=X=X=X: < * 9 9 s a , H F ] R ~ a.U.s.M.~./.|.`./.Q.T.'.XXW.8.9.0.8.f.q.5.0.k.2.y.8.=.<.=.%.| B 3 $ < =X5 =X=X=X=X=X",
"=X=X=X=X=X=X=X=X=X=X= = * 2 p & V [ Z P } / a.S.~.C._.{.^.&XOX{.v.W.+XY.I.T.W.v.0.` 3.5.1.,.5.,.w.V =.c.w.Y.r.9 =X=X=X=X=X=X=X=X",
"=X=X=X=X=X=X=X=X=X=X% * % 2 < 2 V v ] | =.>.Y.m.b.4.Y.U.S.U.].W.R.^.W.W.W.P.^.9.0.) f.5.5.f.g.Y.U.%.r.%.=.Y 6.P =X=X=X=X=X=X=X=X",
"=X=X=X=X=X=X=X=X=X=X=X% 7 : * q 7 6 h H %.>.r.9.K._.I..X{.oX'..X$X'.oXE.K.I..Xb.^.v.e.5.p.w.&.m.r.6.w. .h 5 K w.+ =X=X=X=X=X=X=X",
"=X=X=X=X=X=X=X=X=X=X=X= 5 $ * O 7 0 e h [ +.<.8.M.h.P.k.|.W.Q.&X.X/.W.%Xx.D ( 0._ 4.D j.w.n.m.s.<.V z } d o 3.K 0 =X=X=X=X=X=X=X",
"=X=X=X=X=X=X=X=X=X=X=X: : $ $ 0 d 6 I Z [ +.N 7.4.D.S.x._.).v.@X*XoXK.4.x.) D x.v.9.S.r.a.C.M.<.! +.V P I ] 0 K 5 & =X=X=X=X=X=X",
"=X=X=X=X=X=X=X=X=X=X=X= : $ $ O = V B q 3. .W W 7.8.C.(.S.|.Q.}.W.W.K.v.#X_ 9.8.b.|.a.r.2.2.n.+.m.t.w.t.7.T n d < 5 =X=X=X=X=X=X",
"=X=X=X=X=X=X=X=X=X=X=X=X: $ $ + % [ H C Z { a.>.+.j.1.V.Q.f.Z.L.[./. XK.H.K.8.F.{.).p.2.6.C.r.=.w.*.+. .I 2 = < = 5 =X=X=X=X=X=X",
"=X=X=X=X=X=X=X=X=X=X=X=X=X$ $ 4 + l d 4 5 Y *.j.2.O.2.M.D B.(.F.!.L.` f.K.( m.8./.`.j.u.a.~ +.%.w.] d e %.M d = a < =X=X=X=X=X=X",
"=X=X=X=X=X=X=X=X=X=X=X=X$ & # =X& + 7 0 C 6 [ 6.7...q.4.D z.`.D.!.b.f.v.4.v.~.8.x.n.j.<.=.+.%.X.&.*.3 B } V a j # =X=X=X=X=X=X=X",
"=X=X=X=X=X=X=X=X=X=X=X=X=X=X=X$ $ # j 9 j x #.T T | 2.9.3.r.C.D.(.`.`.l.l.f.f.S.m.~.r.<.;.w.=.! P k $ 2 B B V s = =X=X=X=X=X=X=X",
"=X=X=X=X=X=X=X=X=X=X=X=X=X=X& & $ # p 5 & s =.j Y [ %.y.9.2.j.m.A.`.|.D.V.A.!.A.m.c.=.=.6.=.} 2.[ 3 & O = 2 < < 5 =X=X=X=X=X=X=X",
"=X=X=X=X=X=X=X=X=X=X=X=X=X=X=X& # 8 < & 6 [ | H Z H *.6.7.<.6.n.`.~.`.|.V._.n.r.>.;.%.=.=.} } s M [ O 3 & 5 < < =X=X=X=X=X=X=X=X",
"=X=X=X=X=X=X=X=X=X=X=X=X=X=X=X& & & =X=Xd j b G L P U <.r.w.r.j.j.C.M.`.C.A.A.<.Q ;.6.T | ' [ [ j } q 2 2 < =X=X=X=X=X=X=X=X=X=X",
"=X=X=X=X=X=X=X=X=X=X=X=X=X=X=X=X$ & =X=X=X. m  .T $.e o. .r.s.;.j.j.r.r.A.M.s. .=.[ =.F x A e k e 7 J O < < =X=X=X=X=X=X=X=X=X=X",
"=X=X=X=X=X=X=X=X=X=X=X=X=X=X=X=X=X=X=X=X=XX O # I Z P P =.w.2.w.w.6.a.! M.d.+.+.} T =.j 0 A s q a 3 + < =X=X=X=X=X=X=X=X=X=X=X=X",
"=X=X=X=X=X=X=X=X=X=X=X=X=X=X=X=X=X=X=X=X=X=XX O @ C 0 K ] *.5.5.&.6.i.^ ^ ^ ~ Q v M V I U P H 3 @ C =X=X=X=X=X=X=X=X=X=X=X=X=X=X",
"=X=X=X=X=X=X=X=X=X=X=X=X=X=X=X=X=X=X=X=X=X# =X$ C 4 @.U 3.` ( F &.q.E :./ E ! Q  .X.[ T #.K Z d 4 C =X=X=X=X=X=X=X=X=X=X=X=X=X=X",
"=X=X=X=X=X=X=X=X=X=X=X=X=X=X=X=X=X=X=X=X=X=X=X& 4 C A k [ &.=.<.5.,./ E ..b b V V V n #.P A ( C C < =X=X=X=X=X=X=X=X=X=X=X=X=X=X",
"=X=X=X=X=X=X=X=X=X=X=X=X=X=X=X=X=X=X=X=X=X=X=X& 4 3 C A ' +.=.=.4.-.~ W i R f f V p m G J A 4 =X=X=X=X=X=X=X=X=X=X=X=X=X=X=X=X=X",
"=X=X=X=X=X=X=X=X=X=X=X=X=X=X=X=X=X=X=X=X=X=X=X& + 3 7 A e Q ;.! ~ ( M V Q i f M v b n e < C =X=X=X=X=X=X=X=X=X=X=X=X=X=X=X=X=X=X",
"=X=X=X=X=X=X=X=X=X=X=X=X=X=X=X=X=X=X=X=X=X=X=X4 C O 6 0 w R ~ Q R R Q c b V M - b a 8 & = =X=X=X=X=X=X=X=X=X=X=X=X=X=X=X=X=X=X=X",
"=X=X=X=X=X=X=X=X=X=X=X=X=X=X=X=X=X=X=X=X=X=X=X4 C 4 3 C A e v =.} Q V f b b b V 2 2 & = =X=X=X=X=X=X=X=X=X=X=X=X=X=X=X=X=X=X=X=X",
"=X=X=X=X=X=X=X=X=X=X=X=X=X=X=X=X=X=X=X=X=X=X=X=XC =X4 4 + 3 6 8 7 V y , - u 2 z 5 5 * = =X=X=X=X=X=X=X=X=X=X=X=X=X=X=X=X=X=X=X=X",
"=X=X=X=X=X=X=X=X=X=X=X=X=X=X=X=X=X=X=X=X=X=X=X=X=X=XC 4 + 6 + 4 # s a - = ; s 2 * < =X=X=X=X=X=X=X=X=X=X=X=X=X=X=X=X=X=X=X=X=X=X",
"=X=X=X=X=X=X=X=X=X=X=X=X=X=X=X=X=X=X=X=X=X=X=X=X=X=X=X=X+ 3 4 O $ X 2 = p s = < * < =X=X=X=X=X=X=X=X=X=X=X=X=X=X=X=X=X=X=X=X=X=X",
"=X=X=X=X=X=X=X=X=X=X=X=X=X=X=X=X=X=X=X=X=X=X=X=X=X=X=X=X=X+ $ $ $ $ X & v b = < = = =X=X=X=X=X=X=X=X=X=X=X=X=X=X=X=X=X=X=X=X=X=X",
"=X=X=X=X=X=X=X=X=X=X=X=X=X=X=X=X=X=X=X=X=X=X=X=X=X=X=X=X=X=X=X=X=X=X=X= = < 8 =X=X=X=X=X=X=X=X=X=X=X=X=X=X=X=X=X=X=X=X=X=X=X=X=X",
"=X=X=X=X=X=X=X=X=X=X=X=X=X=X=X=X=X=X=X=X=X=X=X=X=X=X=X=X=X=X=X=X=X=X=X=X=X=X=X=X=X=X=X=X=X=X=X=X=X=X=X=X=X=X=X=X=X=X=X=X=X=X=X=X",
"=X=X=X=X=X=X=X=X=X=X=X=X=X=X=X=X=X=X=X=X=X=X=X=X=X=X=X=X=X=X=X=X=X=X=X=X=X=X=X=X=X=X=X=X=X=X=X=X=X=X=X=X=X=X=X=X=X=X=X=X=X=X=X=X",
"=X=X=X=X=X=X=X=X=X=X=X=X=X=X=X=X=X=X=X=X=X=X=X=X=X=X=X=X=X=X=X=X=X=X=X=X=X=X=X=X=X=X=X=X=X=X=X=X=X=X=X=X=X=X=X=X=X=X=X=X=X=X=X=X",
"=X=X=X=X=X=X=X=X=X=X=X=X=X=X=X=X=X=X=X=X=X=X=X=X=X=X=X=X=X=X=X=X=X=X=X=X=X=X=X=X=X=X=X=X=X=X=X=X=X=X=X=X=X=X=X=X=X=X=X=X=X=X=X=X",
"=X=X=X=X=X=X=X=X=X=X=X=X=X=X=X=X=X=X=X=X=X=X=X=X=X=X=X=X=X=X=X=X=X=X=X=X=X=X=X=X=X=X=X=X=X=X=X=X=X=X=X=X=X=X=X=X=X=X=X=X=X=X=X=X",
"=X=X=X=X=X=X=X=X=X=X=X=X=X=X=X=X=X=X=X=X=X=X=X=X=X=X=X=X=X=X=X=X=X=X=X=X=X=X=X=X=X=X=X=X=X=X=X=X=X=X=X=X=X=X=X=X=X=X=X=X=X=X=X=X",
"=X=X=X=X=X=X=X=X=X=X=X=X=X=X=X=X=X=X=X=X=X=X=X=X=X=X=X=X=X=X=X=X=X=X=X=X=X=X=X=X=X=X=X=X=X=X=X=X=X=X=X=X=X=X=X=X=X=X=X=X=X=X=X=X"
};
