/* XPM */
static char *result[] = {
/* columns rows colors chars-per-pixel */
"64 64 175 2 ",
"   c #711E05",
".  c #5E251C",
"X  c #7F2608",
"o  c #6D2615",
"O  c #7D341E",
"+  c #6E3120",
"@  c #7E3F29",
"#  c #6C3D32",
"$  c #822C0F",
"%  c #9D2C0A",
"&  c #8D320D",
"*  c #9B370E",
"=  c #8F3717",
"-  c #943F10",
";  c #9D3D19",
":  c #AC380E",
">  c #BB390C",
",  c #AC3E1A",
"<  c #A0430E",
"1  c #AD4A0C",
"2  c #BA4C0E",
"3  c #A0451E",
"4  c #B94219",
"5  c #BA4C1F",
"6  c #8D4225",
"7  c #814835",
"8  c #AC4A20",
"9  c #A04E2F",
"0  c #B15323",
"q  c #BB5825",
"w  c #BB502C",
"e  c #A55C3E",
"r  c #BB5C31",
"t  c #BB6837",
"y  c #B9613D",
"u  c #C84E0F",
"i  c #CD4319",
"p  c #E04F1D",
"a  c #E35F16",
"s  c #FF731C",
"d  c #C94F20",
"f  c #C95A23",
"g  c #D75C25",
"h  c #C85F31",
"j  c #F45F25",
"k  c #CC6A38",
"l  c #D86130",
"z  c #D86D36",
"x  c #DB7539",
"c  c #E56024",
"v  c #E66A28",
"b  c #FF6323",
"n  c #F16E2C",
"m  c #FF6F29",
"M  c #E86231",
"N  c #E66D35",
"B  c #F66F34",
"V  c #E67A39",
"C  c #F37A37",
"Z  c #FF7D36",
"A  c #855745",
"S  c #B96A47",
"D  c #A06C55",
"F  c #BE7352",
"G  c #817270",
"H  c #AA7D66",
"J  c #C86241",
"K  c #CA6D46",
"L  c #D86642",
"P  c #CB784E",
"I  c #D77045",
"U  c #D77C4E",
"Y  c #E67043",
"T  c #ED754F",
"R  c #E57D4A",
"E  c #F27F49",
"W  c #FF8226",
"Q  c #FF9F28",
"!  c #F38837",
"~  c #FF8D33",
"^  c #FF9B3A",
"/  c #FFA93D",
"(  c #FFB63B",
")  c #9C8A79",
"_  c #DB834E",
"`  c #DC8A5D",
"'  c #FF8246",
"]  c #FB8843",
"[  c #FF8942",
"{  c #FB894F",
"}  c #FF8B4F",
"|  c #FB9044",
" . c #FF9144",
".. c #FC904F",
"X. c #F59A4D",
"o. c #FF9C4B",
"O. c #E88853",
"+. c #F18C50",
"@. c #E69753",
"#. c #FF9252",
"$. c #F2975D",
"%. c #F8915A",
"&. c #FF9C5A",
"*. c #F6A84D",
"=. c #FFAA4C",
"-. c #F6B14F",
";. c #FFB84E",
":. c #F1AC5D",
">. c #FFAA5D",
",. c #EEB75F",
"<. c #FFB75E",
"1. c #C28461",
"2. c #C3986F",
"3. c #DE9D65",
"4. c #FF9F67",
"5. c #F09E68",
"6. c #DFB86F",
"7. c #D8A97B",
"8. c #EDAB6F",
"9. c #FFAA6C",
"0. c #F2B76E",
"q. c #FFB96D",
"w. c #FFAE79",
"e. c #EFB87D",
"r. c #FFB97B",
"t. c #FFC450",
"y. c #FFC55F",
"u. c #FFD35E",
"i. c #DBD273",
"p. c #EDC462",
"a. c #F2C46F",
"s. c #FFC66F",
"d. c #F0CF6F",
"f. c #EBDE6F",
"g. c #F2D569",
"h. c #F0C37E",
"j. c #FFC57B",
"k. c #EBD17E",
"l. c #EBDF7F",
"z. c #FFD270",
"x. c #FFD37E",
"c. c #FFEC62",
"v. c #F0E66C",
"b. c #FEFA61",
"n. c #E5EA7F",
"m. c #FFE071",
"M. c #F1EA70",
"N. c #FFEC71",
"B. c #FFE07F",
"V. c #F5F37B",
"C. c #C69480",
"Z. c #FFBB86",
"A. c #DBD487",
"S. c #EBCF8E",
"D. c #F1C38D",
"F. c #FFC689",
"G. c #E9E08E",
"H. c #F2EB82",
"J. c #FFEC80",
"K. c #FFE08E",
"L. c #FFEB8D",
"P. c #FEFC80",
"I. c #F9F288",
"U. c #FFF688",
"Y. c #F6FA8C",
"T. c #FEFE8A",
"R. c #F1F791",
"E. c #FFF492",
"W. c #F7FA92",
"Q. c #FEFD93",
"!. c #FFF59A",
"~. c #FEFE9B",
"^. c #FFF5A1",
"/. c #FEFEA2",
"(. c None",
/* pixels */
"(.(.(.(.(.(.(.(.(.(.(.(.(.(.(.(.(.(.(.(.(.(.(.(.(.(.(.(.(.(.(.(.(.(.(.(.(.(.(.(.(.(.(.(.(.(.(.(.(.(.(.(.(.(.(.(.(.(.(.(.(.(.(.(.",
"(.(.(.(.(.(.(.(.(.(.(.(.(.(.(.(.(.(.(.(.(.(.(.(.(.(.(.(.(.(.(.(.(.(.(.(.(.(.(.(.(.(.(.(.(.(.(.(.(.(.(.(.(.(.(.(.(.(.(.(.(.(.(.(.",
"(.(.(.(.(.(.(.(.(.(.(.(.(.(.(.(.(.(.(.(.(.(.(.(.(.(.(.(.(.(.(.(.(.(.(.(.(.(.(.(.(.(.(.(.(.(.(.(.(.(.(.(.(.(.(.(.(.(.(.(.(.(.(.(.",
"(.(.(.(.(.(.(.(.(.(.(.(.(.(.(.(.(.(.(.(.(.(.(.(.(.(.(.(.(.(.(.(.(.(.(.(.(.(.(.(.(.(.(.(.(.(.(.(.(.(.(.(.(.(.(.(.(.(.(.(.(.(.(.(.",
"(.(.(.(.(.(.(.(.(.(.(.(.(.(.(.(.(.(.(.(.(.(.(.(.(.(.(.(.(.(.(.(.(.(.(.(.(.(.(.(.(.(.(.(.(.(.(.(.(.(.(.(.(.(.(.(.(.(.(.(.(.(.(.(.",
"(.(.(.(.(.(.(.(.(.(.(.(.(.(.(.(.(.(.(.(.(.(.(.(.(.(.(.(.(.(.(.(.(.(.(.(.(.(.(.(.(.(.(.(.(.(.(.(.(.(.(.(.(.(.(.(.(.(.(.(.(.(.(.(.",
"(.(.(.(.(.(.(.(.(.(.(.(.(.(.(.(.(.(.(.(.(.(.(.(.(.(.(.(.(.(.(.(.(.(.(.(.(.(.(.(.(.(.(.(.(.(.(.(.(.(.(.(.(.(.(.(.(.(.(.(.(.(.(.(.",
"(.(.(.(.(.(.(.(.(.(.(.(.(.(.(.(.(.(.(.(.(.(.(.(.(.(.(.(.= (.(.(.(.(.(.(.(.(.(.(.(.(.(.(.(.(.(.(.(.(.(.(.(.(.(.(.(.(.(.(.(.(.(.(.",
"(.(.(.(.(.(.(.(.(.(.(.(.(.(.(.(.(.(.(.(.(.(.(.(.(.(.(.(.(.(.(.(.(.(.(.(.(.(.(.(.= $ $ (.(.(.3 (.(.(.(.(.(.(.(.(.(.(.(.(.(.(.(.(.",
"(.(.(.(.(.(.(.(.(.(.(.(.(.(.(.(.(.(.(.(.(.(.(.(.(.(.(.(.& = = = (.(.(.(.(.(.(.(.= = & & & (.(.(.(.(.(.(.(.(.(.(.(.(.(.(.(.(.(.(.",
"(.(.(.(.(.(.(.(.(.(.(.(.(.(.(.(.(.(.(.(.(.(.(.(.(.(.(.(.= = & = = (.(.(.(.= & & = $ = = (.(.= & (.(.(.(.(.(.(.(.(.(.(.(.(.(.(.(.",
"(.(.(.(.(.(.(.(.(.(.(.(.(.(.(.(.(.(.(.(.(.(.(.(.(.(.(.(.= & = = = (.(.(.(.= = $ X & = = & (.X (.(.(.(.(.(.(.(.(.(.(.(.(.(.(.(.(.",
"(.(.(.(.(.(.(.(.(.(.(.(.(.(.(.(.(.(.(.(.(.(.(.(.(.(.(.(.(.* = = = (.(.(.(.& & & & = & ; (.(.= (.(.(.; 8 3 3 (.(.(.(.(.(.(.(.(.(.",
"(.(.(.(.(.(.(.(.(.(.(.(.(.(.(.(.(.(.(.(.(.& (.(.& = & & & & ; = (.(.6 & - & * * = & & = = - (.(.$ (.q w 3 3 (.(.(.(.(.(.(.(.(.(.",
"(.(.(.(.(.(.(.(.(.(.(.(.(.(.(.(.(.(.(.(.(.= = = = = & , - ; : - $ # A A 6 5 5 f 7 ; & 8 $ = (.(.= (.3 8 3 ; 3 (.(.(.(.(.(.(.(.(.",
"(.(.(.(.(.(.(.(.(.(.(.(.(.(.(.(.(.(.(.(.& & = * * & * & & n : 5 9 I K K t 0 0 S e 9 ; d f 3 $ & = ; = ; ; ; (.(.(.(.(.(.(.(.(.(.",
"(.(.(.(.(.(.(.(.(.(.(.(.(.(.(.(.(.(.(.$ $ 0 $ = - * * * % g 2 g j ^ m [ O.] ' v N B d g c 5 8 $ ; 3 ; 8 f ; (.(.(.(.(.(.(.(.(.(.",
"(.(.(.(.(.(.(.(.(.(.(.(.(.(.(.(.(.(.- 3 = $ & O O 6 O 3 g g f Z Z j  .E <.&.o.O._ C B p d B Z g 5 ; ; d 5 = & (.(.(.(.(.(.(.(.(.",
"(.(.(.(.(.(.(.(.(.(.(.(.(.(.(.(.(.(.& 5 d & O 3 h = 9 9 r c b ] P U V -.*.:.3.@.<.P C Y I E Z 5 d = w 8 g , $ (.(.(.(.(.(.(.(.(.",
"(.(.(.(.(.(.(.(.(.(.(.(.(.(.(.(.(.(.8 g w 0 0 l M z q 0 p F K I P x 2.y.-.-.8.+.=.>.&.[ ' E B M f 0 w l , f = & (.(.(.(.(.(.(.(.",
"(.(.(.(.(.(.(.(.(.(.(.(.(.(.(.(.(.- 8 & d M Z l g v q r j C D 3.o.o.$.;.X.O.] Z #.} Z [ } $.} Y p p M = , = 3 $ (.(.(.(.(.(.(.(.",
"(.(.(.(.(.(.(.(.(.(.(.(.(.(.(.(.(.3 & < d f w t v g l k W V _ 3.;.@.) ` 3.U :.V [ &.$.+.%.4.Z ' #.m d - 8 & & = ; = (.(.(.(.(.(.",
"(.(.(.(.(.(.(.(.(.(.(.(.(.(.(.(.- - = 8 4 5 f 0 B [ l N B O.U H <.H 2.2.+.K S I +.4.>.q.` o.+.m c [ B 5 & * & (.(.; ; ; (.(.(.(.",
"(.(.(.(.(.(.(.(.(.(.(.(.(.(.(.(.(.- 3 5 & & b M m Z b B X.V ! _ R U H 3.O.` K H 1.2.` F H =.>.&.p p M Z N X (.* (.(.; (.(.(.(.(.",
"(.(.(.(.(.(.(.(.(.(.(.(.(.(.(.(.(.$ 8 M c i Z W Z ~ b  .C +.o.=. .2.H 3.,.R ! F P 1.] 2.1.U L Z m d 1 B g O 6 - (.(.(.3 (.(.(.(.",
"(.(.(.(.(.(.(.(.(.(.(.(.(.(.(.- & * f m Z [ ~ ~ W ~ s W ~ ^ =./ ) P <.X.3.3.X.` H 1.` 3.U O.$.C a M u w q & 7 @ (.(.(.3 (.(.(.(.",
"(.(.(.(.(.(.(.(.(.(.(.(.(.(.* ; 3 ; & l [ ~ ~ ~ ~ ~ W Z ^ t./ <.;.<.@.,.` ,.:.2.G 1.4.F 1.R +.S E S < l m (.& O (.(.; (.3 3 (.(.",
"(.(.(.(.(.(.(.(.(.(.(.(.(.= - ; & 5 X g d B  .W W ^ } $.5.2.u.u.u.u.p.p.g.;.8.H 3.H >.@.O.O.z b E R - f 8 $ (.O (.(.3 3 3 (.(.(.",
"(.(.(.(.(.(.(.(.(.(.(.(.- ; = = & X - q l s [ ^ o.` 3.@.<.<.e.c.b.m.v.p.6.3.3._ @.X.R 1.R =.M 3.@.&.k 3 h + X (.(.(.; 3 (.(.(.(.",
"(.(.(.(.(.(.(.(.(.(.- = - ; 0 = > e D K b ~ &.4.o./ z.j.N.b.H.H.l.l.~.f.` 3.3.3.@.O.U U $.[ 5.+.' E R Y r B + (.; (.(.3 (.(.(.(.",
"(.(.(.(.(.(.(.(.(.(.(.= = 3 * & m w A k b ~ o.>.<.<.x.j.j.Q.T.L.A.J.J.G.F.e.e.8.3.` F O.V E U E B n r j.} 9.&.= (.(.(.(.(.(.(.(.",
"(.(.(.(.(.(.(.(.(.(.(.& = = $ 5 M 5 S K E  .w.8.8.3.8.r.a.x.L.K.G.B.l.k.h.Z.Z.3.` 1.$.V z 3.@.$.r.B E T y @ P U o (.(.(.(.(.(.(.",
"(.(.(.(.(.(.(.(.(.(.(.= * & & 3 @ 6 8 r &.Z { 1.:.z.8.x.x.L.R.K.^.S./.F.7.w.K.:.0.3.5.P Z { { 4.} O.Y h 9 $ 7 3.6 (.(.(.(.(.(.(.",
"(.(.(.(.(.(.(.(.(.(.(.= = & = O ; 7 9 9 c Z %.O.o.5.e.s.m.h.n.~.L.P.L.!.8.1.2.3.2.` H 4.#. .#.;.Z c 3 n - + 7 F 9 (.(.(.(.(.(.(.",
"(.(.(.(.(.(.(.(.(.(.(.(.= & $ 7 9 @ r 9 J Z J +.P u.>.9.q.m.h.Q.Q.W.D.` w.) G 0.<.` <.&. . .o.Z m m d 0 6 e 7 D 8 (.(.(.(.(.(.(.",
"(.(.(.(.(.(.(.(.(.(.(.= = X $ O $ B 9 6 S M g C E 3.<.z.j.m.I.Y.U.V.h.8.E.5.7.r.8.x.o.} [ }  .m o.&.&.%.F K 3 3 3 3 (.(.(.(.(.(.",
"(.(.(.(.(.(.(.(.(.(.(.(.= (.O @ X Y 6 7 e m o.m C ..+.;.a.d.v.i.V.B.K.8.6.7.3.g.j.q. .[ O.#.4.Z } U f V r & & & - (.(.(.(.(.(.(.",
"(.(.(.(.(.(.(.(.(.(.(.(.(.(.$ @ O 9 7 + & r L o. .N ../ G :.M.d.V.7.3.8.2.2.8.9.q.s.#.#...' Z g +.#.; 7 Y c ; = 3 3 (.(.(.(.(.(.",
"(.(.(.(.(.(.(.(.(.(.(.(.(.(.(.(.O 7 O A @ @ l T E M $.H G :.z.y.B.d.8.s.C.w.z.7.w.9.o.} ' Z Y g U R + 9 l g = 8 = (.(.(.(.(.(.(.",
"(.(.(.(.(.(.(.(.(.(.(.(.(.(.(.(.(.X 9 O 8 r K y J I ' 2.H O.*.<.s.m.u.>.:.-.0.q.9.q.#.} Z ' ' m I 9 X & l M f f = (.(.(.(.(.(.(.",
"(.(.(.(.(.(.(.(.(.(.(.(.(.(.(.$ (.(.8 = $ 8 L 9 S y I %._ 4.5.<.<.j.z.<.t.>.,.<.4.w.+.E O.E p [ l O $ & = - 3 = ; (.(.(.(.(.(.(.",
"(.(.(.(.(.(.(.(.(.(.(.(.(.(.(.$ $ ; = O 6 M w 9 9 e E } R ' } >.s.<.z.N./ <.<.#.[ Z N R R L N 0 d f O - (.= (.(.3 (.(.(.(.(.(.(.",
"(.(.(.(.(.(.(.(.(.(.(.(.(.(.(.$ X (.(.(.$ l 4 e 9 6 9 } #.} #.9.&.<.;.s.<.=.<.#.m Z +.y L F L 4 8 n O = = = ; (.(.(.(.(.(.(.(.(.",
"(.(.(.(.(.(.(.(.(.(.(.(.(.(.(.(.(.(.(.(.(.. M B y F 7 Y U } [  .#.>.#.4.;.q.o.B E M Y F w y y r 6 = 8 = (.(.(.(.(.(.(.(.(.(.(.(.",
"(.(.(.(.(.(.(.(.(.(.(.(.(.(.(.(.(.(.(.(.(.(.= X J A 9 D O.%.[ { %.$.o.W / ( Z [ M J l w 7 7 3 3 3 7 6 (.(.(.(.(.(.(.(.(.(.(.(.(.",
"(.(.(.(.(.(.(.(.(.(.(.(.(.(.(.(.(.(.(.(.(.(.(.X # 7 e e F _ P 1.E { ~ ~ Q Q W b 6 r j f r e r ; 7 A (.(.(.(.(.(.(.(.(.(.(.(.(.(.",
"(.(.(.(.(.(.(.(.(.(.(.(.(.(.(.(.(.(.(.(.(.(.(.O A # e y 1.H 1.F R +.s | Q W m m M N f 0 e K e 8 A A (.(.(.(.(.(.(.(.(.(.(.(.(.(.",
"(.(.(.(.(.(.(.(.(.(.(.(.(.(.(.(.(.(.(.(.(.(.(.(.7 A F 8 T R R } U ..s m m a p i 5 M w J F A G A 7 6 (.(.(.(.(.(.(.(.(.(.(.(.(.(.",
"(.(.(.(.(.(.(.(.(.(.(.(.(.(.(.(.(.(.(.(.(.(.(.$ 7 @ 7 A t } } { H ] Z c j u , : d $ w e 3 A 7 (.(.(.(.(.(.(.(.(.(.(.(.(.(.(.(.(.",
"(.(.(.(.(.(.(.(.(.(.(.(.(.(.(.(.(.(.(.(.(.(.(.(.7 O 6 A e N  .m ~ H d c j j > , 4 5 d 9 = A = (.(.(.(.(.(.(.(.(.(.(.(.(.(.(.(.(.",
"(.(.(.(.(.(.(.(.(.(.(.(.(.(.(.(.(.(.(.(.(.(.(.7 7 O O 7 9 s ^ j c b p i p p d & d g 8 & (.(.(.(.(.(.(.(.(.(.(.(.(.(.(.(.(.(.(.(.",
"(.(.(.(.(.(.(.(.(.(.(.(.(.(.(.(.(.(.(.(.(.(.(.7 A @ @ 7 9 9 N B c j p : p p c d $ = & = (.(.(.(.(.(.(.(.(.(.(.(.(.(.(.(.(.(.(.(.",
"(.(.(.(.(.(.(.(.(.(.(.(.(.(.(.(.(.(.(.(.(.(.(.(.(.@ 7 @ @ O 6 5 6 B * & $ 4   w & 8 & = (.(.(.(.(.(.(.(.(.(.(.(.(.(.(.(.(.(.(.(.",
"(.(.(.(.(.(.(.(.(.(.(.(.(.(.(.(.(.(.(.(.(.(.(.(.(.(.(.@ O 7 O # o 8 & X X   ; $ = = (.(.(.(.(.(.(.(.(.(.(.(.(.(.(.(.(.(.(.(.(.(.",
"(.(.(.(.(.(.(.(.(.(.(.(.(.(.(.(.(.(.(.(.(.(.(.(.(.(.(.(.@ @ @ $ X $ * = X $ ; = = = (.(.(.(.(.(.(.(.(.(.(.(.(.(.(.(.(.(.(.(.(.(.",
"(.(.(.(.(.(.(.(.(.(.(.(.(.(.(.(.(.(.(.(.(.(.(.(.(.(.(.(.(.@ (.(.(.(.X (., ; & = (.(.(.(.(.(.(.(.(.(.(.(.(.(.(.(.(.(.(.(.(.(.(.(.",
"(.(.(.(.(.(.(.(.(.(.(.(.(.(.(.(.(.(.(.(.(.(.(.(.(.(.(.(.(.(.(.(.(.(.(.= = - - (.(.(.(.(.(.(.(.(.(.(.(.(.(.(.(.(.(.(.(.(.(.(.(.(.",
"(.(.(.(.(.(.(.(.(.(.(.(.(.(.(.(.(.(.(.(.(.(.(.(.(.(.(.(.(.(.(.(.(.(.(.(.(.(.- (.(.(.(.(.(.(.(.(.(.(.(.(.(.(.(.(.(.(.(.(.(.(.(.(.",
"(.(.(.(.(.(.(.(.(.(.(.(.(.(.(.(.(.(.(.(.(.(.(.(.(.(.(.(.(.(.(.(.(.(.(.(.(.(.(.(.(.(.(.(.(.(.(.(.(.(.(.(.(.(.(.(.(.(.(.(.(.(.(.(.",
"(.(.(.(.(.(.(.(.(.(.(.(.(.(.(.(.(.(.(.(.(.(.(.(.(.(.(.(.(.(.(.(.(.(.(.(.(.(.(.(.(.(.(.(.(.(.(.(.(.(.(.(.(.(.(.(.(.(.(.(.(.(.(.(.",
"(.(.(.(.(.(.(.(.(.(.(.(.(.(.(.(.(.(.(.(.(.(.(.(.(.(.(.(.(.(.(.(.(.(.(.(.(.(.(.(.(.(.(.(.(.(.(.(.(.(.(.(.(.(.(.(.(.(.(.(.(.(.(.(.",
"(.(.(.(.(.(.(.(.(.(.(.(.(.(.(.(.(.(.(.(.(.(.(.(.(.(.(.(.(.(.(.(.(.(.(.(.(.(.(.(.(.(.(.(.(.(.(.(.(.(.(.(.(.(.(.(.(.(.(.(.(.(.(.(.",
"(.(.(.(.(.(.(.(.(.(.(.(.(.(.(.(.(.(.(.(.(.(.(.(.(.(.(.(.(.(.(.(.(.(.(.(.(.(.(.(.(.(.(.(.(.(.(.(.(.(.(.(.(.(.(.(.(.(.(.(.(.(.(.(.",
"(.(.(.(.(.(.(.(.(.(.(.(.(.(.(.(.(.(.(.(.(.(.(.(.(.(.(.(.(.(.(.(.(.(.(.(.(.(.(.(.(.(.(.(.(.(.(.(.(.(.(.(.(.(.(.(.(.(.(.(.(.(.(.(."
};
