/* XPM */
static char *result[] = {
/* columns rows colors chars-per-pixel */
"64 64 134 2 ",
"   c #5F0F03",
".  c #711E05",
"X  c #7F2608",
"o  c #6D2615",
"O  c #7D341E",
"+  c #6E3120",
"@  c #7E3F29",
"#  c #6C3D32",
"$  c #822C0F",
"%  c #9D2C0A",
"&  c #8D320D",
"*  c #9B370E",
"=  c #8F3717",
"-  c #943F10",
";  c #9D3D19",
":  c #AC380E",
">  c #BB390C",
",  c #AC3E1A",
"<  c #C83F0D",
"1  c #A0430E",
"2  c #AD4A0C",
"3  c #A0451E",
"4  c #B94219",
"5  c #BA4C1F",
"6  c #8D4225",
"7  c #814835",
"8  c #AC4A20",
"9  c #A04E2F",
"0  c #B15323",
"q  c #BB5825",
"w  c #BB502C",
"e  c #A55C3E",
"r  c #BB5C31",
"t  c #BB6837",
"y  c #B9613D",
"u  c #C84E0F",
"i  c #CD4319",
"p  c #D45F11",
"a  c #E04F1D",
"s  c #E35F16",
"d  c #FF731C",
"f  c #C94F20",
"g  c #C95A23",
"h  c #D75C25",
"j  c #C85F31",
"k  c #F45F25",
"l  c #CA6625",
"z  c #D76B27",
"x  c #CC6A38",
"c  c #D86130",
"v  c #D86D36",
"b  c #DB7539",
"n  c #E56024",
"m  c #FF6323",
"M  c #F16E2C",
"N  c #FF6F29",
"B  c #E86231",
"V  c #E66D35",
"C  c #F66F34",
"Z  c #E67A39",
"A  c #F37A37",
"S  c #FF7D36",
"D  c #855745",
"F  c #B96A47",
"G  c #A06C55",
"H  c #BE7352",
"J  c #AA7D66",
"K  c #C86241",
"L  c #CA6D46",
"P  c #D86642",
"I  c #CB784E",
"U  c #D77045",
"Y  c #D77C4E",
"T  c #E67043",
"R  c #ED754F",
"E  c #E57D4A",
"W  c #F27F49",
"Q  c #FF8226",
"!  c #F38837",
"~  c #FF8D33",
"^  c #FFA93D",
"/  c #DB834E",
"(  c #DC8A5D",
")  c #FF8246",
"_  c #FB8843",
"`  c #FF8942",
"'  c #FB894F",
"]  c #FF8B4F",
"[  c #FB9044",
"{  c #FF9144",
"}  c #FC904F",
"|  c #FF9C4B",
" . c #E88853",
".. c #F18C50",
"X. c #E69753",
"o. c #FF9252",
"O. c #F2975D",
"+. c #F8915A",
"@. c #FF9C5A",
"#. c #F6A84D",
"$. c #FFAA4C",
"%. c #FFB84E",
"&. c #F1AC5D",
"*. c #FFAA5D",
"=. c #EEB75F",
"-. c #FFB75E",
";. c #C28461",
":. c #C3986F",
">. c #DE9D65",
",. c #FF9F67",
"<. c #F09E68",
"1. c #DFB86F",
"2. c #EDAB6F",
"3. c #FFAA6C",
"4. c #F2B76E",
"5. c #FFB96D",
"6. c #FFAE79",
"7. c #EFB87D",
"8. c #FFB97B",
"9. c #FFC55F",
"0. c #EDC462",
"q. c #F2C46F",
"w. c #FFC66F",
"e. c #F0CF6F",
"r. c #F0C37E",
"t. c #FFC57B",
"y. c #FFD270",
"u. c #FFD37E",
"i. c #FFE071",
"p. c #FFE07F",
"a. c #EFEA8D",
"s. c #FFE08E",
"d. c #FFEB8D",
"f. c None",
/* pixels */
"f.f.f.f.f.f.f.f.f.f.f.f.f.f.f.f.f.f.f.f.f.f.f.f.f.f.f.f.f.f.f.f.f.f.f.f.f.f.f.f.f.f.f.f.f.f.f.f.f.f.f.f.f.f.f.f.f.f.f.f.f.f.f.f.",
"f.f.f.f.f.f.f.f.f.f.f.f.f.f.f.f.f.f.f.f.f.f.f.f.f.f.f.f.f.f.f.f.f.f.f.f.f.f.f.f.f.f.f.f.f.f.f.f.f.f.f.f.f.f.f.f.f.f.f.f.f.f.f.f.",
"f.f.f.f.f.f.f.f.f.f.f.f.f.f.f.f.f.f.f.f.f.f.f.f.f.f.f.f.f.f.f.f.f.f.f.f.f.f.f.f.f.f.f.f.f.f.f.f.f.f.f.f.f.f.f.f.f.f.f.f.f.f.f.f.",
"f.f.f.f.f.f.f.f.f.f.f.f.f.f.f.f.f.f.f.f.f.f.f.f.f.f.f.f.f.f.f.f.f.f.f.f.f.f.f.f.f.f.f.f.f.f.f.f.f.f.f.f.f.f.f.f.f.f.f.f.f.f.f.f.",
"f.f.f.f.f.f.f.f.f.f.f.f.f.f.f.f.f.f.f.f.f.f.f.f.f.f.f.f.f.f.f.f.f.f.f.f.f.f.f.f.f.f.f.f.f.f.f.f.f.f.f.f.f.f.f.f.f.f.f.f.f.f.f.f.",
"f.f.f.f.f.f.f.f.f.f.f.f.f.f.f.f.f.f.f.f.f.f.f.f.f.f.f.f.f.f.f.f.f.f.f.f.f.f.f.f.f.f.f.f.f.f.f.f.f.f.f.f.f.f.f.f.f.f.f.f.f.f.f.f.",
"f.f.f.f.f.f.f.f.f.f.f.f.f.f.f.f.f.f.f.f.f.f.f.f.f.f.f.f.f.f.f.f.f.f.f.f.f.f.f.f.f.f.f.f.f.f.f.f.f.f.f.f.f.f.f.f.f.f.f.f.f.f.f.f.",
"f.f.f.f.f.f.f.f.f.f.f.f.f.f.f.f.f.f.f.f.f.f.f.f.f.f.f.f.f.f.f.f.f.f.f.f.f.f.f.f.f.f.f.f.f.f.f.f.f.f.f.f.f.f.f.f.f.f.f.f.f.f.f.f.",
"f.f.f.f.f.f.f.f.f.f.f.f.f.f.f.f.f.f.f.f.f.f.f.f.f.f.f.$ f.f.$ f.f.f.f.f.f.f.f.f.f.$ $ = f.f.f.f.f.f.f.f.f.f.f.f.f.f.f.f.f.f.f.f.",
"f.f.f.f.f.f.f.f.f.f.f.f.f.f.f.f.f.f.f.f.f.f.f.f.f.f.f.f.$ $ $ $ f.f.f.f.f.f.f.f.$ $ $ $ f.f.f.f.f.f.f.f.f.f.f.f.f.f.f.f.f.f.f.f.",
"f.f.f.f.f.f.f.f.f.f.f.f.f.f.f.f.f.f.f.f.f.f.f.f.f.f.f.f.$ $ $ $ $ f.f.f.f.f.$ $ X $ $ $ f.f.$ & f.f.f.f.f.f.f.f.f.f.f.f.f.f.f.f.",
"f.f.f.f.f.f.f.f.f.f.f.f.f.f.f.f.f.f.f.f.f.f.f.f.f.f.f.f.f.$ $ $ & f.f.f.f.f.$ $ f.f.$ & f.f.f.f.f.f.f.f.f.f.f.f.f.f.f.f.f.f.f.f.",
"f.f.f.f.f.f.f.f.f.f.f.f.f.f.f.f.f.f.f.f.f.f.f.f.f.f.f.f.f.f.X $ X f.f.f.f.f.X $ X $ f.$ $ f.& f.f.f.f.8 3 ; f.f.f.f.f.f.f.f.f.f.",
"f.f.f.f.f.f.f.f.f.f.f.f.f.f.f.f.f.f.f.f.f.X f.f.f.$ $ $ X & X $ f.f.7 O - $ X $ O $ $ $ = = f.f.f.f.3 8 - - = f.f.f.f.f.f.f.f.f.",
"f.f.f.f.f.f.f.f.f.f.f.f.f.f.f.f.f.f.f.f.f.$ $ $ X X X X 8 X $ X X 7 D D + & & 3 @ O X & X & f.f.= f.f.- ; = f.f.f.f.f.f.f.f.f.f.",
"f.f.f.f.f.f.f.f.f.f.f.f.f.f.f.f.f.f.f.f.- X $ $ & & $ X X 1 : = 6 Z 3 9 6 @ 6 9 7 6 = & 8 , $ f.& = = = = & f.f.f.f.f.f.f.f.f.f.",
"f.f.f.f.f.f.f.f.f.f.f.f.f.f.f.f.f.f.f.f.$ $ $ & = $ & X X 8 $ , < 8 g c Y z v w h g 3 ; , = , $ $ 3 & = 3 = f.f.f.f.f.f.f.f.f.f.",
"f.f.f.f.f.f.f.f.f.f.f.f.f.f.f.f.f.f.= & $ X $ $ X O & & 3 1 3 c x 2 C C ' ` S R ] B B ; ; r k n ; & = = = $ f.f.f.f.f.f.f.f.f.f.",
"f.f.f.f.f.f.f.f.f.f.f.f.f.f.f.f.f.f.$ 8 3 X O ; 8 $ O 6 3 < 5 n j F V S _ _ >.A @.P B c e B C ; ; & ; & * = X f.f.f.f.f.f.f.f.f.",
"f.f.f.f.f.f.f.f.f.f.f.f.f.f.f.f.f.f.; 3 = 3 3 5 w 8 - 6 : G 0 r x n W S S _ T Z N ) S c k N c ; * $ & & & = $ f.f.f.f.f.f.f.f.f.",
"f.f.f.f.f.f.f.f.f.f.f.f.f.f.f.f.f.= & & , 8 3 A & 5 9 ; f f U ) N S R ` V V _ k k C k B M W B j ; & ; $ $ $ & f.f.f.f.f.f.f.f.f.",
"f.f.f.f.f.f.f.f.f.f.f.f.f.f.f.f.f.= & = 5 3 $ = ; 5 8 9 a P K Y ) C H R R L P h k W ] W U ) n a N a , $ = $ f.f.= = f.f.f.f.f.f.",
"f.f.f.f.f.f.f.f.f.f.f.f.f.f.f.f.f.& & = $ * $ * h B 3 f v N I F N F O.E k K y r U W ] ) E C W m ; h n $ & $ f.f.f.f.= f.f.f.f.f.",
"f.f.f.f.f.f.f.f.f.f.f.f.f.f.f.f.f.& $ ; . X a 4 a a f A n T B B M T G C B P w G L I T e H S S C * % , h 0 X f.f.f.f.- f.f.f.f.f.",
"f.f.f.f.f.f.f.f.f.f.f.f.f.f.f.f.f.f.; i , & m k k k > n k C m S B I H E [ k k j r H h E L 0 9 B < 4 & f 8 X f.f.f.f.f.f.f.f.f.f.",
"f.f.f.f.f.f.f.f.f.f.f.f.f.f.f.& X . 5 f a k N N m m a k m N S S G U ` A b Z k T K F F C r K P t 4 w * $ 5 $ f.f.f.f.f.- - f.f.f.",
"f.f.f.f.f.f.f.f.f.f.f.f.f.f.f.= ; X . 8 m N N N k m a k N S N S S _ b C A S A P G Y ' P P y P 9 K e $ = w & f.f.f.f.f.- f.- f.f.",
"f.f.f.f.f.f.f.f.f.f.f.f.f.= = & X $ X $ $ f m m m m M ..W Y [ | ~ { X...[ _ { I U F ..T j K w * r y   & = f.f.f.f.f.f.f.- ; f.f.",
"f.f.f.f.f.f.f.f.f.f.f.= = = $ & X X X $ 0 k m m N P b T E ..<.#.^ O.$.Z .. .L c A C a K V c l K L T e $ 6 + + f.f.f.f.- - f.f.f.",
"f.f.f.f.f.f.f.f.f.= f.f.= = = X % 7 6 9 a N ) ) S C *.3.$.%.0.=.2.2.p.4.R  ./ U T C j K k h I U w 0 6 0 9 h # f.f.f.f.f.f.f.f.f.",
"f.f.f.f.f.f.f.f.f.f.f.$ & = $ X 5 $ D 3 a m S ] _ ` 5.O.3.i.e.t.2.5.*.q.7.+.<.(  .V K c a 5 L w f 5 @ T ..R C $ f.f.f.f.f.f.f.f.",
"f.f.f.f.f.f.f.f.f.f.f.X $ & X = * ; G 9 h N ] O. .+.( ,.@.3.u.1.1.t.q.&.,.3.,./ ( I B B 9 T c _ ,.c 8 y + . @ G f.f.f.f.f.f.f.f.",
"f.f.f.f.f.f.f.f.f.f.f.$ = X $ O O O = e V k c Y W +.<.*.,.8.d.q.a.r.p.6.2.+.t.} } E E T a c K C c e 9 = 6 f.+ D 9 f.f.f.f.f.f.f.",
"f.f.f.f.f.f.f.f.f.f.f.$ $ X $ O O 7 O 6 f h b v S ' } } *.2.1.i.t.-.s.p.2.(  .W W I G E C m m S f ; $ 8 + f.f.D 6 f.f.f.f.f.f.f.",
"f.f.f.f.f.f.f.f.f.f.f.f.$ X + # 6 + @ @ 0 h 7 U T ` W ) { $.=.u.d.y.8.3.+.:.H ] @. .) W C a N a a 4 , & O @ 7 7 6 f.f.f.f.f.f.f.",
"f.f.f.f.f.f.f.f.f.f.f.f.$ f.f.O $ 8 O # 9 , ; h j W { @.,.*.q.y.9.q.,. .u.] ( @.O.] o.B a h m a k W P U t 7 f.6 = = f.f.f.f.f.f.",
"f.f.f.f.f.f.f.f.f.f.f.f.f.f.# o X 6 @ # 6 q M < h M M { X.#.&.X.e.5.t.+.@.;.( -.3.] N c U B V 4 j r = 3 6 $ f.& & = f.f.f.f.f.f.",
"f.f.f.f.f.f.f.f.f.f.f.f.f.f.f.# + @ # $ o 6 6 S c w N N G ! $.X.*.>.+.+.:.:.O.,.o.@.C C B B f & y R O @ 9 5 = f.3 & f.f.f.f.f.f.",
"f.f.f.f.f.f.f.f.f.f.f.f.f.f.f.f.f.@ o 7 + # , w e 4 R J G W @.| w.@.E ,.( o.o.' 3.] S V c h 8 & e r O O 3 3 = - - f.f.f.f.f.f.f.",
"f.f.f.f.f.f.f.f.f.f.f.f.f.f.f.f.f.O O + $ 3 O 6 9 9 j J G P ` _ | ,.o.] ) ) *.o.] @.R B h f j f 5 O X $ 3 5 8 3 = f.f.f.f.f.f.f.",
"f.f.f.f.f.f.f.f.f.f.f.f.f.f.f.. f.f.= & X 6 6 @ 7 @ r F y @.W ] } o.@.S ` ) ] ` S +.F c y j * 5 3 + X f.f.& = - = = f.f.f.f.f.f.",
"f.f.f.f.f.f.f.f.f.f.f.f.f.f.f.. f.= $ f.$ 5 = + + + r P y e P ] o.] @.*.d S ) ' n j 9 r F 8 5 0 q & $ $ f.f.f.f.= f.f.f.f.f.f.f.",
"f.f.f.f.f.f.f.f.f.f.f.f.f.f.f.f.f.f.f.f.3 * = @ o # + c c K U ..] o.` { ` S { C a n U 6 w F 9 o $ f X & = f.f.f.f.f.f.f.f.f.f.f.",
"f.f.f.f.f.f.f.f.f.f.f.f.f.f.f.f.f.f.f.f.f.. 5 0 9 9 o e e K j T V ] C +.{ o.N w f f 8 e - 9 9 3 @ O 6 & f.f.f.f.f.f.f.f.f.f.f.f.",
"f.f.f.f.f.f.f.f.f.f.f.f.f.f.f.f.f.f.f.f.f.f.$ . 9 D # 9 F y h T Y I W s Q Q k g w 3 3 6 # # O O @ @ f.f.f.f.f.f.f.f.f.f.f.f.f.f.",
"f.f.f.f.f.f.f.f.f.f.f.f.f.f.f.f.f.f.f.f.f.f.f.f.+ @ @ 7 e e e G y L n N N N m i + = ; = 6 @ 6 = O D f.f.f.f.f.f.f.f.f.f.f.f.f.f.",
"f.f.f.f.f.f.f.f.f.f.f.f.f.f.f.f.f.f.f.f.f.f.f.f.# 7 # 7 F G ;.G y F s C N M a a ; = ; O # 9 6 O @ D f.f.f.f.f.f.f.f.f.f.f.f.f.f.",
"f.f.f.f.f.f.f.f.f.f.f.f.f.f.f.f.f.f.f.f.f.f.f.f.# e 7 O L y K c F U u p h u , * X 8 ; 9 e @ D 7 7 @ f.f.f.f.f.f.f.f.f.f.f.f.f.f.",
"f.f.f.f.f.f.f.f.f.f.f.f.f.f.f.f.f.f.f.f.f.f.f.f.# + # # 9 U U U J B f 5 4 & X . $ . ; 6 @ 7 D 7 f.f.f.f.f.f.f.f.f.f.f.f.f.f.f.f.",
"f.f.f.f.f.f.f.f.f.f.f.f.f.f.f.f.f.f.f.f.f.f.f.f.# + + # 6 r V g g F ; , * , $ . X * , O O 7 @ f.f.f.f.f.f.f.f.f.f.f.f.f.f.f.f.f.",
"f.f.f.f.f.f.f.f.f.f.f.f.f.f.f.f.f.f.f.f.f.f.f.# # + + # O p C , M > & * * : & X X , $ $ f.f.f.f.f.f.f.f.f.f.f.f.f.f.f.f.f.f.f.f.",
"f.f.f.f.f.f.f.f.f.f.f.f.f.f.f.f.f.f.f.f.f.f.f.f.# # + # @ 6 l 0 - , * . & : * X X $ $ & f.f.f.f.f.f.f.f.f.f.f.f.f.f.f.f.f.f.f.f.",
"f.f.f.f.f.f.f.f.f.f.f.f.f.f.f.f.f.f.f.f.f.f.f.f.f.f.# + O $ O ; o 4 . X . X . ; X = $ $ f.f.f.f.f.f.f.f.f.f.f.f.f.f.f.f.f.f.f.f.",
"f.f.f.f.f.f.f.f.f.f.f.f.f.f.f.f.f.f.f.f.f.f.f.f.f.f.f.f.+ # # # o $ . . . . . . f.= f.f.f.f.f.f.f.f.f.f.f.f.f.f.f.f.f.f.f.f.f.f.",
"f.f.f.f.f.f.f.f.f.f.f.f.f.f.f.f.f.f.f.f.f.f.f.f.f.f.f.f.f.# # + f.X $ X f.f.f.f.= f.f.f.f.f.f.f.f.f.f.f.f.f.f.f.f.f.f.f.f.f.f.f.",
"f.f.f.f.f.f.f.f.f.f.f.f.f.f.f.f.f.f.f.f.f.f.f.f.f.f.f.f.f.f.f.f.f.f.f.f.= f.& = f.f.f.f.f.f.f.f.f.f.f.f.f.f.f.f.f.f.f.f.f.f.f.f.",
"f.f.f.f.f.f.f.f.f.f.f.f.f.f.f.f.f.f.f.f.f.f.f.f.f.f.f.f.f.f.f.f.f.f.f.f.= = = = f.f.f.f.f.f.f.f.f.f.f.f.f.f.f.f.f.f.f.f.f.f.f.f.",
"f.f.f.f.f.f.f.f.f.f.f.f.f.f.f.f.f.f.f.f.f.f.f.f.f.f.f.f.f.f.f.f.f.f.f.f.f.= = f.f.f.f.f.f.f.f.f.f.f.f.f.f.f.f.f.f.f.f.f.f.f.f.f.",
"f.f.f.f.f.f.f.f.f.f.f.f.f.f.f.f.f.f.f.f.f.f.f.f.f.f.f.f.f.f.f.f.f.f.f.f.f.f.f.f.f.f.f.f.f.f.f.f.f.f.f.f.f.f.f.f.f.f.f.f.f.f.f.f.",
"f.f.f.f.f.f.f.f.f.f.f.f.f.f.f.f.f.f.f.f.f.f.f.f.f.f.f.f.f.f.f.f.f.f.f.f.f.f.f.f.f.f.f.f.f.f.f.f.f.f.f.f.f.f.f.f.f.f.f.f.f.f.f.f.",
"f.f.f.f.f.f.f.f.f.f.f.f.f.f.f.f.f.f.f.f.f.f.f.f.f.f.f.f.f.f.f.f.f.f.f.f.f.f.f.f.f.f.f.f.f.f.f.f.f.f.f.f.f.f.f.f.f.f.f.f.f.f.f.f.",
"f.f.f.f.f.f.f.f.f.f.f.f.f.f.f.f.f.f.f.f.f.f.f.f.f.f.f.f.f.f.f.f.f.f.f.f.f.f.f.f.f.f.f.f.f.f.f.f.f.f.f.f.f.f.f.f.f.f.f.f.f.f.f.f.",
"f.f.f.f.f.f.f.f.f.f.f.f.f.f.f.f.f.f.f.f.f.f.f.f.f.f.f.f.f.f.f.f.f.f.f.f.f.f.f.f.f.f.f.f.f.f.f.f.f.f.f.f.f.f.f.f.f.f.f.f.f.f.f.f.",
"f.f.f.f.f.f.f.f.f.f.f.f.f.f.f.f.f.f.f.f.f.f.f.f.f.f.f.f.f.f.f.f.f.f.f.f.f.f.f.f.f.f.f.f.f.f.f.f.f.f.f.f.f.f.f.f.f.f.f.f.f.f.f.f."
};
