/* XPM */
static char *result[] = {
/* columns rows colors chars-per-pixel */
"64 64 97 2 ",
"   c #6B1302",
".  c #631A0C",
"X  c #711E05",
"o  c #5E251C",
"O  c #7F2608",
"+  c #6D2615",
"@  c #7D341E",
"#  c #6E3120",
"$  c #7E3F29",
"%  c #6C3D32",
"&  c #822C0F",
"*  c #9D2C0A",
"=  c #8D320D",
"-  c #9B370E",
";  c #8F3717",
":  c #943F10",
">  c #9D3D19",
",  c #AC380E",
"<  c #BB390C",
"1  c #AC3E1A",
"2  c #C83F0D",
"3  c #A0430E",
"4  c #A0451E",
"5  c #B94219",
"6  c #BA4C1F",
"7  c #8D4225",
"8  c #814835",
"9  c #AC4A20",
"0  c #A04E2F",
"q  c #B15323",
"w  c #BB5825",
"e  c #BB502C",
"r  c #A55C3E",
"t  c #BB5C31",
"y  c #B9613D",
"u  c #C84E0F",
"i  c #CD4319",
"p  c #E04F1D",
"a  c #C94F20",
"s  c #C95A23",
"d  c #D75C25",
"f  c #C85F31",
"g  c #F45F25",
"h  c #CA6625",
"j  c #CC6A38",
"k  c #D86130",
"l  c #D86D36",
"z  c #E56024",
"x  c #FF6323",
"c  c #FF6F29",
"v  c #E86231",
"b  c #E66D35",
"n  c #F66F34",
"m  c #E67A39",
"M  c #F37A37",
"N  c #FF7D36",
"B  c #855745",
"V  c #B96A47",
"C  c #A06C55",
"Z  c #BE7352",
"A  c #817270",
"S  c #AA7D66",
"D  c #C86241",
"F  c #CA6D46",
"G  c #D86642",
"H  c #CB784E",
"J  c #D77045",
"K  c #D77C4E",
"L  c #E67043",
"P  c #ED754F",
"I  c #E57D4A",
"U  c #F27F49",
"Y  c #DB834E",
"T  c #DC8A5D",
"R  c #FF8246",
"E  c #FB8843",
"W  c #FF8942",
"Q  c #FB894F",
"!  c #FF8B4F",
"~  c #FF9144",
"^  c #FC904F",
"/  c #F59A4D",
"(  c #E88853",
")  c #F18C50",
"_  c #FF9252",
"`  c #F2975D",
"'  c #F8915A",
"]  c #FF9C5A",
"[  c #FFAA5D",
"{  c #FF9F67",
"}  c #F09E68",
"|  c #EDAB6F",
" . c #FFAA6C",
".. c #F2B76E",
"X. c #FFB96D",
"o. c #FFC66F",
"O. c None",
/* pixels */
"O.O.O.O.O.O.O.O.O.O.O.O.O.O.O.O.O.O.O.O.O.O.O.O.O.O.O.O.O.O.O.O.O.O.O.O.O.O.O.O.O.O.O.O.O.O.O.O.O.O.O.O.O.O.O.O.O.O.O.O.O.O.O.O.",
"O.O.O.O.O.O.O.O.O.O.O.O.O.O.O.O.O.O.O.O.O.O.O.O.O.O.O.O.O.O.O.O.O.O.O.O.O.O.O.O.O.O.O.O.O.O.O.O.O.O.O.O.O.O.O.O.O.O.O.O.O.O.O.O.",
"O.O.O.O.O.O.O.O.O.O.O.O.O.O.O.O.O.O.O.O.O.O.O.O.O.O.O.O.O.O.O.O.O.O.O.O.O.O.O.O.O.O.O.O.O.O.O.O.O.O.O.O.O.O.O.O.O.O.O.O.O.O.O.O.",
"O.O.O.O.O.O.O.O.O.O.O.O.O.O.O.O.O.O.O.O.O.O.O.O.O.O.O.O.O.O.O.O.O.O.O.O.O.O.O.O.O.O.O.O.O.O.O.O.O.O.O.O.O.O.O.O.O.O.O.O.O.O.O.O.",
"O.O.O.O.O.O.O.O.O.O.O.O.O.O.O.O.O.O.O.O.O.O.O.O.O.O.O.O.O.O.O.O.O.O.O.O.O.O.O.O.O.O.O.O.O.O.O.O.O.O.O.O.O.O.O.O.O.O.O.O.O.O.O.O.",
"O.O.O.O.O.O.O.O.O.O.O.O.O.O.O.O.O.O.O.O.O.O.O.O.O.O.O.O.O.O.O.O.O.O.O.O.O.O.O.O.O.O.O.O.O.O.O.O.O.O.O.O.O.O.O.O.O.O.O.O.O.O.O.O.",
"O.O.O.O.O.O.O.O.O.O.O.O.O.O.O.O.O.O.O.O.O.O.O.O.O.O.O.O.O.O.O.O.O.O.O.O.O.O.O.O.O.O.O.O.O.O.O.O.O.O.O.O.O.O.O.O.O.O.O.O.O.O.O.O.",
"O.O.O.O.O.O.O.O.O.O.O.O.O.O.O.O.O.O.O.O.O.O.O.O.O.O.O.O.O.O.O.O.O.O.O.O.O.O.O.O.O.O.O.O.O.O.O.O.O.O.O.O.O.O.O.O.O.O.O.O.O.O.O.O.",
"O.O.O.O.O.O.O.O.O.O.O.O.O.O.O.O.O.O.O.O.O.O.O.O.O.O.O.O.O.O.O.O.O.O.O.O.O.O.O.O.O.O.O.& O.O.O.O.O.O.O.O.O.O.O.O.O.O.O.O.O.O.O.O.",
"O.O.O.O.O.O.O.O.O.O.O.O.O.O.O.O.O.O.O.O.O.O.O.O.O.O.O.O.O.X O.O.O.O.O.O.O.O.O.O.O.X O O O.O.O.O.O.O.O.O.O.O.O.O.O.O.O.O.O.O.O.O.",
"O.O.O.O.O.O.O.O.O.O.O.O.O.O.O.O.O.O.O.O.O.O.O.O.O.O.O.O.O.O X O.O.O.O.O.O.O.O.X O.X O O O.O.O.O.O.O.O.O.O.O.O.O.O.O.O.O.O.O.O.O.",
"O.O.O.O.O.O.O.O.O.O.O.O.O.O.O.O.O.O.O.O.O.O.O.O.O.O.O.O.O.O.X O O.O.O.O.O.O.O.O.O.O.O O & O.O.O.O.O.O.O.O.O.O.O.O.O.O.O.O.O.O.O.",
"O.O.O.O.O.O.O.O.O.O.O.O.O.O.O.O.O.O.O.O.O.O.O.O.O.O.O.O.O.O.X O X O.O.O.O.O.O.O.O.O.O.O & O.O.O.O.O.O.; ; O.O.O.O.O.O.O.O.O.O.O.",
"O.O.O.O.O.O.O.O.O.O.O.O.O.O.O.O.O.O.O.O.O.O.O.O.O.O.O.X O.O O X O.O.8 # O.O.O.O @ + O X O.= O.O.O.O.O.; ; ; O.O.O.O.O.O.O.O.O.O.",
"O.O.O.O.O.O.O.O.O.O.O.O.O.O.O.O.O.O.O.O.O.O.O.O.O.O O.X 3 X O.& X r % % @ X + & # # O O O & & O.O.O.& = ; ; O.O.O.O.O.O.O.O.O.O.",
"O.O.O.O.O.O.O.O.O.O.O.O.O.O.O.O.O.O.O.h O.O.O.O.O.O.O.O X O O O + 4 O @ @ # 7 7 @ # @ O = & & O.O.& & O.; O.O.O.O.O.O.O.O.O.O.O.",
"O.O.O.O.O.O.O.O.O.O.O.O.O.O.O.O.O.O.O.O.O.O.O.O.O.O O.O O @ O & & + ; 4 r 9 e 0 ; 6 & O O O & = O = & = ; O.O.O.O.O.O.O.O.O.O.O.",
"O.O.O.O.O.O.O.O.O.O.O.O.O.O.O.O.O.O.& O X O O O.O & O & & O @ > 0 & 6 a l v k k R e 6 + # 7 6 1 & & & = & & O.O.O.O.O.O.O.O.O.O.",
"O.O.O.O.O.O.O.O.O.O.O.O.O.O.O.O.O.O.& & & O & & & O @ & @ & = > 7 8 s g b G U k k t 9 > @ 6 d & & & & O & & O.O.O.O.O.O.O.O.O.O.",
"O.O.O.O.O.O.O.O.O.O.O.O.O.O.O.O.O.O.& ; & & & l & - & @ O B 9 4 9 5 k z a l e f 1 k z > 5 d 1 . O & O & & = & O.O.O.O.O.O.O.O.O.",
"O.O.O.O.O.O.O.O.O.O.O.O.O.O.O.O.O.& O O O ; O & O - ; + 3 - e g p q t g e e d 6 5 0 e e > f 1 7 + O & & & O.O.O.O.O.O.O.O.O.O.O.",
"O.O.O.O.O.O.O.O.O.O.O.O.O.O.O.O.O.& & & ; O + + & = @ ; - 0 0 G p y r 0 s r 0 1 a e b f D f 9 1 ; ; - O = & O.O.O.O.O.O.O.O.O.O.",
"O.O.O.O.O.O.O.O.O.O.O.O.O.O.O.O.O.O.= & O O X O = 1 + ; q i 0 8 6 7 I i 1 0 8 7 r D J k y s G > + & > O & O.O.O.O.O.O.O.O.O.O.O.",
"O.O.O.O.O.O.O.O.O.O.O.O.O.O.O.O.O.= O & X X - = u O ; f - J - > a 9 8 g 1 9 7 r 0 y 6 8 D d f 4 = X & ; ; O O.O.O.O.O.O.O.O.O.O.",
"O.O.O.O.O.O.O.O.O.O.O.O.O.O.O.O.O.O.O - O X 2 , 5 , O * 6 , i i q r y f x a 5 7 7 r @ 0 r # 8 0 = & O = & & O.O.O.O.O.O.O.O.O.O.",
"O.O.O.O.O.O.O.O.O.O.O.O.O.O.O.O X X ; O , , i i < u * , 2 6 p z r s v p g g p i 0 r 8 > 8 8 0 0 O @ O O ; O O.O.O.O.O.O.O.O.O.O.",
"O.O.O.O.O.O.O.O.O.O.O.O.O.O.O.> & O.X = 1 p p p , * , > g g g p g x p p x p p d B B I 7 4 8 7 % $ % X + & O.O.O.O.O.O.O.O.O.O.O.",
"O.O.O.O.O.O.O.O.O.O.O.O.O.& & O O.O X   X > i 2 < 1 6 J f k x c x x n x x x g J e y s 0 @ 7 # . @ # X O O O.O.O.O.O.O.O.O.O.O.O.",
"O.O.O.O.O.O.O.O.O.O.O.& & & O.O O O X + O 5 2 i a a d v k n M N x n W p n v p e g i > 8 > @ 4 $ B 7 # + + O.O.O.O.O.O.O.O.O.O.O.",
"O.O.O.O.O.O.O.O.O.O.O.O.& & & O & $ @ # * 2 s e p i _ R R N ^ E ( ) ~ _ U v G a e 6 7 7 - = 8 B # @ # $ 7 4 @ O.O.O.O.O.O.O.O.O.",
"O.O.O.O.O.O.O.O.O.O.O.& & & X O & X % X - 5 d L g n R L _ ] { { ( _ U / Q I I P G e 4 $ & + B % & @ # $ 0 9 > @ O.O.O.O.O.O.O.O.",
"O.O.O.O.O.O.O.O.O.O.O.O.O & O.O X + B @ ; d v F L n L ! U _ { T } ) { ^ U R I F G D 4 : # 8 B 7 R 0 + 0 + O.O.B 8 O.O.O.O.O.O.O.",
"O.O.O.O.O.O.O.O.O.O.O.O O O X # @ + + 7 O - ; k k v ' N R ' o.| ..} ] } Q V Q U d f 0 e & - 8 = o # 7 O.@ O.O.O.8 O.O.O.O.O.O.O.",
"O.O.O.O.O.O.O.O.O.O.O.& O O.O.# # % + q & - q 7 p D v c c U ( /  ._ X.] } Z G f p y C 0 9 , = = q X O & O.O.O.8 7 O.O.O.O.O.O.O.",
"O.O.O.O.O.O.O.O.O.O.O.O.O.O.O.% # + # o @ - o 0 q x p g c M ^ ] X.] ` | Y K D k G V f V 0 X i = = = & & # $ O.O.7 O.O.O.O.O.O.O.",
"O.O.O.O.O.O.O.O.O.O.O.O.O.O.O.+ O + # % # + # > ; v c N Q ! / ] ! _ ' L [ L Y d ) e m ; & & , * - q > ; 7 7 O.@ ; ; O.O.O.O.O.O.",
"O.O.O.O.O.O.O.O.O.O.O.O.O.O.O.O.O.+ % % + ; = X ; e e c P M Y M ^ _  .n L F Z _ Q D 5 8 0 7 @ O = @ @ @ @ & O.O.= ; O.O.O.O.O.O.",
"O.O.O.O.O.O.O.O.O.O.O.O.O.O.O.O.# % % + X % X 9 > ; 5 i r x n k W K H P Z S K U L L 6 7 4 4 O & @ 0 & @ @ ; O.O.O.= O.O.O.O.O.O.",
"O.O.O.O.O.O.O.O.O.O.O.O.O.O.O.O.O.O.O.% O.# X > o = r A B k c c Q N k I H L G F ( L 9 9 > ; # . # @ @ @ @ = ; O.- O.O.O.O.O.O.O.",
"O.O.O.O.O.O.O.O.O.O.O.O.O.O.O.O.O.O.@ O.O.@ # + % & 7 B B 4 v z N R b v v v U U D P t > > O 0 O = & O & = ; ; ; = O.O.O.O.O.O.O.",
"O.O.O.O.O.O.O.O.O.O.O.O.O.O.O.O.O.O.& O.O.@ # # % # @ 0 7 F e L f k G i x k v a 9 K B 4 9 ; . O X + O.O.O.O.& = ; ; O.O.O.O.O.O.",
"O.O.O.O.O.O.O.O.O.O.O.O.O.O.O.O.O.O.O.& O ; @ # # + @ @ 7 7 7 j g v c N g v a y > 7 $ $ 7 $ & + 9 O O.O.O.O.O.O.= O.O.O.O.O.O.O.",
"O.O.O.O.O.O.O.O.O.O.O.O.O.O.O.O.O.O.O.O.O.O O + . # + 9 > 7 0 D L J g M p i v y , - q o ; 7 $ X ; = O.& O.O.O.O.O.O.O.O.O.O.O.O.",
"O.O.O.O.O.O.O.O.O.O.O.O.O.O.O.O.O.O.O.O.O.O.; @ y % # $ 7 > 0 6 4 D a F c n s = - - O 7 O $ $ @ @ & & O.O.O.O.O.O.O.O.O.O.O.O.O.",
"O.O.O.O.O.O.O.O.O.O.O.O.O.O.O.O.O.O.O.O.O.O.O.O.@ 8 # % 8 # & q y r q > g g 5 ; & + & + % % + & $ $ O.O.O.O.O.O.O.O.O.O.O.O.O.O.",
"O.O.O.O.O.O.O.O.O.O.O.O.O.O.O.O.O.O.O.O.O.O.O.O.% % # % % 8 $ B 8 r 5 2 p 2 5 & + + X & @ $ @ & O.8 O.O.O.O.O.O.O.O.O.O.O.O.O.O.",
"O.O.O.O.O.O.O.O.O.O.O.O.O.O.O.O.O.O.O.O.O.O.O.O.% 7 # % 8 B B B 7 0 4 s p u * * O X + @ $ $ @ & $ 8 O.O.O.O.O.O.O.O.O.O.O.O.O.O.",
"O.O.O.O.O.O.O.O.O.O.O.O.O.O.O.O.O.O.O.O.O.O.O.O.O.$ % # B $ q 0 0 0 - > 1 3 & O X = & $ 8 @ B 8 $ O.O.O.O.O.O.O.O.O.O.O.O.O.O.O.",
"O.O.O.O.O.O.O.O.O.O.O.O.O.O.O.O.O.O.O.O.O.O.O.O.O.@ % # & 8 t 9 B e - ; = X O X X X O @ $ O.B 8 O.O.O.O.O.O.O.O.O.O.O.O.O.O.O.O.",
"O.O.O.O.O.O.O.O.O.O.O.O.O.O.O.O.O.O.O.O.O.O.O.O.O.O.# % # 7 0 ; 7 7 & + O X X X X X & & % 8 $ O.O.O.O.O.O.O.O.O.O.O.O.O.O.O.O.O.",
"O.O.O.O.O.O.O.O.O.O.O.O.O.O.O.O.O.O.O.O.O.O.O.O.O.O.# # X 3 w O 5 O O X X X = X X X X O.O.O.O.O.O.O.O.O.O.O.O.O.O.O.O.O.O.O.O.O.",
"O.O.O.O.O.O.O.O.O.O.O.O.O.O.O.O.O.O.O.O.O.O.O.O.O.O.O.# # & 4 & 4 X X X X X X X X X O & O.O.O.O.O.O.O.O.O.O.O.O.O.O.O.O.O.O.O.O.",
"O.O.O.O.O.O.O.O.O.O.O.O.O.O.O.O.O.O.O.O.O.O.O.O.O.O.O.O.# & & & + O X O.  X X O X & O.O.O.O.O.O.O.O.O.O.O.O.O.O.O.O.O.O.O.O.O.O.",
"O.O.O.O.O.O.O.O.O.O.O.O.O.O.O.O.O.O.O.O.O.O.O.O.O.O.O.O.O.O.O.# O.X O.O.O.O.O.O.O.& O.O.O.O.O.O.O.O.O.O.O.O.O.O.O.O.O.O.O.O.O.O.",
"O.O.O.O.O.O.O.O.O.O.O.O.O.O.O.O.O.O.O.O.O.O.O.O.O.O.O.O.O.O.O.O.O.O.O O O.O.O.O.O.O.O.O.O.O.O.O.O.O.O.O.O.O.O.O.O.O.O.O.O.O.O.O.",
"O.O.O.O.O.O.O.O.O.O.O.O.O.O.O.O.O.O.O.O.O.O.O.O.O.O.O.O.O.O.O.O.O.O.O.O.O.O.O.O.O.O.O.O.O.O.O.O.O.O.O.O.O.O.O.O.O.O.O.O.O.O.O.O.",
"O.O.O.O.O.O.O.O.O.O.O.O.O.O.O.O.O.O.O.O.O.O.O.O.O.O.O.O.O.O.O.O.O.O.O.O.O.O.O.& O.O.O.O.O.O.O.O.O.O.O.O.O.O.O.O.O.O.O.O.O.O.O.O.",
"O.O.O.O.O.O.O.O.O.O.O.O.O.O.O.O.O.O.O.O.O.O.O.O.O.O.O.O.O.O.O.O.O.O.O.O.O.& O.O.O.O.O.O.O.O.O.O.O.O.O.O.O.O.O.O.O.O.O.O.O.O.O.O.",
"O.O.O.O.O.O.O.O.O.O.O.O.O.O.O.O.O.O.O.O.O.O.O.O.O.O.O.O.O.O.O.O.O.O.O.O.O.O.O.O.O.O.O.O.O.O.O.O.O.O.O.O.O.O.O.O.O.O.O.O.O.O.O.O.",
"O.O.O.O.O.O.O.O.O.O.O.O.O.O.O.O.O.O.O.O.O.O.O.O.O.O.O.O.O.O.O.O.O.O.O.O.O.O.O.O.O.O.O.O.O.O.O.O.O.O.O.O.O.O.O.O.O.O.O.O.O.O.O.O.",
"O.O.O.O.O.O.O.O.O.O.O.O.O.O.O.O.O.O.O.O.O.O.O.O.O.O.O.O.O.O.O.O.O.O.O.O.O.O.O.O.O.O.O.O.O.O.O.O.O.O.O.O.O.O.O.O.O.O.O.O.O.O.O.O.",
"O.O.O.O.O.O.O.O.O.O.O.O.O.O.O.O.O.O.O.O.O.O.O.O.O.O.O.O.O.O.O.O.O.O.O.O.O.O.O.O.O.O.O.O.O.O.O.O.O.O.O.O.O.O.O.O.O.O.O.O.O.O.O.O.",
"O.O.O.O.O.O.O.O.O.O.O.O.O.O.O.O.O.O.O.O.O.O.O.O.O.O.O.O.O.O.O.O.O.O.O.O.O.O.O.O.O.O.O.O.O.O.O.O.O.O.O.O.O.O.O.O.O.O.O.O.O.O.O.O.",
"O.O.O.O.O.O.O.O.O.O.O.O.O.O.O.O.O.O.O.O.O.O.O.O.O.O.O.O.O.O.O.O.O.O.O.O.O.O.O.O.O.O.O.O.O.O.O.O.O.O.O.O.O.O.O.O.O.O.O.O.O.O.O.O."
};
