/* XPM */
static char *result[] = {
/* columns rows colors chars-per-pixel */
"64 64 72 1 ",
"  c #5F0F03",
". c #6B1302",
"X c #631A0C",
"o c #711E05",
"O c #5E251C",
"+ c #7F2608",
"@ c #6D2615",
"# c #7D341E",
"$ c #6E3120",
"% c #7E3F29",
"& c #6C3D32",
"* c #822C0F",
"= c #9D2C0A",
"- c #8D320D",
"; c #9B370E",
": c #8F3717",
"> c #943F10",
", c #9D3D19",
"< c #B7290A",
"1 c #AC380E",
"2 c #BB390C",
"3 c #AC3E1A",
"4 c #C83F0D",
"5 c #A0451E",
"6 c #B94219",
"7 c #BA4C1F",
"8 c #8D4225",
"9 c #814835",
"0 c #AC4A20",
"q c #A04E2F",
"w c #B15323",
"e c #BB502C",
"r c #A55C3E",
"t c #BB5C31",
"y c #BB6837",
"u c #B9613D",
"i c #CD4319",
"p c #E04F1D",
"a c #C94F20",
"s c #C95A23",
"d c #D75C25",
"f c #C85F31",
"g c #F45F25",
"h c #CC6A38",
"j c #D86130",
"k c #E56024",
"l c #FF6323",
"z c #F16E2C",
"x c #FF6F29",
"c c #E86231",
"v c #E66D35",
"b c #F66F34",
"n c #F37A37",
"m c #FF7D36",
"M c #855745",
"N c #B96A47",
"B c #A06C55",
"V c #BE7352",
"C c #C86241",
"Z c #CA6D46",
"A c #D77045",
"S c #E67043",
"D c #ED754F",
"F c #E57D4A",
"G c #F27F49",
"H c #DC8A5D",
"J c #FF8246",
"K c #FB894F",
"L c #FF8B4F",
"P c #E88853",
"I c #F18C50",
"U c None",
/* pixels */
"UUUUUUUUUUUUUUUUUUUUUUUUUUUUUUUUUUUUUUUUUUUUUUUUUUUUUUUUUUUUUUUU",
"UUUUUUUUUUUUUUUUUUUUUUUUUUUUUUUUUUUUUUUUUUUUUUUUUUUUUUUUUUUUUUUU",
"UUUUUUUUUUUUUUUUUUUUUUUUUUUUUUUUUUUUUUUUUUUUUUUUUUUUUUUUUUUUUUUU",
"UUUUUUUUUUUUUUUUUUUUUUUUUUUUUUUUUUUUUUUUUUUUUUUUUUUUUUUUUUUUUUUU",
"UUUUUUUUUUUUUUUUUUUUUUUUUUUUUUUUUUUUUUUUUUUUUUUUUUUUUUUUUUUUUUUU",
"UUUUUUUUUUUUUUUUUUUUUUUUUUUUUUUUUUUUUUUUUUUUUUUUUUUUUUUUUUUUUUUU",
"UUUUUUUUUUUUUUUUUUUUUUUUUUUUUUUUUUUUUUUUUUUUUUUUUUUUUUUUUUUUUUUU",
"UUUUUUUUUUUUUUUUUUUUUUUUUUUUUUUUUUUUUUUUUUUUUUUUUUUUUUUUUUUUUUUU",
"UUUUUUUUUUUUUUUUUUUUUUUUUUUUUUUUUUUUUUUUUUUUUUUUUUUUUUUUUUUUUUUU",
"UUUUUUUUUUUUUUUUUUUUUUUUUUUUUUUUUUUUUUUUUUUUUUUUUUUUUUUUUUUUUUUU",
"UUUUUUUUUUUUUUUUUUUUUUUUUUUUUUUUUUUUUUUUUU.UUUUUUUUUUUUUUUUUUUUU",
"UUUUUUUUUUUUUUUUUUUUUUUUUUUUUUUUUUUUUUUUUUUUoUUUUUUUUUUUUUUUUUUU",
"UUUUUUUUUUUUUUUUUUUUUUUUUUUUUUUUUUUUUUUUUUUUoUUUUUU***UUUUUUUUUU",
"UUUUUUUUUUUUUUUUUUUUUUUUUUUUUUUUUUUUUUUU@UUoUUUUUUUU**UUUUUUUUUU",
"UUUUUUUUUUUUUUUUUUUUUUUUUUUUUUUUUr$&$U@@U@+oU*UUUUUUUUUUUUUUUUUU",
"UUUUUUUUUUUUUUUUUUUUUUUUUUUUUUoo@*oo@&#*+@@o+oUUUUUU*UUUUUUUUUUU",
"UUUUUUUUUUUUUUUUUUUUUUUUUUUU@@$@$+o*#:5%@7X@o@o++++*UUUUUUUUUUUU",
"UUUUUUUUUUUUUUUUUU*UUUUUUUU@$o$$$o+;t55sv#*X@@#++**+*UUUUUUUUUUU",
"UUUUUUUUUUUUUUUUUU***Uw*++@$$$o@@$;3wqf;,8#@X*:o**+U+UUUUUUUUUUU",
"UUUUUUUUUUUUUUUUUU***+U:++$@o$#*+*:-:w+w@::@+3*@U++UUUUUUUUUUUUU",
"UUUUUUUUUUUUUUUUUUU*+oUUU+$o+o#=*$#;:*:**$,8##+@UU+U*UUUUUUUUUUU",
"UUUUUUUUUUUUUUUUUUU++UUUUo$oo9%:@89X,#:-*%w,58#@+@++**UUUUUUUUUU",
"UUUUUUUUUUUUUUUUUUU+UUUoo+$$*o$$#$0o+#O%%qq58,8*++*++UUUUUUUUUUU",
"UUUUUUUUUUUUUUUUU*o+UU+o3.5+@qOX+oO1+*@&$%:&q#8$@o+**UUUUUUUUUUU",
"UUUUUUUUUUUUUUUUUU++oo-+oooo:X++9%8#63+@@%@$&&&&++o++*UUUUUUUUUU",
"UUUUUUUUUUUUUUUUUUo.o+=+++oo.*:*%:;+1,=o$&&@&&$&oooo+UUUUUUUUUUU",
"UUUUUUUUUUUUUUU-UUU++=1=oX-@11===1===-=a&&A$$$$&$XUUUUUUUUUUUUUU",
"UUUUUUUUUUUUUUUUUUU.oo=+o+*88:6424i2i1-,%q#&$@$U$@UUUUUUUUUUUUUU",
"UUUUUUUUUUUUUUUUUUU@o+++*;:3,aigipza13=,1+@$@%Uq&&UUUUUUUUUUUUUU",
"UUUUUUUUUUUUUUUU+UU@oo+:--vdlllggzllj5q##+$&o@&&&UUU&q#UUUUUUUUU",
"UUUUUUUUUUUUUUUooU&.o+-01d0fbxmncbklguteqo#$O$&&&@U$$**UUUUUUUUU",
"UUUUUUUUUUUUUUUUU@&@o*:q03wajJDSPvmbdCN88:@@$&&&88U@UUUUUUUUUUUU",
"UUUUUUUUUUUUUUUUU$$@ooo:33szpLKPFDDKZ9qj*#@$$O&UUUUU#UUU#UUUUUUU",
"UUUUUUUUUUUUUUUUU&8#.o#@35,3ggvxGbSSHM8++%9$@..UU#oUUUUUUUUUUUUU",
"UUUUUUUUUUUUUUUUUUU#@o@@:3=3ppgmJlJPrq8+%9#&5Uo+o*+UUUUU%UUUUUUU",
"UUUUUUUUUUUUUUUUUUUU@@$@@36aclbmgmAqItV*y80$Ooo++***+UUU#UUUUUUU",
"UUUUUUUUUUUUUUUUUUU$U#ooX*#iugCpjvHe88Bjt**&%$@o++#U*UUUUUUUUUUU",
"UUUUUUUUUUUUUUUUUUUUU$o+*@+-&2e0buBqMMqw8q#$@& UU**UU*UUUUUUUUUU",
"UUUUUUUUUUUUUUUUUUUUUU .oo$&@516f0qNBrqqu8@@+o$UUo*UUU*UUUUUUUUU",
"UUUUUUUUUUUUUUUUUUUUU@UU@o$9&X:00e8:,=0w%q$o@XqUooUUU*UUUUUUUUUU",
"UUUUUUUUUUUUUUUUUUUUUUUUUo@@@%-8858+<:,; t&@@@UUUUUUUUUUUUUUUUUU",
"UUUUUUUUUUUUUUUUUUU **UUUU@@@#$8515;=;:%#$$@@$@U*+UUUUUUUUUUUUUU",
"UUUUUUUUUUUUUUUUUUUUU-UUUO$*@o$8wq=s++88oo>@@$$@fUUUUUUUUUUUUUUU",
"UUUUUUUUUUUUUUUUUUUUUU*@hUU$+@@++0*83q:oooo#$@&*UUUUUUUUUUUUUUUU",
"UUUUUUUUUUUUUUUUUUUUUUUU$&U&$@@#%##X1=-oooo@$UUU$UUUUUUUUUUUUUUU",
"UUUUUUUUUUUUUUUUUUUUUUUUUUU$@&$&&%++-+oo@XooUUUUU&UUUUUUUUUUUUUU",
"UUUUUUUUUUUUUUUUUUUUUUUUUUU$$&&&&$$-;-oo.U@$UU$UUUUUUUUUUUUUUUUU",
"UUUUUUUUUUUUUUUUUUUUUUUUUUU&&$@$$$o+*++oUU+$&U9&UUUUUUUUUUUUUUUU",
"UUUUUUUUUUUUUUUUUUUUUUUUUUUU@&*o&oo@@oUUUU@@UUU9UUUUUUUUUUUUUUUU",
"UUUUUUUUUUUUUUUUUUUUUUUUUUUU$$8o&@@$oUUUUUoUUUUUUUUUUUUUUUUUUUUU",
"UUUUUUUUUUUUUUUUUUUUUUUUUUUUU*#o.oUUUUUUU.oUUUUUUUUUUUUUUUUUUUUU",
"UUUUUUUUUUUUUUUUUUUUUUUUUUUUU++o0UUUUUUUUUUUUUUUUUUUUUUUUUUUUUUU",
"UUUUUUUUUUUUUUUUUUUUUUUUUUUUUU@@oUUUUUUUUUUUUUUUUUUUUUUUUUUUUUUU",
"UUUUUUUUUUUUUUUUUUUUUUUUUUUUUUUUUUUUUUUUUUUUUUUUUUUUUUUUUUUUUUUU",
"UUUUUUUUUUUUUUUUUUUUUUUUUUUUUUUUUUUUUUUUUUUUUUUUUUUUUUUUUUUUUUUU",
"UUUUUUUUUUUUUUUUUUUUUUUUUUUUUUUUUUUUUUUUUUUUUUUUUUUUUUUUUUUUUUUU",
"UUUUUUUUUUUUUUUUUUUUUUUUUUUUUUUUUUUUUUUUUUUUUUUUUUUUUUUUUUUUUUUU",
"UUUUUUUUUUUUUUUUUUUUUUUUUUUUUUUUUUUUUUUUUUUUUUUUUUUUUUUUUUUUUUUU",
"UUUUUUUUUUUUUUUUUUUUUUUUUUUUUUUUUUUUUUUUUUUUUUUUUUUUUUUUUUUUUUUU",
"UUUUUUUUUUUUUUUUUUUUUUUUUUUUUUUUUUUUUUUUUUUUUUUUUUUUUUUUUUUUUUUU",
"UUUUUUUUUUUUUUUUUUUUUUUUUUUUUUUUUUUUUUUUUUUUUUUUUUUUUUUUUUUUUUUU",
"UUUUUUUUUUUUUUUUUUUUUUUUUUUUUUUUUUUUUUUUUUUUUUUUUUUUUUUUUUUUUUUU",
"UUUUUUUUUUUUUUUUUUUUUUUUUUUUUUUUUUUUUUUUUUUUUUUUUUUUUUUUUUUUUUUU",
"UUUUUUUUUUUUUUUUUUUUUUUUUUUUUUUUUUUUUUUUUUUUUUUUUUUUUUUUUUUUUUUU"
};
