/* XPM */
static char *result[] = {
/* columns rows colors chars-per-pixel */
"64 64 43 1 ",
"  c #5F0F03",
". c #6B1302",
"X c #631A0C",
"o c #711E05",
"O c #5E251C",
"+ c #7F2608",
"@ c #6D2615",
"# c #7D341E",
"$ c #6E3120",
"% c #7E3F29",
"& c #6C3D32",
"* c #822C0F",
"= c #9D2C0A",
"- c #8D320D",
"; c #9B370E",
": c #8F3717",
"> c #943F10",
", c #9D3D19",
"< c #B7290A",
"1 c #AC380E",
"2 c #BB390C",
"3 c #AC3E1A",
"4 c #A0451E",
"5 c #B94219",
"6 c #BA4C1F",
"7 c #8D4225",
"8 c #814835",
"9 c #AC4A20",
"0 c #A04E2F",
"q c #B15323",
"w c #BB502C",
"e c #B9613D",
"r c #CD4319",
"t c #E04F1D",
"y c #C94F20",
"u c #D75C25",
"i c #C85F31",
"p c #D86D36",
"a c #F66F34",
"s c #855745",
"d c #B96A47",
"f c #C86241",
"g c None",
/* pixels */
"gggggggggggggggggggggggggggggggggggggggggggggggggggggggggggggggg",
"gggggggggggggggggggggggggggggggggggggggggggggggggggggggggggggggg",
"gggggggggggggggggggggggggggggggggggggggggggggggggggggggggggggggg",
"gggggggggggggggggggggggggggggggggggggggggggggggggggggggggggggggg",
"gggggggggggggggggggggggggggggggggggggggggggggggggggggggggggggggg",
"gggggggggggggggggggggggggggggggggggggggggggggggggggggggggggggggg",
"gggggggggggggggggggggggggggggggggggggggggggggggggggggggggggggggg",
"gggggggggggggggggggggggggggggggggggggggggggggggggggggggggggggggg",
"gggggggggggggggggggggggggggggggggggggggggggggggggggggggggggggggg",
"gggggggggggggggggggggggggggggggggggggggggggggggggggggggggggggggg",
"gggggggggggggggggggggggggggggggggggggggggggggggggggggggggggggggg",
"gggggggggggggggggggggggggggggggggggggggggggggggggggggggggggggggg",
"gggggggggggggggggggggggggggggggggggggggggggggggggggggggggggggggg",
"gggggggggggggggggggggggggggggggggggggggggggggggggggggggggggggggg",
"gggggggggggggggggggggggggggggggggggggggggggggggggggggggggggggggg",
"ggggggggggggggggggggggggggggggggggggg$$++ooggggggggggggggggggggg",
"ggggggggggggggggggggggggggggggggggg+$+*$o:ogggg+o++ggggggggggggg",
"gggggggggggggggggggggggggggggg&$ggo@7*-49@ogg@@oo+g+gggggggggggg",
"ggggggggggggggggggggggqoggggggg@$$+@#$-+@@@ggoogg@gggggggggggggg",
"gggggggggggggggggggggggggogg@o@@@$$@@7@:o$@@oooggggggggggggggggg",
"gggggggggggggggggggggggggo&g@o$X@&$@@@+o+$*$$$oogggggggggggggggg",
"ggggggggggggggggggggggggggggo&&$O&8@@@++@@##@@$gog+ggggggggggggg",
"ggggggggggggggggggggggggoogg@@&g%$#go$g#$$%@$+$$ogoggggggggggggg",
"ggggggggggggggggggggggoo:ggXX7gg@g$ooo+$$$@&&$&&ogg++ggggggggggg",
"gggggggggggggggggggggooo . o$@@@&&$Oo-o@o$$g&g&&oggggggggggggggg",
"gggggggggggggggggggg.ooo.....@@$$Xoo@oog$&&gg&$&gggggggggggggggg",
"gggggggggggggggggggg..oo..oX.-..oX..o.o*&&0&&ggggggggggggggggggg",
"ggggggggggggggggggggg.... oX@ o+ o:.oooo&$@&gggggggggggggggggggg",
"gggggggggggggggggggggX.  *X@X-+=+=;;-@o@$o$ggggg8ggggggggggggggg",
"gggggggggggggggggggggg.@X 4*511=,3==:$$@$o$ggggggggggg,ggggggggg",
"ggggggggggggggggggggg.X@.*%:35t,7,,<=%#+$@$ggggggggggggggggggggg",
"ggggggggggggggggggggg.@@@+@*-y0wi930+%8$$@@gggggg7gggggggggggggg",
"gggggggggggggggggggggg.Xoo+63awpw9wd7OO>@@g@gggggggggggggggggggg",
"gggggggggggggggggg0gggg @@X ==0ru179eOO  @&Ogggggggggggggggggggg",
"ggggggggggggggggggggggg o@ o=:35r2we&XOX@&$O;ggggggggggggggggggg",
"ggggggggggggggggggggggg Xo@-=1w6,y7Of%&X@7*sgggog@og+ggggggggggg",
"gggggggggggggggggggggggg @oo720:7,d%$@&:$@@&gggggggggggggggggggg",
"ggggggggggggggggggggggggg@oX$.+#9&&O&8&@$$$ggggggggggggggggggggg",
"ggggggggggggggggggggggggg.$&@@X@#O8s8&$&8$&g@ggggg+ggggggggggggg",
"ggggggggggggggggggggggggg.&&$@X*$$OO#Xo$$$$g ggggggggggggggggggg",
"ggggggggggggggggggggggggggg&g@o@$@$..oX- %&goggggggggggggggggggg",
"gggggggggggggggggggggggggggggg$$@o@X..oOgg%gog.ggggggggggggggggg",
"gggggggggggggggggggggggggggo@g.@$@o@..@@ggggg@oggggggggggggggggg",
"gggggggggggggggggggggggggggggooX@#X*X$@o.ooggg&Xgggggggggggggggg",
"gggggggggggggggggggggggggggggggo$@@..@oggggggggggggggggggggggggg",
"gggggggggggggggggggggggggggggggO&$..oogggggggggggggggggggggggggg",
"ggggggggggggggggggggggggggggggg&&@@+oooggggggggggggggggggggggggg",
"gggggggggggggggggggggggggggg&gg&$@oo@oggggg$gggggggggggggggggggg",
"gggggggggggggggggggggggggggggggg&@.@@ggggggggggggggggggggggggggg",
"gggggggggggggggggggggggggggggg@ggggggggggggggggggggggggggggggggg",
"ggggggggggggggggggggggggggggg#@ggggggggggggggggggggggggggggggggg",
"ggggggggggggggggggggggggggggggoggggggggggggggggggggggggggggggggg",
"gggggggggggggggggggggggggggggggggggggggggggggggggggggggggggggggg",
"gggggggggggggggggggggggggggggggggggggggggggggggggggggggggggggggg",
"gggggggggggggggggggggggggggggggggggggggggggggggggggggggggggggggg",
"gggggggggggggggggggggggggggggggggggggggggggggggggggggggggggggggg",
"gggggggggggggggggggggggggggggggggggggggggggggggggggggggggggggggg",
"gggggggggggggggggggggggggggggggggggggggggggggggggggggggggggggggg",
"gggggggggggggggggggggggggggggggggggggggggggggggggggggggggggggggg",
"gggggggggggggggggggggggggggggggggggggggggggggggggggggggggggggggg",
"gggggggggggggggggggggggggggggggggggggggggggggggggggggggggggggggg",
"gggggggggggggggggggggggggggggggggggggggggggggggggggggggggggggggg",
"gggggggggggggggggggggggggggggggggggggggggggggggggggggggggggggggg",
"gggggggggggggggggggggggggggggggggggggggggggggggggggggggggggggggg"
};
