/* XPM */
static char *result[] = {
/* columns rows colors chars-per-pixel */
"64 64 20 1 ",
"  c #5F0F03",
". c #6B1302",
"X c #631A0C",
"o c #711E05",
"O c #5E251C",
"+ c #7F2608",
"@ c #6D2615",
"# c #7D341E",
"$ c #6E3120",
"% c #7E3F29",
"& c #6C3D32",
"* c #822C0F",
"= c #8D320D",
"- c #8F3717",
"; c #8D4225",
": c #814835",
"> c #AC4A20",
", c #A04E2F",
"< c #A55C3E",
"1 c None",
/* pixels */
"1111111111111111111111111111111111111111111111111111111111111111",
"1111111111111111111111111111111111111111111111111111111111111111",
"1111111111111111111111111111111111111111111111111111111111111111",
"1111111111111111111111111111111111111111111111111111111111111111",
"1111111111111111111111111111111111111111111111111111111111111111",
"1111111111111111111111111111111111111111111111111111111111111111",
"1111111111111111111111111111111111111111111111111111111111111111",
"1111111111111111111111111111111111111111111111111111111111111111",
"1111111111111111111111111111111111111111111111111111111111111111",
"1111111111111111111111111111111111111111111111111111111111111111",
"1111111111111111111111111111111111111111111111111111111111111111",
"1111111111111111111111111111111111111111111111111111111111111111",
"1111111111111111111111111111111111111111111111111111111111111111",
"1111111111111111111111111111111111111111111111111111111111111111",
"1111111111111111111111111111111111111111111111111111111111111111",
"11111111111111111111111111111111111111@@.11111111111111111111111",
"111111111111111111111111111111111111$@o$o*1111111111111111111111",
"11111111111111111111111111111111111o$@o*#X1111111111111111111111",
"1111111111111111111111111111111111ooo@oo1@1111111111111111111111",
"1111111111111111111111111111111111@oX11*1@o111111111111111111111",
"11111111111111111111111111111111111@X1o111@$@&111111111111111111",
"11111111111111111111111111111111111111o11@$o@@$11111111111111111",
"1111111111111111111111111111111111111@111$@@@@@11111111111111111",
"111111111111111111111111111111111111@1111111&1111111111111111111",
"11111111111111111111111111111111&1111-111@11111&1111111111111111",
"1111111111111111111111.11111111111111X1111&111111111111111111111",
"11111111111111111111111111111o1111X1111o&&:111111111111111111111",
"111111111111111111111111111111 .1 +.o1..$O@111111111111111111111",
"111111111111111111111111111X o oXXX.*1.1O11111111111111111111111",
"11111111111111111111111111X X.   #  o@@1$11111111111111111111111",
"11111111111111111111111111OX@X@XOXO  X@.$1@111111111111111111111",
"111111111111111111111111  XX @O#$OX$XO&11@1111111111111111111111",
"111111111111111111111111XX. >+@,O@$$O11=111111111111111111111111",
"1111111111111111111111111111 X$o+ X@%11111X111111111111111111111",
"111111111111111111111111.11  XXX+ X:O111111111111111111111111111",
"1111111111111111111111111... X$@.X$O<$&11,1111111111111111111111",
"11111111111111111111111111.X@.$XO;%OO$$oO11111111111111111111111",
"1111111111111111111111111111&XXO#O$O&:&@1O1111111111111111111111",
"111111111111111111111111111111XOOO::&&1&%11111111111111111111111",
"111111111111111111111111111&111@X111:111111111111111111111111111",
"1111111111111111111111111111111O$1111111111111111111111111111111",
"11111111111111111111111111111111111111X1111111111111111111111111",
"1111111111111111111111111111111O$X111111111111111111111111111111",
"111111111111111111111111111111111@111111111111111111111111111111",
"1111111111111111111111111111111111111111111111111111111111111111",
"1111111111111111111111111111111111111111111111111111111111111111",
"111111111111111111111111111111111111.111111111111111111111111111",
"1111111111111111111111111111111111111111111111111111111111111111",
"1111111111111111111111111111111111111111111111111111111111111111",
"1111111111111111111111111111111111111111111111111111111111111111",
"1111111111111111111111111111111111111111111111111111111111111111",
"1111111111111111111111111111111111111111111111111111111111111111",
"1111111111111111111111111111111111111111111111111111111111111111",
"1111111111111111111111111111111111111111111111111111111111111111",
"1111111111111111111111111111111111111111111111111111111111111111",
"1111111111111111111111111111111111111111111111111111111111111111",
"1111111111111111111111111111111111111111111111111111111111111111",
"1111111111111111111111111111111111111111111111111111111111111111",
"1111111111111111111111111111111111111111111111111111111111111111",
"1111111111111111111111111111111111111111111111111111111111111111",
"1111111111111111111111111111111111111111111111111111111111111111",
"1111111111111111111111111111111111111111111111111111111111111111",
"1111111111111111111111111111111111111111111111111111111111111111",
"1111111111111111111111111111111111111111111111111111111111111111"
};
