/* XPM */
static char *result[] = {
/* columns rows colors chars-per-pixel */
"64 64 72 1 ",
"  c #F27F49",
". c #F38837",
"X c #FF8D33",
"o c #DC8A5D",
"O c #FF8246",
"+ c #FB8843",
"@ c #FF8942",
"# c #FB894F",
"$ c #FF8B4F",
"% c #FB9044",
"& c #FF9144",
"* c #FC904F",
"= c #FF9C4B",
"- c #E88853",
"; c #F18C50",
": c #E69753",
"> c #FF9252",
", c #F2975D",
"< c #F8915A",
"1 c #FF9C5A",
"2 c #FFAA4C",
"3 c #FFB84E",
"4 c #FFAA5D",
"5 c #FFB75E",
"6 c #C28461",
"7 c #FF9F67",
"8 c #F09E68",
"9 c #FFAA6C",
"0 c #FFB96D",
"q c #FFAE79",
"w c #FFB97B",
"e c #FFC55F",
"r c #FFD35E",
"t c #FFC66F",
"y c #FFC57B",
"u c #FFD270",
"i c #FFD37E",
"p c #FFE071",
"a c #FFEC71",
"s c #FFE07F",
"d c #F5F37B",
"f c #FFBB86",
"g c #FFC689",
"h c #FFD48C",
"j c #FFEC80",
"k c #FFE08E",
"l c #FFEB8D",
"z c #FEFC80",
"x c #F9F288",
"c c #FFF688",
"v c #FEFE8A",
"b c #FFEB9C",
"n c #FFF492",
"m c #F7FA92",
"M c #FEFD93",
"N c #FFF59A",
"B c #FEFE9B",
"V c #FFF5A1",
"C c #FAFBA3",
"Z c #FEFEA2",
"A c #FEFEA9",
"S c #FEFEAF",
"D c #FEFEB6",
"F c #FEFEBD",
"G c #FEFEC3",
"H c #FFFDCA",
"J c #FFFED4",
"K c #FFFEE1",
"L c #FFFFEC",
"P c #FFFFF6",
"I c white",
"U c None",
/* pixels */
"UUUUUUUUUUUUUUUUUUUUUUUUUUUUUUUUUUUUUUUUUUUUUUUUUUUUUUUUUUUUUUUU",
"UUUUUUUUUUUUUUUUUUUUUUUUUUUUUUUUUUUUUUUUUUUUUUUUUUUUUUUUUUUUUUUU",
"UUUUUUUUUUUUUUUUUUUUUUUUUUUUUUUUUUUUUUUUUUUUUUUUUUUUUUUUUUUUUUUU",
"UUUUUUUUUUUUUUUUUUUUUUUUUUUUUUUUUUUUUUUUUUUUUUUUUUUUUUUUUUUUUUUU",
"UUUUUUUUUUUUUUUUUUUUUUUUUUUUUUUUUUUUUUUUUUUUUUUUUUUUUUUUUUUUUUUU",
"UUUUUUUUUUUUUUUUUUUUUUUUUUUUUUUUUUUUUUUUUUUUUUUUUUUUUUUUUUUUUUUU",
"UUUUUUUUUUUUUUUUUUUUUUUUUUUUUUUUUUUUUUUUUUUUUUUUUUUUUUUUUUUUUUUU",
"UUUUUUUUUUUUUUUUUUUUUUUUUUUUUUUUUUUUUUUUUUUUUUUUUUUUUUUUUUUUUUUU",
"UUUUUUUUUUUUUUUUUUUUUUUUUUUUUUUUUUUUUUUUUUUUUUUUUUUUUUUUUUUUUUUU",
"UUUUUUUUUUUUUUUUUUUUUUUUUUUUUUUUUUUUUUUUUUUUUUUUUUUUUUUUUUUUUUUU",
"UUUUUUUUUUUUUUUUUUUUUUUUUUUUUUUUUUUUUUUUUUUUUUUUUUUUUUUUUUUUUUUU",
"UUUUUUUUUUUUUUUUUUUUUUUUUUUUUUUUUUUUUUUUUUUUUUUUUUUUUUUUUUUUUUUU",
"UUUUUUUUUUUUUUUUUUUUUUUUUUUUUUUUUUUUUUUUUUUUUUUUUUUUUUUUUUUUUUUU",
"UUUUUUUUUUUUUUUUUUUUUUUUUUUUUUUUUUUUUUUUUUUUUUUUUUUUUUUUUUUUUUUU",
"UUUUUUUUUUUUUUUUUUUUUUUUUUUUUUUUUUUUUUUUUUUUUUUUUUUUUUUUUUUUUUUU",
"UUUUUUUUUUUUUUUUUUUUUUUUUUUUUUUUUUUUUUUUUUUUUUUUUUUUUUUUUUUUUUUU",
"UUUUUUUUUUUUUUUUUUUUUUUUUUUUUUUUUUUUUUUUUUUUUUUUUUUUUUUUUUUUUUUU",
"UUUUUUUUUUUUUUUUUUUUUUUUUUUUUUUUUUUUUUUUUUUUUUUUUUUUUUUUUUUUUUUU",
"UUUUUUUUUUUUUUUUUUUUUUUUUUUUUUUUUUUUUUUUUUUUUUUUUUUUUUUUUUUUUUUU",
"UUUUUUUUUUUUUUUUUUUUUUUUUUUUUUUUUUUUUUUUUUUUUUUUUUUUUUUUUUUUUUUU",
"UUUUUUUUUUUUUUUUUUUUUUUUUUUU6oUUUU>U  #UUUUUUUUUUUUUUUUUUUUUUUUU",
"UUUUUUUUUUUUUUUUUUUUUUUUUUUUU,<*>*<>**#>>UUUUUUUUUUUUUUUUUUUUUUU",
"UUUUUUUUUUUUUUUUUUUUUUUUUUo>*;*+%&>>>#9$>>UUUUUUUUUUUUUUUUUUUUUU",
"UUUUUUUUUUUUUUUUUUUUUUUUUU;<11>452>>1ww7#>>U**UUUUUUUUUUUUUUUUUU",
"UUUUUUUUUUUUUUUUUUUUUUUUUU%%40ttt404fyfw$*>**UUUUUUUUUUUUUUUUUUU",
"UUUUUUUUUUUUUUUUUUUUUUUUU>>X2uu000ijusCi0@&><*UUUUUUUUUUUUUUUUUU",
"UUUUUUUUUUUUUUUUUUUUUUUU>>>>=uppMpmSvvSDx5&$>>UUUUUUUUUUUUUUUUUU",
"UUUUUUUUUUUUUUUUUUUUUUUU>>>$5pvSAFSZSzZMMu5&>*>*UUUUUUUUUUUUUUUU",
"UUUUUUUUUUUUUUUUUUUUUUUU>>>40aAGGKBDDZBMvsh7$>>U;UUUUUUUUUUUUUUU",
"UUUUUUUUUUUUUUUUUUUUUUU>>$14uNFHLPLJFGAFMvchO>>UUUUUUUUUUUUUUUUU",
"UUUUUUUUUUUUUUUUUUUUUUU>$>hwsSHJPIIIPHFGDvjp&>>UUUUUUUUUUUUUUUUU",
"UUUUUUUUUUUUUUUUUUUUUUU>8100lZZKIIIIPLJJDSzp&>>UUUUUUUUUUUUUUUUU",
"UUUUUUUUUUUUUUUUUUUUUU;;70uhnSFLIIIIIPKGAAz3&>>UUUUUUUUUUUUUUUUU",
"UUUUUUUUUUUUUUUUUUUUUU,-*0rBBZJHIIIIIPGAZDdt=>>UUUUUUUUUUUUUUUUU",
"UUUUUUUUUUUUUUUUUUUUUU1%&=eslMSJIIPIIKGGAZj2$>>UUUUUUUUUUUUUUUUU",
"UUUUUUUUUUUUUUUUUUUUUUU&>5nsjBMALKIILHHDZMu=*<>UUUUUUUUUUUUUUUUU",
"UUUUUUUUUUUUUUUUUUUUUUU**$5nxAZBAJHJHDFAMs01>*<UUUUUUUUUUUUUUUUU",
"UUUUUUUUUUUUUUUUUUUUUUU>*4gk4bZMMASDGJMAn0$1<#,UUUUUUUUUUUUUUUUU",
"UUUUUUUUUUUUUUUUUUUUUUUU*1494ilBlMSSASAMs0><<#<UUUUUUUUUUUUUUUUU",
"UUUUUUUUUUUUUUUUUUUUUUUU*>*>y4tZsbCHSAVBs7>>>;UUUUUUUUUUUUUUUUUU",
"UUUUUUUUUUUUUUUUUUUUUUUUU>>*41w04yslywky1>>;*>UUUUUUUUUUUUUUUUUU",
"UUUUUUUUUUUUUUUUUUUUUUUUUU>**>71=>40q779>>>>*<UUUUUUUUUUUUUUUUUU",
"UUUUUUUUUUUUUUUUUUUUUUUUUUU***>>>>$$><>1*>>UU#UUUUUUUUUUUUUUUUUU",
"UUUUUUUUUUUUUUUUUUUUUUUUUUUUU>>>>*&><>>>>*UUUUUUUUUUUUUUUUUUUUUU",
"UUUUUUUUUUUUUUUUUUUUUUUUUUUUUU>>%+%*:>>>UUUUUUUUUUUUUUUUUUUUUUUU",
"UUUUUUUUUUUUUUUUUUUUUUUUUUUUUUUU+%.%6UUUUUUUUUUUUUUUUUUUUUUUUUUU",
"UUUUUUUUUUUUUUUUUUUUUUUUUUUUUUUU...;6UUUUUUUUUUUUUUUUUUUUUUUUUUU",
"UUUUUUUUUUUUUUUUUUUUUUUUUUUUUUUUUUUUUUUUUUUUUUUUUUUUUUUUUUUUUUUU",
"UUUUUUUUUUUUUUUUUUUUUUUUUUUUUUUUUUUUUUUUUUUUUUUUUUUUUUUUUUUUUUUU",
"UUUUUUUUUUUUUUUUUUUUUUUUUUUUUUUUUUUUUUUUUUUUUUUUUUUUUUUUUUUUUUUU",
"UUUUUUUUUUUUUUUUUUUUUUUUUUUUUUUUUUUUUUUUUUUUUUUUUUUUUUUUUUUUUUUU",
"UUUUUUUUUUUUUUUUUUUUUUUUUUUUUUUUUUUUUUUUUUUUUUUUUUUUUUUUUUUUUUUU",
"UUUUUUUUUUUUUUUUUUUUUUUUUUUUUUUUUUUUUUUUUUUUUUUUUUUUUUUUUUUUUUUU",
"UUUUUUUUUUUUUUUUUUUUUUUUUUUUUUUUUUUUUUUUUUUUUUUUUUUUUUUUUUUUUUUU",
"UUUUUUUUUUUUUUUUUUUUUUUUUUUUUUUUUUUUUUUUUUUUUUUUUUUUUUUUUUUUUUUU",
"UUUUUUUUUUUUUUUUUUUUUUUUUUUUUUUUUUUUUUUUUUUUUUUUUUUUUUUUUUUUUUUU",
"UUUUUUUUUUUUUUUUUUUUUUUUUUUUUUUUUUUUUUUUUUUUUUUUUUUUUUUUUUUUUUUU",
"UUUUUUUUUUUUUUUUUUUUUUUUUUUUUUUUUUUUUUUUUUUUUUUUUUUUUUUUUUUUUUUU",
"UUUUUUUUUUUUUUUUUUUUUUUUUUUUUUUUUUUUUUUUUUUUUUUUUUUUUUUUUUUUUUUU",
"UUUUUUUUUUUUUUUUUUUUUUUUUUUUUUUUUUUUUUUUUUUUUUUUUUUUUUUUUUUUUUUU",
"UUUUUUUUUUUUUUUUUUUUUUUUUUUUUUUUUUUUUUUUUUUUUUUUUUUUUUUUUUUUUUUU",
"UUUUUUUUUUUUUUUUUUUUUUUUUUUUUUUUUUUUUUUUUUUUUUUUUUUUUUUUUUUUUUUU",
"UUUUUUUUUUUUUUUUUUUUUUUUUUUUUUUUUUUUUUUUUUUUUUUUUUUUUUUUUUUUUUUU",
"UUUUUUUUUUUUUUUUUUUUUUUUUUUUUUUUUUUUUUUUUUUUUUUUUUUUUUUUUUUUUUUU"
};
