/* XPM */
static char *result[] = {
/* columns rows colors chars-per-pixel */
"64 64 87 1 ",
"  c #D86D36",
". c #DB7539",
"X c #E47924",
"o c #E67A39",
"O c #F37A37",
"+ c #BE7352",
"@ c #AA7D66",
"# c #CB784E",
"$ c #D77C4E",
"% c #ED754F",
"& c #E57D4A",
"* c #F27F49",
"= c #F38837",
"- c #FF8D33",
"; c #FF9B3A",
": c #FFA93D",
"> c #FFB63B",
", c #DB834E",
"< c #DC8A5D",
"1 c #FF8246",
"2 c #FB8843",
"3 c #FF8942",
"4 c #FB894F",
"5 c #FF8B4F",
"6 c #FB9044",
"7 c #FF9144",
"8 c #FC904F",
"9 c #FF9C4B",
"0 c #E88853",
"q c #F18C50",
"w c #FF9252",
"e c #F2975D",
"r c #F8915A",
"t c #FF9C5A",
"y c #FFAA4C",
"u c #FFB84E",
"i c #FFAA5D",
"p c #FFB75E",
"a c #C28461",
"s c #FF9F67",
"d c #FFAA6C",
"f c #FFB96D",
"g c #FFAE79",
"h c #FFCB41",
"j c #FFC450",
"k c #FFC55F",
"l c #FFD35E",
"z c #FFC66F",
"x c #FFC57B",
"c c #FFD270",
"v c #FFD37E",
"b c #FFE162",
"n c #FFE071",
"m c #FFEC71",
"M c #FFE07F",
"N c #FEFB74",
"B c #FFBB86",
"V c #FFC689",
"C c #FFD48C",
"Z c #FFD599",
"A c #FFEC80",
"S c #FFE08E",
"D c #FFEB8D",
"F c #FEFC80",
"G c #FFF688",
"H c #FEFE8A",
"J c #FFEB9C",
"K c #FFF492",
"L c #F7FA92",
"P c #FEFD93",
"I c #FFF59A",
"U c #FEFE9B",
"Y c #FEEEAA",
"T c #FAFBA3",
"R c #FEFEA2",
"E c #FEFEA9",
"W c #FEFEAF",
"Q c #FEFEB6",
"! c #FEFEBD",
"~ c #FEFEC3",
"^ c #FFFDCA",
"/ c #FFFED4",
"( c #FFFEE1",
") c #FFFFEC",
"_ c #FFFFF6",
"` c white",
"' c None",
/* pixels */
"''''''''''''''''''''''''''''''''''''''''''''''''''''''''''''''''",
"''''''''''''''''''''''''''''''''''''''''''''''''''''''''''''''''",
"''''''''''''''''''''''''''''''''''''''''''''''''''''''''''''''''",
"''''''''''''''''''''''''''''''''''''''''''''''''''''''''''''''''",
"''''''''''''''''''''''''''''''''''''''''''''''''''''''''''''''''",
"''''''''''''''''''''''''''''''''''''''''''''''''''''''''''''''''",
"''''''''''''''''''''''''''''''''''''''''''''''''''''''''''''''''",
"''''''''''''''''''''''''''''''''''''''''''''''''''''''''''''''''",
"''''''''''''''''''''''''''''''''''''''''''''''''''''''''''''''''",
"''''''''''''''''''''''''''''''''''''''''''''''''''''''''''''''''",
"''''''''''''''''''''''''''''''''''''''''''''''''''''''''''''''''",
"''''''''''''''''''''''''''''''''''''''''''''''''''''''''''''''''",
"'''''''''''''''''''''''''''''''''  ''' '''''''''''''''''''''''''",
"''''''''''''''''''''''''''''''''' '''  '''''''''''''''''''''''''",
"'''''''''''''''''''''''''''''''''.''''''''''''''''''''''''''''''",
"''''''''''''''''''''''''''''''''''''''''''''''''''''''''''''''''",
"''''''''''''''''''''''''''''''''''''''''''''''''''''''''''''''''",
"''''''''''''''''''''''''''&'''''''''''''''''''''''''''''''''''''",
"''''''''''''''''''''''''''#a@$='24'''&4***''''''''''''''''''''''",
"'''''''''''''''''''''''''$@&teq=O=0044pt*6''''''''''''''''''''''",
"''''''''''''''''''''''''&+799ii2lutsttfi92=2'<&'''''''''''''''''",
"''''''''''''''''''''''''.9uu2BxkmAcwtiWSkp6=4<<o''''''''''''''''",
"''''''''''''''''''''''''0:lAcvDAHPnzcnDMUk9974*'''''''''''''''''",
"'''''''''''''''''''''''=,2cRczHFRHGURHmIUFki244'''o'''''''''''''",
"''''''''''''''''''''''262qtGIU~UPEE!PQ~REEnpdw8**'o'''''''''''''",
"''''''''''''''''''''''22689nP~^/^)~W~U)^^~WzxtO*''''''''''''''''",
"'''''''''''''''''''''22297cnNQ())``()(()/ERGvVt**'<'''''''''''''",
"''''''''''''''''''''26299kjG!^(_```/`(/(/WUPDpgw2,a'''''''''''''",
"''''''''''''''''''''226pclbP^(_`````````)^WREEv2*'*$''''''''''''",
"'''''''''''''''''''O=29yzHET~_```````````(^QRU922**'''''''''''''",
"''''''''''''''''''''=OvzvnF^^_``````````(()QEFM52'''''''''''''''",
"'''''''''''''''''''=<sfYfMWQ^)``````````)/)^QPVt2'''''''''''''''",
"''''''''''''''''''X,e6fEUF^Q/````````````(^!PAf46'''''''''''''''",
"''''''''''''''''''XofuJQQHQ(~```````````((~WPMi*6'''''''''''''''",
"'''''''''''''''''''OpVfVmRRWE(``````````(`(~RD306'''''''''''''''",
"'''''''''''''''''''OOyVDvRQ^WE_`````````((~WFKi04'''''''''''''''",
"''''''''''''''''''''O=icMRURQW~_```````))~QRDci,0'''''''''''''''",
"''''''''''''''''''''=i7uHE!EW/`^)``````/)/RKxfs0<'''''''''''''''",
"'''''''''''''''''''''=9nUE/!W~/!_````)(((ERv9ge0<'''''''''''''''",
"'''''''''''''''''''''=OkEGEELR!/^/))(((/!RRDxer0&'''''''''''''''",
"''''''''''''''''''''''2pc9CnxDR^R~/Q^Q(^EKCdt00<#'''''''''''''''",
"''''''''''''''''''''''62O7ifxZVMMS!^RWQ^!Rfsr*0*''''''''''''''''",
"''''''''''''''''''''''''62s1wgszUzSEJCYJVvs****'''''''''''''''''",
"'''''''''''''''''''''''''*08wtt5yzyIxiBZd*4q''''''''''''''''''''",
"'''''''''''''''''''''''''%8www62wybpf75q0<*4''''''''''''''''''''",
"'''''''''''''''''''''''''''''76=-u>kkg*8'r''''''''''''''''''''''",
"''''''''''''''''''''''''''''''6=O>h>pg,6''''''''''''''''''''''''",
"'''''''''''''''''''''''''''''''=X-;-0<''''''''''''''''''''''''''",
"''''''''''''''''''''''''''''''''OXXX.,''''''''''''''''''''''''''",
"''''''''''''''''''''''''''''''''''.'''''''''''''''''''''''''''''",
"''''''''''''''''''''''''''''''''''''''''''''''''''''''''''''''''",
"''''''''''''''''''''''''''''''''''''''''''''''''''''''''''''''''",
"''''''''''''''''''''''''''''''''''''''''''''''''''''''''''''''''",
"''''''''''''''''''''''''''''''''''''''''''''''''''''''''''''''''",
"''''''''''''''''''''''''''''''''''''''''''''''''''''''''''''''''",
"''''''''''''''''''''''''''''''''''''''''''''''''''''''''''''''''",
"''''''''''''''''''''''''''''''''''''''''''''''''''''''''''''''''",
"''''''''''''''''''''''''''''''''''''''''''''''''''''''''''''''''",
"''''''''''''''''''''''''''''''''''''''''''''''''''''''''''''''''",
"''''''''''''''''''''''''''''''''''''''''''''''''''''''''''''''''",
"''''''''''''''''''''''''''''''''''''''''''''''''''''''''''''''''",
"''''''''''''''''''''''''''''''''''''''''''''''''''''''''''''''''",
"''''''''''''''''''''''''''''''''''''''''''''''''''''''''''''''''",
"''''''''''''''''''''''''''''''''''''''''''''''''''''''''''''''''"
};
