/* XPM */
static char *result[] = {
/* columns rows colors chars-per-pixel */
"64 64 119 2 ",
"   c #BB6837",
".  c #C55F0F",
"X  c #CB6911",
"o  c #D56C11",
"O  c #E36E18",
"+  c #F47118",
"@  c #C85F31",
"#  c #CA6625",
"$  c #D76B27",
"%  c #CC6A38",
"&  c #D86130",
"*  c #D86D36",
"=  c #DB7539",
"-  c #E56024",
";  c #E66A28",
":  c #F16E2C",
">  c #E47924",
",  c #E67A39",
"<  c #F37A37",
"1  c #FF7D36",
"2  c #B96A47",
"3  c #A06C55",
"4  c #BE7352",
"5  c #AA7D66",
"6  c #CA6D46",
"7  c #CB784E",
"8  c #D77045",
"9  c #D77C4E",
"0  c #E67043",
"q  c #E57D4A",
"w  c #F27F49",
"e  c #FF8226",
"r  c #FF9F28",
"t  c #F38837",
"y  c #FF8D33",
"u  c #FF9B3A",
"i  c #FFA93D",
"p  c #FFBD33",
"a  c #FFB63B",
"s  c #DB834E",
"d  c #FB8843",
"f  c #FF8942",
"g  c #FB894F",
"h  c #FB9044",
"j  c #FF9144",
"k  c #FC904F",
"l  c #FF9C4B",
"z  c #E88853",
"x  c #F18C50",
"c  c #FF9252",
"v  c #F2975D",
"b  c #F8915A",
"n  c #FF9C5A",
"m  c #FFAA4C",
"M  c #FFB84E",
"N  c #FFAA5D",
"B  c #FFB75E",
"V  c #C28461",
"C  c #DE9D65",
"Z  c #FF9F67",
"A  c #F09E68",
"S  c #FFAA6C",
"D  c #F2B76E",
"F  c #FFB96D",
"G  c #FFAE79",
"H  c #FFB97B",
"J  c #FFCB41",
"K  c #FFC450",
"L  c #FFC55F",
"P  c #FFD35E",
"I  c #FFC66F",
"U  c #FFC57B",
"Y  c #FFD270",
"T  c #FFD37E",
"R  c #FFE162",
"E  c #FFEC62",
"W  c #FEFA61",
"Q  c #FFE071",
"!  c #FFEC71",
"~  c #FFE07F",
"^  c #FEFB74",
"/  c #FFBB86",
"(  c #FFC689",
")  c #FFD48C",
"_  c #FFD599",
"`  c #FFDF9C",
"'  c #FFEC80",
"]  c #FFE08E",
"[  c #FFEB8D",
"{  c #FEFC80",
"}  c #F9F288",
"|  c #FFF688",
" . c #FEFE8A",
".. c #FFEB9C",
"X. c #F7F294",
"o. c #FFF492",
"O. c #FEFD93",
"+. c #FFF59A",
"@. c #FEFE9B",
"#. c #FFE3A8",
"$. c #FEEEAA",
"%. c #FFF5A1",
"&. c #FEF7A7",
"*. c #FAFBA3",
"=. c #FEFEA2",
"-. c #FFF6AF",
";. c #FEFEA9",
":. c #FAFBAE",
">. c #FEFEAF",
",. c #FEFEB6",
"<. c #FEFEBD",
"1. c #FEFEC3",
"2. c #FFFDCA",
"3. c #FFFED4",
"4. c #FFFEE1",
"5. c #FFFFEC",
"6. c #FFFFF6",
"7. c white",
"8. c None",
/* pixels */
"8.8.8.8.8.8.8.8.8.8.8.8.8.8.8.8.8.8.8.8.8.8.8.8.8.8.8.8.8.8.8.8.8.8.8.8.8.8.8.8.8.8.8.8.8.8.8.8.8.8.8.8.8.8.8.8.8.8.8.8.8.8.8.8.",
"8.8.8.8.8.8.8.8.8.8.8.8.8.8.8.8.8.8.8.8.8.8.8.8.8.8.8.8.8.8.8.8.8.8.8.8.8.8.8.8.8.8.8.8.8.8.8.8.8.8.8.8.8.8.8.8.8.8.8.8.8.8.8.8.",
"8.8.8.8.8.8.8.8.8.8.8.8.8.8.8.8.8.8.8.8.8.8.8.8.8.8.8.8.8.8.8.8.8.8.8.8.8.8.8.8.8.8.8.8.8.8.8.8.8.8.8.8.8.8.8.8.8.8.8.8.8.8.8.8.",
"8.8.8.8.8.8.8.8.8.8.8.8.8.8.8.8.8.8.8.8.8.8.8.8.8.8.8.8.8.8.8.8.8.8.8.8.8.8.8.8.8.8.8.8.8.8.8.8.8.8.8.8.8.8.8.8.8.8.8.8.8.8.8.8.",
"8.8.8.8.8.8.8.8.8.8.8.8.8.8.8.8.8.8.8.8.8.8.8.8.8.8.8.8.8.8.8.8.8.8.8.8.8.8.8.8.8.8.8.8.8.8.8.8.8.8.8.8.8.8.8.8.8.8.8.8.8.8.8.8.",
"8.8.8.8.8.8.8.8.8.8.8.8.8.8.8.8.8.8.8.8.8.8.8.8.8.8.8.8.8.8.8.8.8.8.8.8.8.8.8.8.8.8.8.8.8.8.8.8.8.8.8.8.8.8.8.8.8.8.8.8.8.8.8.8.",
"8.8.8.8.8.8.8.8.8.8.8.8.8.8.8.8.8.8.8.8.8.8.8.8.8.8.8.8.8.8.8.8.8.8.8.8.8.8.8.8.8.8.8.8.8.8.8.8.8.8.8.8.8.8.8.8.8.8.8.8.8.8.8.8.",
"8.8.8.8.8.8.8.8.8.8.8.8.8.8.8.8.8.8.8.8.8.8.8.8.8.8.8.8.8.8.8.8.8.8.8.8.8.8.8.8.8.8.8.8.8.8.8.8.8.8.8.8.8.8.8.8.8.8.8.8.8.8.8.8.",
"8.8.8.8.8.8.8.8.8.8.8.8.8.8.8.8.8.8.8.8.8.8.8.8.8.8.8.8.8.8.8.8.8.8.8.8.8.8.8.8.8.8.8.8.8.8.8.8.8.8.8.8.8.8.8.8.8.8.8.8.8.8.8.8.",
"8.8.8.8.8.8.8.8.8.8.8.8.8.8.8.8.8.8.8.8.8.8.8.8.8.8.8.8.8.8.8.8.8.8.8.8.8.8.8.8.8.8.8.8.8.8.8.8.8.8.8.8.8.8.8.8.8.8.8.8.8.8.8.8.",
"8.8.8.8.8.8.8.8.8.8.8.8.8.8.8.8.8.8.8.8.8.8.8.8.8.8.8.8.8.8.8.8.8.8.8.8.@ 8.@ 8.8.8.8.8.8.8.8.8.8.8.8.8.8.8.8.8.8.8.8.8.8.8.8.8.",
"8.8.8.8.8.8.8.8.8.8.8.8.8.8.8.8.8.8.8.8.8.8.8.8.8.8.8.8.8.8.8.8.@ @ @ 8.8.@ @ * % 8.8.8.8.8.8.8.8.8.8.8.8.8.8.8.8.8.8.8.8.8.8.8.",
"8.8.8.8.8.8.8.8.8.8.8.8.8.8.8.8.8.8.8.8.8.8.8.8.8.8.8.8.8.8.8.@ @ @ 8.8.8.8.8.8.8.8.8.8.8.8.8.8.8.8.8.8.8.8.8.8.8.8.8.8.8.8.8.8.",
"8.8.8.8.8.8.8.8.8.8.8.8.8.8.8.8.8.8.8.8.8.8.8.8.8.= 8.8.8.8.8.8.@ 8.8.8.8.8.8.8.8.8.8.8.8., 8.8.8.8.8.8.8.8.8.8.8.8.8.8.8.8.8.8.",
"8.8.8.8.8.8.8.8.8.8.8.8.8.8.8.8.8.8.8.8.8.8.8.8.8.8.8.8.* 8.8.8.8.8.8.8.8.8.8.8.8.8.8.8.8., 8.8.8.8.8.8.8.8.8.8.8.8.8.8.8.8.8.8.",
"8.8.8.8.8.8.8.8.8.8.8.8.8.8.8.8.8.8.8.8.8.8.8.8.8.8.8.8.8.8.8.8.8.8.8.8.8.8.8.8.8.% 8.= 8.8.8.8.8.8.8.8.8.8.8.8.8.8.8.8.8.8.8.8.",
"8.8.8.8.8.8.8.8.8.8.8.8.8.8.8.8.8.8.8.8.8.8.8.8.8.8.2 8.8.8.8.= , 8.8.8.8., = , d x = = , 8.8.8.8.8.8.8.8.8.8.8.8.8.8.8.8.8.8.8.",
"8.8.8.8.8.8.8.8.8.8.8.8.8.8.8.8.8.8.8.8.8.8.8.8.8.  3 5 C = $ * , = , 8.w * j w , d o , q 8.8.8.8.8.8.8.8.8.8.8.8.8.8.8.8.8.8.8.",
"8.8.8.8.8.8.8.8.8.8.8.8.8.8.8.8.8.8.8.8.8.8.8.8.8.2 2 H S ( Z j f h g x v N [ Y l : h > , , * * * 8.8.8.8.8.8.8.8.8.8.8.8.8.8.8.",
"8.8.8.8.8.8.8.8.8.8.8.8.8.8.8.8.8.8.8.8.8.8.8.8.7 q T y m ( T Q { ' ' T Y I ~ Q L M i O > g q = % 8.* 8.8.* 8.8.8.8.8.8.8.8.8.8.",
"8.8.8.8.8.8.8.8.8.8.8.8.8.8.8.8.8.8.8.8.8.8.8.# q I I l H I [  .O. .K U L M +.%.P P P m m U v g w * 8.8.8.* 8.8.8.8.8.8.8.8.8.8.",
"8.8.8.8.8.8.8.8.8.8.8.8.8.8.8.8.8.8.8.8.8.8.$ = S ^ ^  .| +.@.;.@.=.| { ~ *.<.~ ;.O.L ! Y n b B , 8.8.8.8.8.8.8.8.8.8.8.8.8.8.8.",
"8.8.8.8.8.8.8.8.8.8.8.8.8.8.8.8.8.8.8.8.8.8.> $ F J { { <.>.=.=.2.<.=.,.@.=.O.{ <. .;.[ / H 5 0 , 8.* * 8.8.* * 8.* 8.8.8.8.8.8.",
"8.8.8.8.8.8.8.8.8.8.8.8.8.8.8.8.8.8.8.8.8., , 6 1 ' >.<.=.3.,.4.5.4.4.3.>.>.=.2.5.2.@.O.@.( x < = , = * * * * * * * 8.8.8.8.8.8.",
"8.8.8.8.8.8.8.8.8.8.8.8.8.8.8.8.8.8.8.8.8., t l l ;.O.{ 4.5.7.5.4.5.4.3.5.4.4.4.4.2.2.<. .Q H z w w = * * 8.* * 8.8.8.8.8.8.8.8.",
"8.8.8.8.8.8.8.8.8.8.8.8.8.8.8.8.8.8.8.= q < < i L Q ^ O.3.7.7.6.5.7.5.6.7.6.7.5.3.4.4.=.&.] B z q , 9 s 6 8.* 8.8.8.8.8.8.8.8.8.",
"8.8.8.8.8.8.8.8.8.8.8.8.8.8.8.8.8.8.= , , l y R P E  .3.3.7.7.6.7.7.7.7.7.7.7.7.5.4.4.,.%.#.#.G , 7 V 8 8.8.8.8.8.8.8.8.8.8.8.8.",
"8.8.8.8.8.8.8.8.8.8.8.8.8.8.8.8.8.* = > > d Q { E { 2.5.4.6.7.7.7.7.7.7.7.7.7.7.7.6.5.1.1.>.;.T - A 7 8 4 8.8.8.8.8.8.8.8.8.8.8.",
"8.8.8.8.8.8.8.8.8.8.8.8.8.8.8.8.8.* , w , N Q R ^  .>.2.7.7.7.7.7.7.7.7.7.7.7.7.7.7.5.5.2.1.<.] F 6 9 V 7 8.8.8.8.8.8.8.8.8.8.8.",
"8.8.8.8.8.8.8.8.8.8.8.8.8.8.8.8.8.$ h d j F ! W  .{ >.2.4.7.7.7.7.7.7.7.7.7.7.7.7.7.7.4.2.@.o.L Y w = 8 ; 8.8.8.8.8.8.8.8.8.8.8.",
"8.8.8.8.8.8.8.8.8.8.8.8.8.8.8.8.8.o > + D o. .>. .{ ,.<.5.7.7.7.7.7.7.7.7.7.7.7.7.7.6.2.2.,. .~ N N , 8.8.8.8.8.8.8.8.8.8.8.8.8.",
"8.8.8.8.8.8.8.8.8.8.8.8.8.8.8.8.o o $ G ] 1.1.1.;.3.1.2.7.7.7.7.7.7.7.7.7.7.7.7.7.5.7.5.4.;.;._ U w , 8.8.8.8.8.8.8.8.8.8.8.8.8.",
"8.8.8.8.8.8.8.8.8.8.8.8.8.8.8.o o . n ..L =.2.,.;.2.4.5.7.7.7.7.7.7.7.7.7.7.7.7.7.5.7.4.3.3.=.I b = , 8.8.8.8.8.8.8.8.8.8.8.8.8.",
"8.8.8.8.8.8.8.8.8.8.8.8.8.8.8.o o O L U n ..&.2.<.2.2.4.7.7.7.7.7.7.7.7.7.7.7.7.7.7.6.3.4.@. ./ G , 8.8.8.8.8.8.8.8.8.8.8.8.8.8.",
"8.8.8.8.8.8.8.8.8.8.8.8.8.8.8.8.o o y T ' ` ) | @.>.<.1.3.7.7.7.7.7.7.7.7.7.7.7.7.7.6.2.3.<.;.( c 8 , 8.8.8.8.8.8.8.8.8.8.8.8.8.",
"8.8.8.8.8.8.8.8.8.8.8.8.8.8.8.8.8.o . e o.#.~ ( ~ <.2.3.3.5.7.7.7.7.7.7.7.7.7.7.7.6.5.3.2.;.X.' I , 8.8.8.8.8.8.8.8.8.8.8.8.8.8.",
"8.8.8.8.8.8.8.8.8.8.8.8.8.8.8.8.8.o # y u S T @...<.1.>.<.3.7.7.7.7.7.7.7.7.7.7.7.6.4.2.>.=.>.! ' k 8.8.8.8.8.8.8.8.8.8.8.8.8.8.",
"8.8.8.8.8.8.8.8.8.8.8.8.8.8.8.8.8.8.$ M u u L Y @.<.4.2.3.5.7.6.7.7.7.7.7.7.7.7.7.5.4.1.@.| Y B U 9 8.8.8.8.8.8.8.8.8.8.8.8.8.8.",
"8.8.8.8.8.8.8.8.8.8.8.8.8.8.8.8.8.$ # u u L P {  .1.5.5.<.<.6.7.5.7.7.7.7.7.7.7.5.3.2.;.{ Y U G n = 8.8.8.8.8.8.8.8.8.8.8.8.8.8.",
"8.8.8.8.8.8.8.8.8.8.8.8.8.8.8.8.8.8.8.> m m ^ ;.=.,.4.7.;.3.5.7.6.7.7.7.7.7.6.4.5.3.;.>.;.F G S n 8 6 8.8.8.8.8.8.8.8.8.8.8.8.8.",
"8.8.8.8.8.8.8.8.8.8.8.8.8.8.8.8.8.8.8.& j u E =.,.} O.O.O.;.>.7.6.5.4.4.5.4.3.4.>.1.,.>.=.) Z Z G 9 8.8.8.8.8.8.8.8.8.8.8.8.8.8.",
"8.8.8.8.8.8.8.8.8.8.8.8.8.8.8.8.8.8.8.$ , y i ! I ] | ..=.:.,.1.,.3.3.,.3.<.2.3.<.3.<.%.U F n A V 8.8.8.8.8.8.8.8.8.8.8.8.8.8.8.",
"8.8.8.8.8.8.8.8.8.8.8.8.8.8.8.8.8.8.8.8.= , j l l M B ( %.o.;.=.O.+.1.3.1.1.<.2.<.<.,.&.S Z 9 q * 8.8.8.8.8.8.8.8.8.8.8.8.8.8.8.",
"8.8.8.8.8.8.8.8.8.8.8.8.8.8.8.8.8.8.8.8.8 , $ $ n S , n N ) ) ` =.] ] &.1.[ $.-...] ' U 0 q q 8.8.8.8.8.8.8.8.8.8.8.8.8.8.8.8.8.",
"8.8.8.8.8.8.8.8.8.8.8.8.8.8.8.8.8.8.8.8.8.8.8.q * s q w w l H U H [ F >.' F ) _ / G S w = 8.8.8.8.8.8.8.8.8.8.8.8.8.8.8.8.8.8.8.",
"8.8.8.8.8.8.8.8.8.8.8.8.8.8.8.8.8.8.8.8.8.8.8.8.* = 8.8.d < z G H I ! @.B _ N Z v 8 7 8.8.8.8.8.8.8.8.8.8.8.8.8.8.8.8.8.8.8.8.8.",
"8.8.8.8.8.8.8.8.8.8.8.8.8.8.8.8.8.8.8.8.8.8.8.8.8.8.8.8.8.< = v H B K M m ( ( = < x , 8.8.8.8.8.8.8.8.8.8.8.8.8.8.8.8.8.8.8.8.8.",
"8.8.8.8.8.8.8.8.8.8.8.8.8.8.8.8.8.8.8.8.8.8.8.8.8.8.8.8.8.7 > > u p J a M _ t = q 8.8.8.8.8.8.8.8.8.8.8.8.8.8.8.8.8.8.8.8.8.8.8.",
"8.8.8.8.8.8.8.8.8.8.8.8.8.8.8.8.8.8.8.8.8.8.8.8.8.8.8.8.8.8.= % O u i i r H $ 7 8.8.8.8.8.8.8.8.8.8.8.8.8.8.8.8.8.8.8.8.8.8.8.8.",
"8.8.8.8.8.8.8.8.8.8.8.8.8.8.8.8.8.8.8.8.8.8.8.8.8.8.8.8.8.8.8.= o O u y y = > 8.8.8.8.8.8.8.8.8.8.8.8.8.8.8.8.8.8.8.8.8.8.8.8.8.",
"8.8.8.8.8.8.8.8.8.8.8.8.8.8.8.8.8.8.8.8.8.8.8.8.8.8.8.8.8.8.8.% o o $ > X o 8.8.8.8.8.8.8.8.8.8.8.8.8.8.8.8.8.8.8.8.8.8.8.8.8.8.",
"8.8.8.8.8.8.8.8.8.8.8.8.8.8.8.8.8.8.8.8.8.8.8.8.8.8.8.8.8.8.8.8.8.8.o o 8.8.8.8.8.8.8.8.8.8.8.8.8.8.8.8.8.8.8.8.8.8.8.8.8.8.8.8.",
"8.8.8.8.8.8.8.8.8.8.8.8.8.8.8.8.8.8.8.8.8.8.8.8.8.8.8.8.8.8.8.8.8.8.8.8.8.8.8.8.8.8.8.8.8.8.8.8.8.8.8.8.8.8.8.8.8.8.8.8.8.8.8.8.",
"8.8.8.8.8.8.8.8.8.8.8.8.8.8.8.8.8.8.8.8.8.8.8.8.8.8.8.8.8.8.8.8.8.8.8.8.8.8.8.8.8.8.8.8.8.8.8.8.8.8.8.8.8.8.8.8.8.8.8.8.8.8.8.8.",
"8.8.8.8.8.8.8.8.8.8.8.8.8.8.8.8.8.8.8.8.8.8.8.8.8.8.8.8.8.8.8.8.8.8.8.8.8.8.8.8.8.8.8.8.8.8.8.8.8.8.8.8.8.8.8.8.8.8.8.8.8.8.8.8.",
"8.8.8.8.8.8.8.8.8.8.8.8.8.8.8.8.8.8.8.8.8.8.8.8.8.8.8.8.8.8.8.8.8.8.8.8.8.8.8.8.8.8.8.8.8.8.8.8.8.8.8.8.8.8.8.8.8.8.8.8.8.8.8.8.",
"8.8.8.8.8.8.8.8.8.8.8.8.8.8.8.8.8.8.8.8.8.8.8.8.8.8.8.8.8.8.8.8.8.8.8.8.8.8.8.8.8.8.8.8.8.8.8.8.8.8.8.8.8.8.8.8.8.8.8.8.8.8.8.8.",
"8.8.8.8.8.8.8.8.8.8.8.8.8.8.8.8.8.8.8.8.8.8.8.8.8.8.8.8.8.8.8.8.8.8.8.8.8.8.8.8.8.8.8.8.8.8.8.8.8.8.8.8.8.8.8.8.8.8.8.8.8.8.8.8.",
"8.8.8.8.8.8.8.8.8.8.8.8.8.8.8.8.8.8.8.8.8.8.8.8.8.8.8.8.8.8.8.8.8.8.8.8.8.8.8.8.8.8.8.8.8.8.8.8.8.8.8.8.8.8.8.8.8.8.8.8.8.8.8.8.",
"8.8.8.8.8.8.8.8.8.8.8.8.8.8.8.8.8.8.8.8.8.8.8.8.8.8.8.8.8.8.8.8.8.8.8.8.8.8.8.8.8.8.8.8.8.8.8.8.8.8.8.8.8.8.8.8.8.8.8.8.8.8.8.8.",
"8.8.8.8.8.8.8.8.8.8.8.8.8.8.8.8.8.8.8.8.8.8.8.8.8.8.8.8.8.8.8.8.8.8.8.8.8.8.8.8.8.8.8.8.8.8.8.8.8.8.8.8.8.8.8.8.8.8.8.8.8.8.8.8.",
"8.8.8.8.8.8.8.8.8.8.8.8.8.8.8.8.8.8.8.8.8.8.8.8.8.8.8.8.8.8.8.8.8.8.8.8.8.8.8.8.8.8.8.8.8.8.8.8.8.8.8.8.8.8.8.8.8.8.8.8.8.8.8.8.",
"8.8.8.8.8.8.8.8.8.8.8.8.8.8.8.8.8.8.8.8.8.8.8.8.8.8.8.8.8.8.8.8.8.8.8.8.8.8.8.8.8.8.8.8.8.8.8.8.8.8.8.8.8.8.8.8.8.8.8.8.8.8.8.8.",
"8.8.8.8.8.8.8.8.8.8.8.8.8.8.8.8.8.8.8.8.8.8.8.8.8.8.8.8.8.8.8.8.8.8.8.8.8.8.8.8.8.8.8.8.8.8.8.8.8.8.8.8.8.8.8.8.8.8.8.8.8.8.8.8."
};
