/* XPM */
static char *result[] = {
/* columns rows colors chars-per-pixel */
"64 64 144 2 ",
"   c #AD4A0C",
".  c #B9580E",
"X  c #BA631F",
"o  c #AC4A20",
"O  c #BB5825",
"+  c #BB502C",
"@  c #A55C3E",
"#  c #BB5C31",
"$  c #BB6837",
"%  c #B9613D",
"&  c #C84E0F",
"*  c #C55F0F",
"=  c #D45F11",
"-  c #E35F16",
";  c #CB6911",
":  c #D56C11",
">  c #E36E18",
",  c #F47118",
"<  c #C95A23",
"1  c #D75C25",
"2  c #C85F31",
"3  c #CA6625",
"4  c #D76B27",
"5  c #CC6A38",
"6  c #D86130",
"7  c #D86D36",
"8  c #DB7539",
"9  c #E66A28",
"0  c #F16E2C",
"q  c #E47924",
"w  c #E66D35",
"e  c #F66F34",
"r  c #E67A39",
"t  c #F37A37",
"y  c #FF7D36",
"u  c #B96A47",
"i  c #A06C55",
"p  c #BE7352",
"a  c #AA7D66",
"s  c #C86241",
"d  c #CA6D46",
"f  c #CB784E",
"g  c #D77045",
"h  c #ED754F",
"j  c #E57D4A",
"k  c #F27F49",
"l  c #FF8226",
"z  c #FF9F28",
"x  c #F38837",
"c  c #FF8D33",
"v  c #FF9B3A",
"b  c #FFA93D",
"n  c #FFBD33",
"m  c #FFB63B",
"M  c #9C8A79",
"N  c #DC8A5D",
"B  c #FF8246",
"V  c #FB8843",
"C  c #FF8942",
"Z  c #FB894F",
"A  c #FF8B4F",
"S  c #FB9044",
"D  c #FF9144",
"F  c #F59A4D",
"G  c #FF9C4B",
"H  c #E88853",
"J  c #F18C50",
"K  c #FF9252",
"L  c #F2975D",
"P  c #F8915A",
"I  c #FF9C5A",
"U  c #FFAA4C",
"Y  c #FFB84E",
"T  c #FFAA5D",
"R  c #FFB75E",
"E  c #C28461",
"W  c #C3986F",
"Q  c #DE9D65",
"!  c #FF9F67",
"~  c #F09E68",
"^  c #D8A97B",
"/  c #FFAA6C",
"(  c #FFB96D",
")  c #FFAE79",
"_  c #FFB97B",
"`  c #FFC450",
"'  c #FFC55F",
"]  c #FFD35E",
"[  c #FFE24A",
"{  c #F2C46F",
"}  c #FFC66F",
"|  c #F0C37E",
" . c #FFC57B",
".. c #FFD270",
"X. c #FFD37E",
"o. c #FFE162",
"O. c #FFEC62",
"+. c #FEFA61",
"@. c #FFE071",
"#. c #FFEC71",
"$. c #FFE07F",
"%. c #FEFB74",
"&. c #F5F37B",
"*. c #C69480",
"=. c #FFBB86",
"-. c #EBCF8E",
";. c #FFC689",
":. c #FFD48C",
">. c #FFD599",
",. c #FFDF9C",
"<. c #FFEC80",
"1. c #FFE08E",
"2. c #FFEB8D",
"3. c #FEFC80",
"4. c #F9F288",
"5. c #FFF688",
"6. c #FEFE8A",
"7. c #FFEB9C",
"8. c #F7F294",
"9. c #FFF492",
"0. c #FEFD93",
"q. c #FFF59A",
"w. c #FEFE9B",
"e. c #FFE3A8",
"r. c #FEEEAA",
"t. c #FFF5A1",
"y. c #FEF7A7",
"u. c #FAFBA3",
"i. c #FEFEA2",
"p. c #FFF6AF",
"a. c #FEFEA9",
"s. c #FAFBAE",
"d. c #FEFEAF",
"f. c #FEF6B6",
"g. c #FEFEB6",
"h. c #FEFEBD",
"j. c #FEFEC3",
"k. c #FFFDCA",
"l. c #FFFED4",
"z. c #FFFEE1",
"x. c #FFFFEC",
"c. c #FFFFF6",
"v. c white",
"b. c None",
/* pixels */
"b.b.b.b.b.b.b.b.b.b.b.b.b.b.b.b.b.b.b.b.b.b.b.b.b.b.b.b.b.b.b.b.b.b.b.b.b.b.b.b.b.b.b.b.b.b.b.b.b.b.b.b.b.b.b.b.b.b.b.b.b.b.b.b.",
"b.b.b.b.b.b.b.b.b.b.b.b.b.b.b.b.b.b.b.b.b.b.b.b.b.b.b.b.b.b.b.b.b.b.b.b.b.b.b.b.b.b.b.b.b.b.b.b.b.b.b.b.b.b.b.b.b.b.b.b.b.b.b.b.",
"b.b.b.b.b.b.b.b.b.b.b.b.b.b.b.b.b.b.b.b.b.b.b.b.b.b.b.b.b.b.b.b.b.b.b.b.b.b.b.b.b.b.b.b.b.b.b.b.b.b.b.b.b.b.b.b.b.b.b.b.b.b.b.b.",
"b.b.b.b.b.b.b.b.b.b.b.b.b.b.b.b.b.b.b.b.b.b.b.b.b.b.b.b.b.b.b.b.b.b.b.b.b.b.b.b.b.b.b.b.b.b.b.b.b.b.b.b.b.b.b.b.b.b.b.b.b.b.b.b.",
"b.b.b.b.b.b.b.b.b.b.b.b.b.b.b.b.b.b.b.b.b.b.b.b.b.b.b.b.b.b.b.b.b.b.b.b.b.b.b.b.b.b.b.b.b.b.b.b.b.b.b.b.b.b.b.b.b.b.b.b.b.b.b.b.",
"b.b.b.b.b.b.b.b.b.b.b.b.b.b.b.b.b.b.b.b.b.b.b.b.b.b.b.b.b.b.b.b.b.b.b.b.b.b.b.b.b.b.b.b.b.b.b.b.b.b.b.b.b.b.b.b.b.b.b.b.b.b.b.b.",
"b.b.b.b.b.b.b.b.b.b.b.b.b.b.b.b.b.b.b.b.b.b.b.b.b.b.b.b.b.b.b.b.b.b.b.b.b.b.b.b.b.b.b.b.b.b.b.b.b.b.b.b.b.b.b.b.b.b.b.b.b.b.b.b.",
"b.b.b.b.b.b.b.b.b.b.b.b.b.b.b.b.b.b.b.b.b.b.b.b.b.b.b.b.b.b.b.b.b.b.b.b.b.b.b.b.b.b.b.b.b.b.b.b.b.b.b.b.b.b.b.b.b.b.b.b.b.b.b.b.",
"b.b.b.b.b.b.b.b.b.b.b.b.b.b.b.b.b.b.b.b.b.b.b.b.b.b.b.b.b.b.b.b.b.b.b.b.b.b.b.b.b.b.b.b.b.b.b.b.b.b.b.b.b.b.b.b.b.b.b.b.b.b.b.b.",
"b.b.b.b.b.b.b.b.b.b.b.b.b.b.b.b.b.b.b.b.b.b.b.b.b.b.b.b.b.b.b.b.b.b.b.b.o b.b.b.b.b.b.b.b.b.b.b.b.b.b.b.b.b.b.b.b.b.b.b.b.b.b.b.",
"b.b.b.b.b.b.b.b.b.b.b.b.b.b.b.b.b.b.b.b.b.b.b.b.b.b.b.b.b.b.b.b.b.b.5 # 2 # 7 # 2 5 5 b.b.b.b.b.b.b.b.b.b.b.b.b.b.b.b.b.b.b.b.b.",
"b.b.b.b.b.b.b.b.b.b.b.b.b.b.b.b.b.b.b.b.b.b.b.b.b.b.b.b.b.b.b.b.s 2 5 b.b.b.s 5 s 5 5 b.b.5 b.b.b.b.b.b.b.b.b.b.b.b.b.b.b.b.b.b.",
"b.b.b.b.b.b.b.b.b.b.b.b.b.b.b.b.b.b.b.b.b.b.b.b.5 b.b.5 b.b.b.5 2 5 b.b.b.b.2 b.b.5 b.5 5 5 7 5 b.b.b.b.b.b.b.b.b.b.b.b.b.b.b.b.",
"b.b.b.b.b.b.b.b.b.b.b.b.b.b.b.b.b.b.b.b.b.b.b.b.b.b.b.b.5 5 b.g b.b.b.b.b.5 7 5 b.5 3 b.b.7 5 7 b.b.b.b.b.b.b.b.b.b.b.b.b.b.b.b.",
"b.b.b.b.b.b.b.b.b.b.b.b.b.b.b.b.b.b.b.b.b.b.b.b.b.b.b.b.b.3 b.5 2 b.b.b.b.7 8 7 2 t 8 3 4 5 5 7 b.b.b.b.b.b.b.b.b.b.b.b.b.b.b.b.",
"b.b.b.b.b.b.b.b.b.b.b.b.b.b.b.b.b.b.b.b.b.b.b.b.b.b.3 4 3 3 7 8 7 b.b.b.7 5 r 7 G } x 3 4 b.4 7 b.b.b.b.b.b.b.b.b.b.b.b.b.b.b.b.",
"b.b.b.b.b.b.b.b.b.b.b.b.b.b.b.b.b.b.b.b.b.b.b.b.b.@ H w P O 0 6 3 8 d J C t F R F U t 7 4 4 b.b.b.b.b.b.b.b.b.b.b.b.b.b.b.b.b.b.",
"b.b.b.b.b.b.b.b.b.b.b.b.b.b.b.b.b.b.b.b.b.3 b.; X 8 I 1.R ( U v U e J ;.} Y G ' R ' 9 > 3 4 t 7 5 2 b.2 b.b.b.b.b.b.b.b.b.b.b.b.",
"b.b.b.b.b.b.b.b.b.b.b.b.b.b.b.b.b.b.b.b.b.b.< 5 < T <.<.2.>.6.6.3.<.@.0.9.R <.] #.Y v v v G < t 3 s 2 2 b.2 b.b.b.b.b.b.b.b.b.b.",
"b.b.b.b.b.b.b.b.b.b.b.b.b.b.b.b.b.b.b.b.b.2 3 3 X.' 0.b o.i.i.6.+.0.&.&.7.5.i.0.3.%.3.#.%.X.P V B V 2 b.b.b.2 b.b.b.b.b.b.b.b.b.",
"b.b.b.b.b.b.b.b.b.b.b.b.b.b.b.b.b.b.b.b.b.; 3 V } 3.3.7.2.6.l.g.0.6.3.s.u.0.k.d.9.0.3.i.3.-.^ | U ! r b.2 b.b.b.b.b.b.b.b.b.b.b.",
"b.b.b.b.b.b.b.b.b.b.b.b.b.b.b.b.b.b.b.b.b.3 = R 6.+.3.i.6.g.h.j.l.d.d.i.g.k.j.a.g.a.r.$.,.Q W ~ T D V 7 # 2 b.2 2 2 b.b.b.b.b.b.",
"b.b.b.b.b.b.b.b.b.b.b.b.b.b.b.b.b.b.b.b.3 8 c X.o.%.6.0.z.z.l.k.z.j.j.l.j.g.w.k.x.h.q.d.d.:.>.L G 2 8 k 7 k 2 2 2 2 2 2 b.b.b.b.",
"b.b.b.b.b.b.b.b.b.b.b.b.b.b.b.b.b.b.b.b.X l v ' o.6.0.i.l.h.g.z.x.k.x.x.z.j.k.l.l.x.f.g.g.r.>.T 6 Z # A 8 k 2 2 2 2 2 b.b.b.b.b.",
"b.b.b.b.b.b.b.b.b.b.b.b.b.b.b.b.b.b.b.3 0 b z o.6.0.w.w.x.x.z.v.x.j.z.v.v.c.c.x.l.l.z.l.k.i.<.$.) D % j k 2 2 2 2 b.b.b.b.b.b.b.",
"b.b.b.b.b.b.b.b.b.b.b.b.b.b.b.b.b.b.8 C Y ] [ [ %.d.j.x.x.v.v.x.v.v.x.v.v.v.v.v.l.l.z.k.j.h.d.9.( K P J L % 2 2 b.b.b.b.b.b.b.b.",
"b.b.b.b.b.b.b.b.b.b.b.b.b.b.b.b.b.3 ; 4 9 ' %.6.+.h.l.v.z.c.v.v.v.v.v.v.v.v.v.v.x.k.l.l.l.l.i.d.X.G  .g # a b.b.b.b.b.b.b.b.b.b.",
"b.b.b.b.b.b.b.b.b.b.b.b.b.b.b.b.3 3 3 t G } %.w.h.z.h.j.z.c.v.v.v.v.v.v.v.v.v.v.x.z.c.l.l.k.h.g.] _ L N b.a b.b.b.b.b.b.b.b.b.b.",
"b.b.b.b.b.b.b.b.b.b.b.b.b.b.b.b.3 8 c q K @.6.+.a.d.g.h.v.x.c.v.v.v.v.v.v.v.v.v.v.c.v.v.c.z.z.3.#.{ w i p s b.b.b.b.b.b.b.b.b.b.",
"b.b.b.b.b.b.b.b.b.b.b.b.b.b.b.b.3 G c R _ O.0.6.w.d.g.h.x.v.v.v.v.v.v.v.v.v.v.v.v.x.x.v.z.h.j.9.2.R I H 5 2 b.b.b.b.b.b.b.b.b.b.",
"b.b.b.b.b.b.b.b.b.b.b.b.b.b.b.; * x b w.i.0.g.h.h.g.k.l.c.v.v.v.v.v.v.v.v.v.v.v.v.v.x.c.l.h.0.6.:...! 7 3 2 b.b.b.b.b.b.b.b.b.b.",
"b.b.b.b.b.b.b.b.b.b.b.b.b.b.; ; * , w.h.s.h.g.j.j.l.k.z.z.v.v.v.v.v.v.v.v.v.v.v.x.x.z.c.v.l.a.9.=.:.:.D u b.b.b.b.b.b.b.b.b.b.b.",
"b.b.b.b.b.b.b.b.b.b.b.b.b.; ; ; * U 5.w.w.q.a.h.k.j.k.z.x.v.v.v.v.v.v.v.v.v.v.v.v.c.v.v.v.l.d.r.,.>. .I b.b.b.b.b.b.b.b.b.b.b.b.",
"b.b.b.b.b.b.b.b.b.b.b.b.b.b.; ; = @.Y $.i.;.7.g.h.l.x.c.x.v.v.v.v.v.v.v.v.v.v.v.v.v.v.v.v.h.i.i.,.;.N # b.b.b.b.b.b.b.b.b.b.b.b.",
"b.b.b.b.b.b.b.b.b.b.b.b.b.b.; ; * b D 0.q.e._ 9.d.h.l.z.z.c.v.v.v.v.v.v.v.v.v.v.v.v.c.x.l.s.y.d.>.=.~ b.b.b.b.b.b.b.b.b.b.b.b.b.",
"b.b.b.b.b.b.b.b.b.b.b.b.b.b.; ; ; & F ' p.=.,.e.6.i.h.k.l.c.v.v.v.v.v.v.v.v.v.v.v.z.x.z.j.h.d.y.q.1.K 6 b.b.b.b.b.b.b.b.b.b.b.b.",
"b.b.b.b.b.b.b.b.b.b.b.b.b.b.b.; * x S b 2.,.e.0.d.k.k.k.j.z.v.v.v.v.v.v.v.v.v.v.v.x.l.j.k.h.d.8.#.$./ 7 5 b.b.b.b.b.b.b.b.b.b.b.",
"b.b.b.b.b.b.b.b.b.b.b.b.b.b.b.b.; q ' v T <.0.a.g.g.l.j.j.x.v.v.v.v.v.v.v.v.v.v.c.x.l.l.d.d.d.7.R 9.h u b.b.b.b.b.b.b.b.b.b.b.b.",
"b.b.b.b.b.b.b.b.b.b.b.b.b.b.b.b.*   v c b 0.+.3.i.d.g.z.l.h.v.v.v.v.v.v.v.v.v.v.x.l.l.0.a.0.i.4.( T 6 r b.b.b.b.b.b.b.b.b.b.b.b.",
"b.b.b.b.b.b.b.b.b.b.b.b.b.b.b.b.b.. G l ` %.#.i.i.g.j.z.g.l.c.v.c.v.v.v.v.v.v.c.z.z.h.d.w.i.0._ R T J f b.b.b.b.b.b.b.b.b.b.b.b.",
"b.b.b.b.b.b.b.b.b.b.b.b.b.b.b.b.b.; . G l @.%.d.a.w.d.a.g.k.l.z.z.z.v.l.x.c.x.z.c.z.f.t.h.i.} / X.( t i # b.b.b.b.b.b.b.b.b.b.b.",
"b.b.b.b.b.b.b.b.b.b.b.b.b.b.b.b.b.3 0 G U Y #.0.d.0.w.i.h.d.j.z.k.z.z.h.k.k.g.l.j.l.g.u.w.0.;./ =.P p b.b.b.b.b.b.b.b.b.b.b.b.b.",
"b.b.b.b.b.b.b.b.b.b.b.b.b.b.b.b.b.b.3 C D v ` 0.] 4.9.$.i.i.h.g.h.g.d.l.z.k.l.l.l.h.h.k.@.$.T _ / i b.b.b.b.b.b.b.b.b.b.b.b.b.b.",
"b.b.b.b.b.b.b.b.b.b.b.b.b.b.b.b.b.< # D G V D R y K 2.7.w.0.d.0.0.a.g.l.z.l.j.l.s.s.d.w.( I N Z 5 b.b.b.b.b.b.b.b.b.b.b.b.b.b.b.",
"b.b.b.b.b.b.b.b.b.b.b.b.b.b.b.b.b.b.2 2 O 3 < x T ( R ( 0.w.0.0.w.3.d.h.h.a.u.f.d.e.( _ ! g a 5 b.b.b.b.b.b.b.b.b.b.b.b.b.b.b.b.",
"b.b.b.b.b.b.b.b.b.b.b.b.b.b.b.b.b.b.b.b.b.3 5 O + r 1 t ` ] ..0.w.6.0.i.w.d.w.1.1. .H f f E b.b.b.b.b.b.b.b.b.b.b.b.b.b.b.b.b.b.",
"b.b.b.b.b.b.b.b.b.b.b.b.b.b.b.b.b.b.b.b.b.b.b.2 5 3 7 8 j (  .$.$.#.+.%.o.<.h.} G r 5 < b.M b.b.b.b.b.b.b.b.b.b.b.b.b.b.b.b.b.b.",
"b.b.b.b.b.b.b.b.b.b.b.b.b.b.b.b.b.b.b.b.b.b.b.b.b.b.b.p E ) =._  .X.@.] ] #.} - t 4 3 b.b.b.b.b.b.b.b.b.b.b.b.b.b.b.b.b.b.b.b.b.",
"b.b.b.b.b.b.b.b.b.b.b.b.b.b.b.b.b.b.b.b.b.b.b.b.b.b.b.a u u E G T _ ' o.[ 1.G < 4 4 b.b.b.b.b.b.b.b.b.b.b.b.b.b.b.b.b.b.b.b.b.b.",
"b.b.b.b.b.b.b.b.b.b.b.b.b.b.b.b.b.b.b.b.b.b.b.b.b.b.b.b.d $ u *.P U m n b Y q ; 4 b.b.b.b.b.b.b.b.b.b.b.b.b.b.b.b.b.b.b.b.b.b.b.",
"b.b.b.b.b.b.b.b.b.b.b.b.b.b.b.b.b.b.b.b.b.b.b.b.b.M b.b.b.b.$ $ $ l z z l t X ; b.b.b.b.b.b.b.b.b.b.b.b.b.b.b.b.b.b.b.b.b.b.b.b.",
"b.b.b.b.b.b.b.b.b.b.b.b.b.b.b.b.b.b.b.b.b.b.b.b.b.b.b.b.b.b.$ $ ; * : : ; * : b.b.b.b.b.b.b.b.b.b.b.b.b.b.b.b.b.b.b.b.b.b.b.b.b.",
"b.b.b.b.b.b.b.b.b.b.b.b.b.b.b.b.b.b.b.b.b.b.b.b.b.b.b.b.b.b.u b.: ; ; ; ; : b.b.b.b.b.b.b.b.b.b.b.b.b.b.b.b.b.b.b.b.b.b.b.b.b.b.",
"b.b.b.b.b.b.b.b.b.b.b.b.b.b.b.b.b.b.b.b.b.b.b.b.b.b.b.b.b.b.b.b.b.b.b.b.b.b.b.b.b.b.b.b.b.b.b.b.b.b.b.b.b.b.b.b.b.b.b.b.b.b.b.b.",
"b.b.b.b.b.b.b.b.b.b.b.b.b.b.b.b.b.b.b.b.b.b.b.b.b.b.b.b.b.b.b.b.b.b.b.b.b.b.b.b.b.b.b.b.b.b.b.b.b.b.b.b.b.b.b.b.b.b.b.b.b.b.b.b.",
"b.b.b.b.b.b.b.b.b.b.b.b.b.b.b.b.b.b.b.b.b.b.b.b.b.b.b.b.b.b.b.b.b.b.b.b.b.b.b.b.b.b.b.b.b.b.b.b.b.b.b.b.b.b.b.b.b.b.b.b.b.b.b.b.",
"b.b.b.b.b.b.b.b.b.b.b.b.b.b.b.b.b.b.b.b.b.b.b.b.b.b.b.b.b.b.b.b.b.b.b.b.b.b.b.b.b.b.b.b.b.b.b.b.b.b.b.b.b.b.b.b.b.b.b.b.b.b.b.b.",
"b.b.b.b.b.b.b.b.b.b.b.b.b.b.b.b.b.b.b.b.b.b.b.b.b.b.b.b.b.b.b.b.b.b.b.b.b.b.b.b.b.b.b.b.b.b.b.b.b.b.b.b.b.b.b.b.b.b.b.b.b.b.b.b.",
"b.b.b.b.b.b.b.b.b.b.b.b.b.b.b.b.b.b.b.b.b.b.b.b.b.b.b.b.b.b.b.b.b.b.b.b.b.b.b.b.b.b.b.b.b.b.b.b.b.b.b.b.b.b.b.b.b.b.b.b.b.b.b.b.",
"b.b.b.b.b.b.b.b.b.b.b.b.b.b.b.b.b.b.b.b.b.b.b.b.b.b.b.b.b.b.b.b.b.b.b.b.b.b.b.b.b.b.b.b.b.b.b.b.b.b.b.b.b.b.b.b.b.b.b.b.b.b.b.b.",
"b.b.b.b.b.b.b.b.b.b.b.b.b.b.b.b.b.b.b.b.b.b.b.b.b.b.b.b.b.b.b.b.b.b.b.b.b.b.b.b.b.b.b.b.b.b.b.b.b.b.b.b.b.b.b.b.b.b.b.b.b.b.b.b.",
"b.b.b.b.b.b.b.b.b.b.b.b.b.b.b.b.b.b.b.b.b.b.b.b.b.b.b.b.b.b.b.b.b.b.b.b.b.b.b.b.b.b.b.b.b.b.b.b.b.b.b.b.b.b.b.b.b.b.b.b.b.b.b.b.",
"b.b.b.b.b.b.b.b.b.b.b.b.b.b.b.b.b.b.b.b.b.b.b.b.b.b.b.b.b.b.b.b.b.b.b.b.b.b.b.b.b.b.b.b.b.b.b.b.b.b.b.b.b.b.b.b.b.b.b.b.b.b.b.b.",
"b.b.b.b.b.b.b.b.b.b.b.b.b.b.b.b.b.b.b.b.b.b.b.b.b.b.b.b.b.b.b.b.b.b.b.b.b.b.b.b.b.b.b.b.b.b.b.b.b.b.b.b.b.b.b.b.b.b.b.b.b.b.b.b."
};
