/* XPM */
static char *result[] = {
/* columns rows colors chars-per-pixel */
"64 64 147 2 ",
"   c #AD4A0C",
".  c #BA4C0E",
"X  c #B9580E",
"o  c #BA4C1F",
"O  c #BA631F",
"+  c #B15323",
"@  c #BB5825",
"#  c #BB502C",
"$  c #A55C3E",
"%  c #BB5C31",
"&  c #BB6837",
"*  c #B9613D",
"=  c #C55F0F",
"-  c #D45F11",
";  c #CB6911",
":  c #D56C11",
">  c #E36E18",
",  c #F47118",
"<  c #FF731C",
"1  c #C95A23",
"2  c #D75C25",
"3  c #C85F31",
"4  c #CA6625",
"5  c #D76B27",
"6  c #CC6A38",
"7  c #D86130",
"8  c #D86D36",
"9  c #DB7539",
"0  c #E66A28",
"q  c #F16E2C",
"w  c #E66D35",
"e  c #F66F34",
"r  c #E67A39",
"t  c #F37A37",
"y  c #FF7D36",
"u  c #B96A47",
"i  c #A06C55",
"p  c #BE7352",
"a  c #817270",
"s  c #CA6D46",
"d  c #D86642",
"f  c #CB784E",
"g  c #E67043",
"h  c #E57D4A",
"j  c #F27F49",
"k  c #FF8226",
"l  c #FF9F28",
"z  c #F38837",
"x  c #FF8D33",
"c  c #FF9B3A",
"v  c #FFA93D",
"b  c #FFB63B",
"n  c #9C8A79",
"m  c #DB834E",
"M  c #DC8A5D",
"N  c #FF8246",
"B  c #FB8843",
"V  c #FF8942",
"C  c #FB894F",
"Z  c #FB9044",
"A  c #FF9144",
"S  c #FC904F",
"D  c #FF9C4B",
"F  c #E88853",
"G  c #F18C50",
"H  c #FF9252",
"J  c #F2975D",
"K  c #F8915A",
"L  c #FF9C5A",
"P  c #FFAA4C",
"I  c #FFB84E",
"U  c #FFAA5D",
"Y  c #FFB75E",
"T  c #C28461",
"R  c #DE9D65",
"E  c #FF9F67",
"W  c #F09E68",
"Q  c #EDAB6F",
"!  c #FFAA6C",
"~  c #FFB96D",
"^  c #FFAE79",
"/  c #FFB97B",
"(  c #FFC450",
")  c #FFC55F",
"_  c #FFD35E",
"`  c #FFE24A",
"'  c #FFC66F",
"]  c #FFC57B",
"[  c #EBDF7F",
"{  c #FFD270",
"}  c #FFD37E",
"|  c #FFE162",
" . c #FFEC62",
".. c #FEFA61",
"X. c #FFE071",
"o. c #FFEC71",
"O. c #FFE07F",
"+. c #FEFB74",
"@. c #FFBB86",
"#. c #F2B68B",
"$. c #F1C38D",
"%. c #FFC689",
"&. c #FFD48C",
"*. c #EFCF9A",
"=. c #FFD599",
"-. c #FFDF9C",
";. c #FFEC80",
":. c #FFE08E",
">. c #FFEB8D",
",. c #FEFC80",
"<. c #F9F288",
"1. c #FFF688",
"2. c #FEFE8A",
"3. c #FFEB9C",
"4. c #F7F294",
"5. c #FFF492",
"6. c #FEFD93",
"7. c #FFF59A",
"8. c #FEFE9B",
"9. c #EDD3AC",
"0. c #FCD4AB",
"q. c #FFE3A8",
"w. c #FEEEAA",
"e. c #F8F2A0",
"r. c #FFF5A1",
"t. c #FEF7A7",
"y. c #FAFBA3",
"u. c #FEFEA2",
"i. c #FFF6AF",
"p. c #FEFEA9",
"a. c #FAFBAE",
"s. c #FEFEAF",
"d. c #FAF3B1",
"f. c #FEF6B6",
"g. c #FEFEB6",
"h. c #FFF6BD",
"j. c #FEFEBD",
"k. c #FFF6C2",
"l. c #FEFEC3",
"z. c #FEF7CB",
"x. c #FFFDCA",
"c. c #FFFED4",
"v. c #FFFEE1",
"b. c #FFFFEC",
"n. c #FFFFF6",
"m. c white",
"M. c None",
/* pixels */
"M.M.M.M.M.M.M.M.M.M.M.M.M.M.M.M.M.M.M.M.M.M.M.M.M.M.M.M.M.M.M.M.M.M.M.M.M.M.M.M.M.M.M.M.M.M.M.M.M.M.M.M.M.M.M.M.M.M.M.M.M.M.M.M.",
"M.M.M.M.M.M.M.M.M.M.M.M.M.M.M.M.M.M.M.M.M.M.M.M.M.M.M.M.M.M.M.M.M.M.M.M.M.M.M.M.M.M.M.M.M.M.M.M.M.M.M.M.M.M.M.M.M.M.M.M.M.M.M.M.",
"M.M.M.M.M.M.M.M.M.M.M.M.M.M.M.M.M.M.M.M.M.M.M.M.M.M.M.M.M.M.M.M.M.M.M.M.M.M.M.M.M.M.M.M.M.M.M.M.M.M.M.M.M.M.M.M.M.M.M.M.M.M.M.M.",
"M.M.M.M.M.M.M.M.M.M.M.M.M.M.M.M.M.M.M.M.M.M.M.M.M.M.M.M.M.M.M.M.M.M.M.M.M.M.M.M.M.M.M.M.M.M.M.M.M.M.M.M.M.M.M.M.M.M.M.M.M.M.M.M.",
"M.M.M.M.M.M.M.M.M.M.M.M.M.M.M.M.M.M.M.M.M.M.M.M.M.M.M.M.M.M.M.M.M.M.M.M.M.M.M.M.M.M.M.M.M.M.M.M.M.M.M.M.M.M.M.M.M.M.M.M.M.M.M.M.",
"M.M.M.M.M.M.M.M.M.M.M.M.M.M.M.M.M.M.M.M.M.M.M.M.M.M.M.M.M.M.M.M.M.M.M.M.M.M.M.M.M.M.M.M.M.M.M.M.M.M.M.M.M.M.M.M.M.M.M.M.M.M.M.M.",
"M.M.M.M.M.M.M.M.M.M.M.M.M.M.M.M.M.M.M.M.M.M.M.M.M.M.M.M.M.M.M.M.M.M.M.M.M.M.M.M.M.M.M.M.M.M.M.M.M.M.M.M.M.M.M.M.M.M.M.M.M.M.M.M.",
"M.M.M.M.M.M.M.M.M.M.M.M.M.M.M.M.M.M.M.M.M.M.M.M.M.M.M.M.M.M.M.M.M.M.M.M.M.M.M.M.M.M.M.M.M.M.M.M.M.M.M.M.M.M.M.M.M.M.M.M.M.M.M.M.",
"M.M.M.M.M.M.M.M.M.M.M.M.M.M.M.M.M.M.M.M.M.M.M.M.M.M.M.M.M.M.M.M.M.M.M.M.M.+ M.M.M.M.M.M.M.M.M.M.M.M.M.M.M.M.M.M.M.M.M.M.M.M.M.M.",
"M.M.M.M.M.M.M.M.M.M.M.M.M.M.M.M.M.M.M.M.M.M.M.M.M.M.M.M.M.M.M.M.M.6 M.% @ % 6 M.M.% 3 M.M.M.M.M.3 M.M.M.M.M.M.M.M.M.M.M.M.M.M.M.",
"M.M.M.M.M.M.M.M.M.M.M.M.M.M.M.M.M.M.M.M.M.M.M.M.M.M.M.M.M.M.M.6 6 M.M.6 6 % 7 % @ 6 8 3 3 3 3 M.3 M.M.M.M.M.M.M.M.M.M.M.M.M.M.M.",
"M.M.M.M.M.M.M.M.M.M.M.M.M.M.M.M.M.M.M.M.M.M.M.M.M.M.M.% 3 3 6 M.6 6 3 6 M.6 % 3 3 @ 8 8 3 3 3 3 3 M.M.M.M.M.M.M.M.M.M.M.M.M.M.M.",
"M.M.M.M.M.M.M.M.M.M.M.M.M.M.M.M.M.M.M.M.M.M.M.M.M.M.6 4 8 r 3 3 M.M.M.M.M.% d 6 M.% @ 3 M.3 3 3 3 M.M.M.M.M.M.M.M.M.M.M.M.M.M.M.",
"M.M.M.M.M.M.M.M.M.M.M.M.M.M.M.M.M.M.M.M.M.M.M.M.M.3 6 6 6 r 4 3 3 M.M.M.O g j r + t 8 8 @ 3 3 3 3 M.M.M.M.M.M.M.M.M.M.M.M.M.M.M.",
"M.M.M.M.M.M.M.M.M.M.M.M.M.M.M.M.M.M.M.M.M.M.M.M.+ @ 4 t @ @ 1 9 @ @ 1 M.7 w B A N y U N 5 4 1 3 3 M.M.M.M.M.M.M.M.M.M.M.M.M.M.M.",
"M.M.M.M.M.M.M.M.M.M.M.M.M.M.M.M.M.M.M.M.M.% M.@ @ 6 5 q 2 q D q 2 4 M ' M y V D P A Y D A t r O 3 M.M.M.M.M.M.M.M.M.M.M.M.M.M.M.",
"M.M.M.M.M.M.M.M.M.M.M.M.M.M.M.M.M.M.M.M.M.@ 8 4 1 H E Y ~ A k A t R R $.Q ( ( X._ c x c r 0 w G @ @ M.% M.M.M.M.M.M.M.M.M.M.M.M.",
"M.M.M.M.M.M.M.M.M.M.M.M.M.M.M.M.M.M.M.M.M.@ t @ 4 J Y ' _ >. .o. .Y { 7.5.,.2.| ( _ I < v P Z A t 8 + + % M.% M.M.M.M.M.M.M.M.M.",
"M.M.M.M.M.M.M.M.M.M.M.M.M.M.M.M.M.M.M.M.@ 3 4 9 0 D { x ;.g.j.+.2.2.,.u.:.5.X.[ +.,.2.2.| ) ' k z t V 9 M.M.% M.M.M.M.M.M.M.M.M.",
"M.M.M.M.M.M.M.M.M.M.M.M.M.M.M.M.M.M.M.M.@ V   t } +.} ) | u.s.l.8.-.p.p.l.g.g.u.u.5.8.2.+.2.&.#.U ' A N + M.@ M.M.M.M.M.M.M.M.M.",
"M.M.M.M.M.M.M.M.M.M.M.M.M.M.M.M.M.M.M.M.@ o k { ;.,.,.5.2.8.u.8.l.8.u.c.x.x.c.j.u.g.u.#.:.3.&.9.| X.) U 3 @ M.% M.M.M.M.M.M.M.M.",
"M.M.M.M.M.M.M.M.M.M.M.M.M.M.M.M.M.M.M.+ r P ) O.| ..+.2.6.p.s.a.x.j.v.c.c.l.p.x.b.j.i.3.g.@.#.Q ) Y Y { N + j + % % % % M.M.M.M.",
"M.M.M.M.M.M.M.M.M.M.M.M.M.M.M.M.M.M.M.M.y ( D ;. ...+.p.s.p.t.a.f.q.c.x.l.p.p.c.n.g.s.j.c.3.-.q.Y Y { O.B N V % @ % % % % M.M.M.",
"M.M.M.M.M.M.M.M.M.M.M.M.M.M.M.M.M.M.M.  x ( b  .+.2.2.s.s.u.y.v.b.f.c.c.n.c.x.c.l.c.c.j.c.g.s.u.O.P Y P t 8 j + % % % % M.M.M.M.",
"M.M.M.M.M.M.M.M.M.M.M.M.M.M.M.M.M.M.= q v ` l ....2.6.p.x.c.x.n.b.k.v.n.v.c.m.v.v.l.j.x.z.k.l.2.y.:.P ] ~ w 6 % @ M.M.M.M.M.M.M.",
"M.M.M.M.M.M.M.M.M.M.M.M.M.M.M.M.M.@ y c X. .,.+.2.s.c.c.b.b.n.m.v.m.n.m.m.m.b.b.b.x.l.v.b.n.v.g.,.5.] Y ] ! 8 3 M.M.M.M.M.M.M.M.",
"M.M.M.M.M.M.M.M.M.M.M.M.M.M.M.M.@ = A t Y 6.6.8.u.g.j.b.v.m.m.m.m.x.m.m.m.m.b.v.n.c.b.b.l.v.v.8.j.1.' Y L F i * M.M.M.M.M.M.M.M.",
"M.M.M.M.M.M.M.M.M.M.M.M.M.M.M.5 = V v P ~ +.,.s.c.e.p.l.l.j.n.m.m.v.m.m.n.v.b.m.m.v.x.b.l.v.b.u.p.u.) ! z T p M.M.M.M.M.M.M.M.M.",
"M.M.M.M.M.M.M.M.M.M.M.M.M.M.M.t 5 k _ ~ ' ,.8.6.a.t.i.x.b.n.x.b.m.v.m.m.m.m.n.m.m.v.m.c.c.v.n.2.8.s.P S ! E 4 M.M.M.M.M.M.M.M.M.",
"M.M.M.M.M.M.M.M.M.M.M.M.M.M.X 5 k v _ >.:.2.6.s.j.l.x.g.b.m.n.m.m.m.m.m.m.m.m.b.m.b.b.n.l.c.c.j.6.5.Y U D 7 % M.M.M.M.M.M.M.M.M.",
"M.M.M.M.M.M.M.M.M.M.M.M.M.M.= X k | 8.w./ 6.g.p.g.c.v.x.b.m.m.m.m.m.m.m.m.m.n.m.m.b.v.j.l.b.b.6.>.{ ^ ' ~ h # M.M.M.M.M.M.M.M.M.",
"M.M.M.M.M.M.M.M.M.M.M.M.M.= = X , 5.g.s.5.t.s.u.s.x.c.g.x.v.m.m.m.m.m.m.m.m.m.m.b.m.b.c.n.b.c.u.] / ^ ] &.W M.M.M.M.M.M.M.M.M.M.",
"M.M.M.M.M.M.M.M.M.M.M.M.= = = X c 1.6.u.6.3.=.8.l.v.j.g.x.v.b.m.m.m.m.m.m.m.m.m.m.m.b.v.n.v.p.u.3.%.*.u.H m u M.M.M.M.M.M.M.M.M.",
"M.M.M.M.M.M.M.M.M.M.M.M.M.= = X I ) X.>.&.%.u.x.c.x.c.c.x.m.m.m.m.m.m.m.m.m.m.m.m.v.v.b.c.l.u.u.s.1.%.%.%.s M.M.M.M.M.M.M.M.M.M.",
"M.M.M.M.M.M.M.M.M.M.M.M.M.= = X k P ~ } >.:.8.2.l.l.l.l.c.c.m.m.m.m.m.m.m.m.n.m.m.m.v.v.m.l.g.g.s.f.=.@.L f M.M.M.M.M.M.M.M.M.M.",
"M.M.M.M.M.M.M.M.M.M.M.M.M.= = X = , P 3.:.0.3.6.6.l.l.j.l.c.n.m.m.m.m.m.m.m.n.v.b.m.x.l.j.g.j.s.g.a.s.U 1 6 M.M.M.M.M.M.M.M.M.M.",
"M.M.M.M.M.M.M.M.M.M.M.M.M.= = X : x P 7.g.d.l.u.8.s.s.g.c.v.v.m.n.m.m.m.m.n.m.m.m.v.x.j.c.x.p.w.6.X.{ L t H M.M.M.M.M.M.M.M.M.M.",
"M.M.M.M.M.M.M.M.M.M.M.M.M.M.X X X z k { p.u.>.j.p.s.s.g.g.c.v.m.m.m.m.m.m.m.c.n.m.n.c.v.g.2.p.w.] ] &.L * 8 M.M.M.M.M.M.M.M.M.M.",
"M.M.M.M.M.M.M.M.M.M.M.M.M.M.M.X X - v ( o.o.+.8.g.s.x.x.s.s.n.n.m.m.m.m.n.m.m.m.v.m.v.s.p.2.6.s.1.Y A V m M.M.M.M.M.M.M.M.M.M.M.",
"M.M.M.M.M.M.M.M.M.M.M.M.M.M.M.M.X 5 I _  .|  .6.6.u.p.c.p.x.n.n.b.m.m.m.m.m.m.m.v.x.c.s.5.,.x.j._ y L J j 8 M.M.M.M.M.M.M.M.M.M.",
"M.M.M.M.M.M.M.M.M.M.M.M.M.M.M.M.= 5 A v c _ 1.8.u.u.u.s.g.c.g.m.m.m.m.b.m.m.m.v.v.b.l.s.j.8.s.X.U Y Y ~ 9 M.M.M.M.M.M.M.M.M.M.M.",
"M.M.M.M.M.M.M.M.M.M.M.M.M.M.M.M.@ + y ) c ) | 6.s.p.j.p.g.g.g.v.b.b.m.c.v.c.x.v.j.c.a.=.h.3.;.U %.-./ C M.M.M.M.M.M.M.M.M.M.M.M.",
"M.M.M.M.M.M.M.M.M.M.M.M.M.M.M.M.M.+ D V y P o.6.,.8.x.:.u.u.g.g.x.j.8.8.j.s.l.l.f.a.-.q.7.8.>.} ] E 3 M.M.M.M.M.M.M.M.M.M.M.M.M.",
"M.M.M.M.M.M.M.M.M.M.M.M.M.M.M.M.@ 4 V D e V b D x X.8.4.r.8.g.6.p.g.x.x.l.c.v.b.l.w.-.8.} :.U E K * M.M.M.M.M.M.M.M.M.M.M.M.M.M.",
"M.M.M.M.M.M.M.M.M.M.M.M.M.M.M.M.M.+ y t 8 5 t ' y ~ :.p.p.j.u.6.s.j.l.x.x.j.s.l.i.d.u.{ ~ H m a $ M.M.M.M.M.M.M.M.M.M.M.M.M.M.M.",
"M.M.M.M.M.M.M.M.M.M.M.M.M.M.M.M.M.M.% @ + + 5 # z U Y ] 6.:.8.u.8.p.g.g.s.s.p.j.j.j./ ! ^ H $ u M.M.M.M.M.M.M.M.M.M.M.M.M.M.M.M.",
"M.M.M.M.M.M.M.M.M.M.M.M.M.M.M.M.M.M.M.M.M.@ + + + . C ~ ' } ,.6.u.6.a.2.8.6.c.2._ { L U T i u M.M.M.M.M.M.M.M.M.M.M.M.M.M.M.M.M.",
"M.M.M.M.M.M.M.M.M.M.M.M.M.M.M.M.M.M.M.M.M.M.M.M.M.X F W @.~ >.2.2.u.2...+...8.o.v ~ w 6 i M.M.M.M.M.M.M.M.M.M.M.M.M.M.M.M.M.M.M.",
"M.M.M.M.M.M.M.M.M.M.M.M.M.M.M.M.M.M.M.M.M.M.M.M.M.$ f ! U U :.O.&.7.p.<.,.+.6.I ) A 4 M.M.M.M.M.M.M.M.M.M.M.M.M.M.M.M.M.M.M.M.M.",
"M.M.M.M.M.M.M.M.M.M.M.M.M.M.M.M.M.M.M.M.M.M.M.M.M.M.* & f m Q ~ ' } _ | ..2.;.c 0 4 M.M.M.M.M.M.M.M.M.M.M.M.M.M.M.M.M.M.M.M.M.M.",
"M.M.M.M.M.M.M.M.M.M.M.M.M.M.M.M.M.M.M.M.M.M.M.M.M.n u u & u T #.D U _ ` ` | b y X M.M.M.M.M.M.M.M.M.M.M.M.M.M.M.M.M.M.M.M.M.M.M.",
"M.M.M.M.M.M.M.M.M.M.M.M.M.M.M.M.M.M.M.M.M.M.M.M.M.M.M.u & O m R M B l v c b x ; = M.M.M.M.M.M.M.M.M.M.M.M.M.M.M.M.M.M.M.M.M.M.M.",
"M.M.M.M.M.M.M.M.M.M.M.M.M.M.M.M.M.M.M.M.M.M.M.M.M.M.M.i & & f 9 X > , - - - = = M.M.M.M.M.M.M.M.M.M.M.M.M.M.M.M.M.M.M.M.M.M.M.M.",
"M.M.M.M.M.M.M.M.M.M.M.M.M.M.M.M.M.M.M.M.M.M.M.M.M.M.M.M.M.u M.O = = X = = = = = M.M.M.M.M.M.M.M.M.M.M.M.M.M.M.M.M.M.M.M.M.M.M.M.",
"M.M.M.M.M.M.M.M.M.M.M.M.M.M.M.M.M.M.M.M.M.M.M.M.M.M.M.M.M.M.M.M.; = = = = = M.M.M.M.M.M.M.M.M.M.M.M.M.M.M.M.M.M.M.M.M.M.M.M.M.M.",
"M.M.M.M.M.M.M.M.M.M.M.M.M.M.M.M.M.M.M.M.M.M.M.M.M.M.M.M.M.M.M.M.M.M.M.M.M.M.M.M.M.M.M.M.M.M.M.M.M.M.M.M.M.M.M.M.M.M.M.M.M.M.M.M.",
"M.M.M.M.M.M.M.M.M.M.M.M.M.M.M.M.M.M.M.M.M.M.M.M.M.M.M.M.M.M.M.M.M.M.M.M.M.M.M.M.M.M.M.M.M.M.M.M.M.M.M.M.M.M.M.M.M.M.M.M.M.M.M.M.",
"M.M.M.M.M.M.M.M.M.M.M.M.M.M.M.M.M.M.M.M.M.M.M.M.M.M.M.M.M.M.M.M.M.M.M.M.M.M.M.M.M.M.M.M.M.M.M.M.M.M.M.M.M.M.M.M.M.M.M.M.M.M.M.M.",
"M.M.M.M.M.M.M.M.M.M.M.M.M.M.M.M.M.M.M.M.M.M.M.M.M.M.M.M.M.M.M.M.M.M.M.M.M.M.M.M.M.M.M.M.M.M.M.M.M.M.M.M.M.M.M.M.M.M.M.M.M.M.M.M.",
"M.M.M.M.M.M.M.M.M.M.M.M.M.M.M.M.M.M.M.M.M.M.M.M.M.M.M.M.M.M.M.M.M.M.M.M.M.M.M.M.M.M.M.M.M.M.M.M.M.M.M.M.M.M.M.M.M.M.M.M.M.M.M.M.",
"M.M.M.M.M.M.M.M.M.M.M.M.M.M.M.M.M.M.M.M.M.M.M.M.M.M.M.M.M.M.M.M.M.M.M.M.M.M.M.M.M.M.M.M.M.M.M.M.M.M.M.M.M.M.M.M.M.M.M.M.M.M.M.M.",
"M.M.M.M.M.M.M.M.M.M.M.M.M.M.M.M.M.M.M.M.M.M.M.M.M.M.M.M.M.M.M.M.M.M.M.M.M.M.M.M.M.M.M.M.M.M.M.M.M.M.M.M.M.M.M.M.M.M.M.M.M.M.M.M.",
"M.M.M.M.M.M.M.M.M.M.M.M.M.M.M.M.M.M.M.M.M.M.M.M.M.M.M.M.M.M.M.M.M.M.M.M.M.M.M.M.M.M.M.M.M.M.M.M.M.M.M.M.M.M.M.M.M.M.M.M.M.M.M.M.",
"M.M.M.M.M.M.M.M.M.M.M.M.M.M.M.M.M.M.M.M.M.M.M.M.M.M.M.M.M.M.M.M.M.M.M.M.M.M.M.M.M.M.M.M.M.M.M.M.M.M.M.M.M.M.M.M.M.M.M.M.M.M.M.M."
};
