/* XPM */
static char *result[] = {
/* columns rows colors chars-per-pixel */
"64 64 185 2 ",
"   c #943F10",
".  c #A0430E",
"X  c #AD4A0C",
"o  c #BA4C0E",
"O  c #B9580E",
"+  c #A0451E",
"@  c #BA631F",
"#  c #AC4A20",
"$  c #A04E2F",
"%  c #B15323",
"&  c #BB5825",
"*  c #BB502C",
"=  c #A55C3E",
"-  c #BB5C31",
";  c #B9613D",
":  c #C55F0F",
">  c #D45F11",
",  c #D56C11",
"<  c #E36E18",
"1  c #F47118",
"2  c #FF731C",
"3  c #C94F20",
"4  c #C95A23",
"5  c #D75C25",
"6  c #C85F31",
"7  c #CA6625",
"8  c #D76B27",
"9  c #CC6A38",
"0  c #D86130",
"q  c #D86D36",
"w  c #DB7539",
"e  c #E56024",
"r  c #E66A28",
"t  c #FF6323",
"y  c #F16E2C",
"u  c #FF6F29",
"i  c #E47924",
"p  c #E86231",
"a  c #E66D35",
"s  c #F66F34",
"d  c #E67A39",
"f  c #F37A37",
"g  c #FF7D36",
"h  c #855745",
"j  c #A06C55",
"k  c #817270",
"l  c #AA7D66",
"z  c #C86241",
"x  c #CA6D46",
"c  c #D86642",
"v  c #CB784E",
"b  c #D77045",
"n  c #D77C4E",
"m  c #E67043",
"M  c #E57D4A",
"N  c #F27F49",
"B  c #FF8226",
"V  c #FF9F28",
"C  c #F38837",
"Z  c #FF8D33",
"A  c #FF9B3A",
"S  c #FFA93D",
"D  c #FFBD33",
"F  c #9C8A79",
"G  c #AA9C7D",
"H  c #BBA47F",
"J  c #DB834E",
"K  c #DC8A5D",
"L  c #FF8246",
"P  c #FB8843",
"I  c #FF8942",
"U  c #FB894F",
"Y  c #FB9044",
"T  c #FF9144",
"R  c #FC904F",
"E  c #FF9C4B",
"W  c #F18C50",
"Q  c #FF9252",
"!  c #F2975D",
"~  c #F8915A",
"^  c #FF9C5A",
"/  c #FFAA4C",
"(  c #FFB84E",
")  c #FFAA5D",
"_  c #FFB75E",
"`  c #C28461",
"'  c #DE9D65",
"]  c #FF9F67",
"[  c #F09E68",
"{  c #D8A97B",
"}  c #CAB774",
"|  c #EDAB6F",
" . c #FFAA6C",
".. c #FFB96D",
"X. c #FFAE79",
"o. c #EFB87D",
"O. c #FFB97B",
"+. c #FFCB41",
"@. c #FFC450",
"#. c #FFC55F",
"$. c #FFD35E",
"%. c #FFE24A",
"&. c #F2C46F",
"*. c #FFC66F",
"=. c #FFC57B",
"-. c #EBD17E",
";. c #FFD270",
":. c #FFD37E",
">. c #FFE162",
",. c #FFEC62",
"<. c #FEFA61",
"1. c #E5EA7F",
"2. c #FFE071",
"3. c #F1EA70",
"4. c #FFEC71",
"5. c #FFE07F",
"6. c #FEFB74",
"7. c #F5F37B",
"8. c #B3AD84",
"9. c #C69480",
"0. c #FFBB86",
"q. c #F2B68B",
"w. c #DBD487",
"e. c #F1C38D",
"r. c #FFC689",
"t. c #FFD48C",
"y. c #E4C69B",
"u. c #EFCF9A",
"i. c #EBDF9B",
"p. c #FFD599",
"a. c #FFDF9C",
"s. c #FFEC80",
"d. c #FFE08E",
"f. c #FFEB8D",
"g. c #FEFC80",
"h. c #F9F288",
"j. c #FFF688",
"k. c #F6FA8C",
"l. c #FEFE8A",
"z. c #F1E99D",
"x. c #FFEB9C",
"c. c #F7F294",
"v. c #FFF492",
"b. c #F7FA92",
"n. c #FEFD93",
"m. c #F7F79A",
"M. c #FFF59A",
"N. c #FEFE9B",
"B. c #DFD2A0",
"V. c #EDD3AC",
"C. c #FCD4AB",
"Z. c #F0DEAA",
"A. c #F3DFBA",
"S. c #FFE3A8",
"D. c #FEEEAA",
"F. c #F8F2A0",
"G. c #FFF5A1",
"H. c #FEF7A7",
"J. c #FAFBA3",
"K. c #FEFEA2",
"L. c #FFF6AF",
"P. c #FEFEA9",
"I. c #FAFBAE",
"U. c #FEFEAF",
"Y. c #F4EAB6",
"T. c #FDEBBA",
"R. c #FAF3B1",
"E. c #FEF6B6",
"W. c #FEFEB6",
"Q. c #F9F3BC",
"!. c #FFF6BD",
"~. c #FEFEBD",
"^. c #FEECC6",
"/. c #FFF6C2",
"(. c #FEFEC3",
"). c #FEF7CB",
"_. c #FFFDCA",
"`. c #FFF1D2",
"'. c #FFFED4",
"]. c #FEF5E1",
"[. c #FFFEE1",
"{. c #FFFFEC",
"}. c #FFFFF6",
"|. c white",
" X c None",
/* pixels */
" X X X X X X X X X X X X X X X X X X X X X X X X X X X X X X X X X X X X X X X X X X X X X X X X X X X X X X X X X X X X X X X X",
" X X X X X X X X X X X X X X X X X X X X X X X X X X X X X X X X X X X X X X X X X X X X X X X X X X X X X X X X X X X X X X X X",
" X X X X X X X X X X X X X X X X X X X X X X X X X X X X X X X X X X X X X X X X X X X X X X X X X X X X X X X X X X X X X X X X",
" X X X X X X X X X X X X X X X X X X X X X X X X X X X X X X X X X X X X X X X X X X X X X X X X X X X X X X X X X X X X X X X X",
" X X X X X X X X X X X X X X X X X X X X X X X X X X X X X X X X X X X X X X X X X X X X X X X X X X X X X X X X X X X X X X X X",
" X X X X X X X X X X X X X X X X X X X X X X X X X X X X X X X X X X X X X X X X X X X X X X X X X X X X X X X X X X X X X X X X",
" X X X X X X X X X X X X X X X X X X X X X X X X X X X X X X X X X X X X X X X X X X X X X X X X X X X X X X X X X X X X X X X X",
" X X X X X X X X X X X X X X X X X X X X X X X X X X X X X X X X X X-  X-  X X X X X X X X X X X-  X X X X X X X X X X X X X X X",
" X X X X X X X X X X X X X X X X X X X X X X X X X X X X X X X X X6 - - & # -  X X X X X X X X X%  X X X X X X X X X X X X X X X",
" X X X X X X X X X X X X X X X X X X X X X X X X X X X X X6 6 6 6  X6 - ; & 6 % % - - &  X- &  X- %  X X X X X X X X X X X X X X",
" X X X X X X X X X X X X X X X X X X X X X X X X X X X X& -  X X6 6 z 6 6 - - 6 % q c - & & - & &  X X X X X X X X X X X X X X X",
" X X X X X X X X X X X X X X X X X X X X X X X X X X& - I & 6 & 6  X&  X- N q - 6 % % % - - & & &  X X X X X X X X X X X X X X X",
" X X X X X X X X X X X X X X X X X X X X X X X X X- 9 & f T P 6 -  X X X% 4 d I % & 8 7 4 - 9 - &  X X X X X X X X X X X X X X X",
" X X X X X X X X X X X X X X X X X X X X X X X%  X% & f + % d a & % .  X. I E L N 8 0 g E & 7 f 9 &  X X X X X X X X X X X X X X",
" X X X X X X X X X X X X X X X X X X X X- &  X+ % 4 % r 4 w y T 4 % 8 4 E 5 I E E s I ) E a 7 8 L %  X X X X X X X X X X X X X X",
" X X X X X X X X X X X X X X X X X X X X& 9 d 7 T U P E E T E g f n H d.{ I ( S S B ( ( P s 4 & w 8  X X X X X X X X X X X X X X",
" X X X X X X X X X X X X X X X X X X X X# w f q 6 0 P ) #.A ( / R n =.r.:.,.4.( @.B S Z Z A E g & 7 6 & -  X X X X X X X X X X X",
" X X X X X X X X X X X X X X X X X X X# % f a 7 % b I E ( K.g.6.g.g.6.n.v.v.c.8.3.$.4.$.( Z / E 5 T g & 9 - +  X X X X X X X X X",
" X X X X X X X X X X X X X X X X X X X& w g . f 8 #.E B g.K.l.N.g.l.P.W.P.W.n.j.l.1.k.g.+.7.N.( ( / ;.E a % %  X X X X X X X X X",
" X X X X X X X X X X X X X X X X X X X+ I 3 f / 2.>.:.*.6.6.6.~.G.F.l.U.(.~.H.m.M.z.c.f.l.l.#.e.E ( _ I T 6 %  X X X X X X X X X",
" X X X X X X X X X X X X X X X X X X X& I A ( _ $.,.6.4.6.j.d.i.x.V.W._.[.E.L.T.(.W.J.x.p.x.p.0.2.s.2.#.) 6 % # #  X X#  X X X X",
" X X X X X X X X X X X X X X X X X X X# Y $.#.*.%.%.6.6.g.n.9.y.i.F.].{._.U.l.~.[._.N.U.U.v.0.U.4.2.) #.) P % &  X X% # #  X X X",
" X X X X X X X X X X X X X X X X X XO 4 / A S 2.>.2.6.l.l.n.y.Z.(.e.R.'.[.i.c.P.(.U.J.Y.'.U.N.P.j.#.#.2.;.g f 9 + # # # #  X X X",
" X X X X X X X X X X X X X X X X X XO O S S S %.6.g.l.P.N.n.x.).T.y.R.{.}.u.D.D.W.'.~.Q.Y.~.R.N.n.l.$.;./ I a 6 6 +  X X X X X X",
" X X X X X X X X X X X X X X X X6 O : 2 $.D +.<.<.l.l.l.U.P.~.'.^.'.|.}./.(.(.T.'.J.'.Z.}.{.'.n.N.f.l./ d.Q f f 6  X X X X X X X",
" X X X X X X X X X X X X X X X7 f < 1 E 4.g.l.g.6.n.l.P.(.'.}.'.~.}.}.|.}.|.}.`.T._.U.[.[.].|.P.6.l.5.) _ r.^ 9 6 9  X X X X X X",
" X X X X X X X X X X X X X X X@ a T S / >.l.g.g.K.N.N.~.~.|.|.|.[.[.`.].{.u.].].A.W.(.).[.[.{.N.j.I.g.*._ ..X.+ 9  X X X X X X X",
" X X X X X X X X X X X X X X X& C S @.#.n.6.g.W.P.W.~.(.U._.[._.{./.[.[.`.T.A.C.|.`.E.{.'.I.{.l.6.n.g...P M ] 0  X X X X X X X X",
" X X X X X X X X X X X X XO 4 r A S 7.^ 2.s.g.g.U.~.P.W._./.W._.|.).}.}.|.|.{.`.{.).'.'.[.!.{.U.n.G.n./ Q :.) * 9  X X X X X X X",
" X X X X X X X X X X X X: O f / / A V e.&.5.K.P.U._._.'.(.[.[.|.{.|.}.{.}.'.[.|.[.`.'.W.~.'.[.W.P.U.N.#._ _ P  X X X X X X X X X",
" X X X X X X X X X X X XO X Z B A ,.P.[ o.s.U.W.(.~._.'._.[.|.{.|.|.|.|.}.}.{.'.C.e.).!.E._._._.U.h.x.5.M.:.m  X X X X X X X X X",
" X X X X X X X X X X XO O X f 2 S K.P.=.5.n.K.K.U.U.a.L.(.[.(.}.|.[.}.|.|.|.{.[.[.|.^.E.{.[.[.P.v.=.0.t.x.S.c 4  X X X X X X X X",
" X X X X X X X X X X XO O O B B ( >.*.$.f.p.x.n._.(.a.p._.(.{.[.|.|.|.}.|.'.{.|.|.{.[.U.J.~.~.W.J.=.=.S...r.v =  X X X X X X X X",
" X X X X X X X X X X X XO O , A $.#._ ;.r.5.z.S./.'.R.T.T._.[.|.{.|.[.|.'.[.R.{.!.'.E.P.W.L.I.K.I.K.N.t.S.! n j 6  X X X X X X X",
" X X X X X X X X X X XO O O : 1 / T _ )  .j.n.K.W.P.I.!.~.(.~.[.}.'._.{.~.{.Q.R.'.{.'.P.'.}.U.J.(.G.G.S.t.r.^ 9  X X X X X X X X",
" X X X X X X X X X X X XO O : O B Z / n.d.Z.N.N.K.W.(.P.'._.[.{.[.}.'.{.(.(.{.`.'.{.(.U.~.~.I.W.W.a.~.~._ r 6  X X X X X X X X X",
" X X X X X X X X X X X X XO : . r Z $.J.T.u._.n.N.U.n.P.(.W.'.}.'.(.}.[.|.).~.[.|.}.~.P.U.K.M.~.x.x.n.M.f 6 f -  X X X X X X X X",
" X X X X X X X X X X X X XO O X X g _ K.B.B.n.~.W.n.P.U.U.W.'.[.'._.R.[.|.{.R.(.{.}.J.~.~.l.v.p.9.=. .:.) r N -  X X X X X X X X",
" X X X X X X X X X X X X X% X X   E / $.l.' s.P.I.n.U.P.G.W.'.[.|.{.{.'.T.{.T.`.[.{.(.(.L.l.j.U.d.5...E ..R & 6  X X X X X X X X",
" X X X X X X X X X X X X Xo O X 4 E / 2.( 6.4.N.j.l.K.H.v.E.'.'.[.}.|.|.}.{.|.|.[.(.'.[.U.g.l.U.l.2 g ) U d P  X X X X X X X X X",
" X X X X X X X X X X X X X X X& & g _ A / S j.l.l.t.n.P.U.U._._.[.|.|._.{.|.|.|.{.W._.I.P.M.~.N.( E P =.) 4 9  X X X X X X X X X",
" X X X X X X X X X X X X X X X# & 5 I g g / $.n.x.a.N.U.(.~.(.[.{.{.|.|.'.'.[._.(.~.N.n.D.N.N.$.5.f.:.) f  X X X X X X X X X X X",
" X X X X X X X X X X X X X X X X+ f L 4 g g ;.7.l.D.D.x.n.l.W.~.U.~.N.U.~.W.P.U.K.W.a.q.H { s.d.=.O. .L %  X X X X X X X X X X X",
" X X X X X X X X X X X X X X X% # d L p p I y u #.N.| -.l.n.G.P.H.P.N.l.P.~.W.~._.D.r.2.{ =.n...^ ! f  X X X X X X X X X X X X X",
" X X X X X X X X X X X X X X X X+ 5 g # e r T E t *.M.t.r.d.N.a.G.U.U.K.N.~.N.W.L.~.P.b.] ..^ v h + $  X X X X X X X X X X X X X",
" X X X X X X X X X X X X X X X X X% q #   4 d w T ..f.n.e.x.p.u.H.~.n.n.n.l.K.M.E.K.P.d.U O.r k =  X X X X X X X X X X X X X X X",
" X X X X X X X X X X X X X X X X X X+ #  X+   # X ~ G *.5.u.N.l.n.n.P.n.n.n.K.P.n.v.=.O.X.' = =  X X X X X X X X X X X X X X X X",
" X X X X X X X X X X X X X X X X X X X X X X X+ O n H ' { } l.j.l.w.n.6.l.<.K.N.4./ E .. .F j  X X X X X X X X X X X X X X X X X",
" X X X X X X X X X X X X X X X X X X X X X X X X# U  .o.) ..f.j.l.I.c.l.6.<.n.g.$.s.T 0 = ;  X X X X X X X X X X X X X X X X X X",
" X X X X X X X X X X X X X X X X X X X X X X X X= 9 T ] ! S 5.4.g.P.N.6.<.6.n.>.Z y # 4  X X X X X X X X X X X X X X X X X X X X",
" X X X X X X X X X X X X X X X X X X X X X X X Xh j ; K ` J  .5.$.#.2.d.<.g.<.( Z & 7 4  X X X X X X X X X X X X X X X X X X X X",
" X X X X X X X X X X X X X X X X X X X X X X X X X X% v % l J X.Z ..@.%.%.%.( S 4 O  X X X X X X X X X X X X X X X X X X X X X X",
" X X X X X X X X X X X X X X X X X X X X X X X X X X= = 9 q W M i B V V $.S A Z %  X X X X X X X X X X X X X X X X X X X X X X X",
" X X X X X X X X X X X X X X X X X X X X X X X X X X X= ; v x d X < < > A / Z f X  X X X X X X X X X X X X X X X X X X X X X X X",
" X X X X X X X X X X X X X X X X X X X X X X X X X X X X= - O O O O O X O : X .  X X X X X X X X X X X X X X X X X X X X X X X X",
" X X X X X X X X X X X X X X X X X X X X X X X X X X X X X XO O 4 O O X X X  X X X X X X X X X X X X X X X X X X X X X X X X X X",
" X X X X X X X X X X X X X X X X X X X X X X X X X X X X X X X XO  X X X X X X X X X X X X X X X X X X X X X X X X X X X X X X X",
" X X X X X X X X X X X X X X X X X X X X X X X X X X X X X X X X X X X X X X X X X X X X X X X X X X X X X X X X X X X X X X X X",
" X X X X X X X X X X X X X X X X X X X X X X X X X X X X X X X X X X X X X X X X X X X X X X X X X X X X X X X X X X X X X X X X",
" X X X X X X X X X X X X X X X X X X X X X X X X X X X X X X X X X X X X X X X X X X X X X X X X X X X X X X X X X X X X X X X X",
" X X X X X X X X X X X X X X X X X X X X X X X X X X X X X X X X X X X X X X X X X X X X X X X X X X X X X X X X X X X X X X X X",
" X X X X X X X X X X X X X X X X X X X X X X X X X X X X X X X X X X X X X X X X X X X X X X X X X X X X X X X X X X X X X X X X",
" X X X X X X X X X X X X X X X X X X X X X X X X X X X X X X X X X X X X X X X X X X X X X X X X X X X X X X X X X X X X X X X X",
" X X X X X X X X X X X X X X X X X X X X X X X X X X X X X X X X X X X X X X X X X X X X X X X X X X X X X X X X X X X X X X X X"
};
