/* XPM */
static char *result[] = {
/* columns rows colors chars-per-pixel */
"64 64 218 2 ",
"   c #7D341E",
".  c #822C0F",
"X  c #8D320D",
"o  c #8F3717",
"O  c #943F10",
"+  c #9D3D19",
"@  c #A0430E",
"#  c #AD4A0C",
"$  c #BA4C0E",
"%  c #B9580E",
"&  c #A0451E",
"*  c #BA4C1F",
"=  c #BA631F",
"-  c #8D4225",
";  c #814835",
":  c #AC4A20",
">  c #A04E2F",
",  c #B15323",
"<  c #BB5825",
"1  c #BB502C",
"2  c #A55C3E",
"3  c #BB5C31",
"4  c #BB6837",
"5  c #B9613D",
"6  c #C55F0F",
"7  c #CD4319",
"8  c #E04F1D",
"9  c #E35F16",
"0  c #E36E18",
"q  c #F47118",
"w  c #FF731C",
"e  c #C94F20",
"r  c #C95A23",
"t  c #D75C25",
"y  c #C85F31",
"u  c #CA6625",
"i  c #D76B27",
"p  c #CC6A38",
"a  c #D86130",
"s  c #D86D36",
"d  c #DB7539",
"f  c #E56024",
"g  c #E66A28",
"h  c #F16E2C",
"j  c #FF6F29",
"k  c #E47924",
"l  c #E86231",
"z  c #E66D35",
"x  c #F66F34",
"c  c #E67A39",
"v  c #F37A37",
"b  c #FF7D36",
"n  c #855745",
"m  c #B96A47",
"M  c #A06C55",
"N  c #BE7352",
"B  c #817270",
"V  c #AA7D66",
"C  c #C86241",
"Z  c #CA6D46",
"A  c #CB784E",
"S  c #D77045",
"D  c #D77C4E",
"F  c #E67043",
"G  c #E57D4A",
"H  c #F27F49",
"J  c #FF8226",
"K  c #FF9F28",
"L  c #F38837",
"P  c #FF8D33",
"I  c #FF9B3A",
"U  c #FFA93D",
"Y  c #FFB63B",
"T  c #9C8A79",
"R  c #AA9C7D",
"E  c #ADA075",
"W  c #BBA47F",
"Q  c #DB834E",
"!  c #DC8A5D",
"~  c #FF8246",
"^  c #FB8843",
"/  c #FF8942",
"(  c #FB894F",
")  c #FF8B4F",
"_  c #FB9044",
"`  c #FF9144",
"'  c #FC904F",
"]  c #F59A4D",
"[  c #FF9C4B",
"{  c #E88853",
"}  c #F18C50",
"|  c #E69753",
" . c #FF9252",
".. c #F8915A",
"X. c #FF9C5A",
"o. c #FFAA4C",
"O. c #F6B14F",
"+. c #FFB84E",
"@. c #FFAA5D",
"#. c #FFB75E",
"$. c #C28461",
"%. c #C3986F",
"&. c #DE9D65",
"*. c #FF9F67",
"=. c #F09E68",
"-. c #D8A97B",
";. c #CAB774",
":. c #EDAB6F",
">. c #FFAA6C",
",. c #F2B76E",
"<. c #FFB96D",
"1. c #FFAE79",
"2. c #EFB87D",
"3. c #FFB97B",
"4. c #FFCB41",
"5. c #FFC450",
"6. c #FFC55F",
"7. c #FFD35E",
"8. c #FFE24A",
"9. c #DBD273",
"0. c #F2C46F",
"q. c #FFC66F",
"w. c #EBDE6F",
"e. c #F2D569",
"r. c #F0C37E",
"t. c #FFC57B",
"y. c #EBD17E",
"u. c #EBDF7F",
"i. c #FFD270",
"p. c #FFD37E",
"a. c #FFE162",
"s. c #FFEC62",
"d. c #F0E66C",
"f. c #FEFA61",
"g. c #E2E774",
"h. c #E5EA7F",
"j. c #FFE071",
"k. c #FFEC71",
"l. c #FFE07F",
"z. c #FEFB74",
"x. c #F5F37B",
"c. c #B3AD84",
"v. c #C69480",
"b. c #C4B884",
"n. c #CCBE98",
"m. c #FFBB86",
"M. c #F2B68B",
"N. c #D6C389",
"B. c #DBD487",
"V. c #EBCF8E",
"C. c #F1C38D",
"Z. c #FFC689",
"A. c #FFD48C",
"S. c #E4C69B",
"D. c #EFCF9A",
"F. c #EBDF9B",
"G. c #FFD599",
"H. c #FFDF9C",
"J. c #E9E08E",
"K. c #EFEA8D",
"L. c #F2EB82",
"P. c #FFEC80",
"I. c #FFE08E",
"U. c #FFEB8D",
"Y. c #FEFC80",
"T. c #F9F288",
"R. c #FFF688",
"E. c #FEFE8A",
"W. c #F1E99D",
"Q. c #FFEB9C",
"!. c #F7F294",
"~. c #FFF492",
"^. c #F7FA92",
"/. c #FEFD93",
"(. c #F7F79A",
"). c #FFF59A",
"_. c #FEFE9B",
"`. c #DFD2A0",
"'. c #EDD3AC",
"]. c #FCD4AB",
"[. c #F0DEAA",
"{. c #F3DFBA",
"}. c #FFE3A8",
"|. c #F2E9AA",
" X c #FEEEAA",
".X c #F8F2A0",
"XX c #FFF5A1",
"oX c #FEF7A7",
"OX c #FAFBA3",
"+X c #FEFEA2",
"@X c #FFF6AF",
"#X c #FEFEA9",
"$X c #FAFBAE",
"%X c #FEFEAF",
"&X c #F4EAB6",
"*X c #FDEBBA",
"=X c #FAF3B1",
"-X c #FEF6B6",
";X c #FEFEB6",
":X c #F9F3BC",
">X c #FFF6BD",
",X c #FEFEBD",
"<X c #F3E5C7",
"1X c #FEECC6",
"2X c #F8F4C2",
"3X c #FFF6C2",
"4X c #FEFEC3",
"5X c #FEF7CB",
"6X c #FFFDCA",
"7X c #F6E5D2",
"8X c #FFF1D2",
"9X c #FFFED4",
"0X c #FEF5E1",
"qX c #FFFEE1",
"wX c #FFFFEC",
"eX c #FFFFF6",
"rX c white",
"tX c None",
/* pixels */
"tXtXtXtXtXtXtXtXtXtXtXtXtXtXtXtXtXtXtXtXtXtXtXtXtXtXtXtXtXtXtXtXtXtXtXtXtXtXtXtXtXtXtXtXtXtXtXtXtXtXtXtXtXtXtXtXtXtXtXtXtXtXtXtX",
"tXtXtXtXtXtXtXtXtXtXtXtXtXtXtXtXtXtXtXtXtXtXtXtXtXtXtXtXtXtXtXtXtXtXtXtXtXtXtXtXtXtXtXtXtXtXtXtXtXtXtXtXtXtXtXtXtXtXtXtXtXtXtXtX",
"tXtXtXtXtXtXtXtXtXtXtXtXtXtXtXtXtXtXtXtXtXtXtXtXtXtXtXtXtXtXtXtXtXtXtXtXtXtXtXtXtXtXtXtXtXtXtXtXtXtXtXtXtXtXtXtXtXtXtXtXtXtXtXtX",
"tXtXtXtXtXtXtXtXtXtXtXtXtXtXtXtXtXtXtXtXtXtXtXtXtXtXtXtXtXtXtXtXtXtXtXtXtXtXtXtXtXtXtXtXtXtXtXtXtXtXtXtXtXtXtXtXtXtXtXtXtXtXtXtX",
"tXtXtXtXtXtXtXtXtXtXtXtXtXtXtXtXtXtXtXtXtXtXtXtXtXtXtXtXtXtXtXtXtXtXtXtXtXtXtXtXtXtXtXtXtXtXtXtXtXtXtXtXtXtXtXtXtXtXtXtXtXtXtXtX",
"tXtXtXtXtXtXtXtXtXtXtXtXtXtXtXtXtXtXtXtXtXtXtXtXtXtXtXtXtXtXtXtXtXtXtXtXtXtXtXtXtXtXtXtXtXtXtXtXtXtXtXtXtXtXtXtXtXtXtXtXtXtXtXtX",
"tXtXtXtXtXtXtXtXtXtXtXtXtXtXtXtXtXtXtXtXtXtXtXtXtXtXtXtXtXtXtXtXtXtXtXtX, tXtXtXtXtXtXtXtXtXtXtXtXtXtXtXtXtXtXtXtXtXtXtXtXtXtXtX",
"tXtXtXtXtXtXtXtXtXtXtXtXtXtXtXtXtXtXtXtXtXtXtXtXtXtXtXtXtXtXtXtXtX, , , , , , tXtXtXtXtXtXtXtX: : : tXtXtXtXtXtXtXtXtXtXtXtXtXtX",
"tXtXtXtXtXtXtXtXtXtXtXtXtXtXtXtXtXtXtXtXtXtXtXtXtXtXtXtXtX, tX, < , , , tX, : : : tXtXtXtXtX: tX: : tXtXtXtXtXtXtXtXtXtXtXtXtXtX",
"tXtXtXtXtXtXtXtXtXtXtXtXtXtXtXtXtXtXtXtXtXtXtXtXtXtXtXtX, , tX< < tXtX< , , & , : < : , tX: : : : : tXtXtXtXtXtXtXtXtXtXtXtXtXtX",
"tXtXtXtXtXtXtXtXtXtXtXtXtXtXtXtXtXtXtXtXtXtXtXtXtXtXtX, , : tXtX3 tX, , , < & < r , , : , : : : : tXtXtXtXtXtXtXtXtXtXtXtXtXtXtX",
"tXtXtXtXtXtXtXtXtXtXtXtXtXtXtXtXtXtXtXtXtXtXtXtXtX, tX, r a < < , tXtXtX: a x y a : , & , : : 3 : tXtXtXtXtXtXtXtXtXtXtXtXtXtXtX",
"tXtXtXtXtXtXtXtXtXtXtXtXtXtXtXtXtXtXtXtXtXtXtXtXtXtX, , : ~ x i & , tXtX, < b h < O : t < & & a y 1 tXtXtXtXtXtXtXtXtXtXtXtXtXtX",
"tXtXtXtXtXtXtXtXtXtXtXtXtXtXtXtXtXtXtXtX, tXtXtX& : , # @ : z v r , @ tX# g h x b h * / / , : : s , tXtXtXtXtXtXtXtXtXtXtXtXtXtX",
"tXtXtXtXtXtXtXtXtXtXtXtXtXtXtXtXtXtXtXtX: : < < x , , v , b v x t < D k ) t L P P J P #.~ < , & r  .< 3 3 tXtXtXtXtXtXtXtXtXtXtX",
"tXtXtXtXtXtXtXtXtXtXtXtXtXtXtXtXtXtXtXtX& x g i u z x @.[ ` I b S A T C.q._ +.o.U P I o.P t z r , < y , 3 y tXtXtXtXtXtXtXtXtXtX",
"tXtXtXtXtXtXtXtXtXtXtXtXtXtXtXtXtXtXtXtX& t a g : # z ` I I P 6.#.<.j.p.r.s.e.W ;.] P P P J / x * z z , s , tXtXtXtXtXtXtXtXtXtX",
"tXtXtXtXtXtXtXtXtXtXtXtXtXtXtXtXtXtXtX& u g r y & d i w o.R.z.s.s.Y.z.E._.#XE.;.x.g.e.4.Y U 6.U b x @.[ b y : & tXtXtXtXtXtXtXtX",
"tXtXtXtXtXtXtXtXtXtXtXtXtXtXtXtXtXtX: < b 1 < i v J  .I k.s.s.E.z.Y.Y.OX+XOX!.L.J.B.h.w.7.a.i.6.+.[ #.[ [ / & & tXtXtXtXtXtXtXtX",
"tXtXtXtXtXtXtXtXtXtXtXtXtXtXtXtXtXtX: y ` b 6  .@.U <.+.6.7.j.E.L.N.u._.oX|.[.F.B.J.K.l.y.z.+.>.*.I #.#./ / < + tXtXtXtXtXtXtXtX",
"tXtXtXtXtXtXtXtXtXtXtXtXtXtXtXtXtXtX, v ~ J [ [ 5.5.5.5.7.e.T c.R B.`.,X6XK.K.|.;X,X)..XF.A.#X_.5.i.6.@.[ ` r o + tXtXtXtXtXtXtX",
"tXtXtXtXtXtXtXtXtXtXtXtXtXtXtXtXtX, u O w I #.6.Y K 7.j.d.Y.B R I.-XT 9X8X!.f.E.#X;XE./.|./.P.OXa.a.o.o.#.' j 1 & tXtX+ & tXtXtX",
"tXtXtXtXtXtXtXtXtXtXtXtXtXtXtXtXtX< , i P P [ +.#.j.7.z.x.^.c.N.9XR E 6X;X;.9.!.R.OXoX&X;X!.E.Y.R.a.a.7.j.#.f z , & tXtXtXtXtXtX",
"tXtXtXtXtXtXtXtXtXtXtXtXtXtX< 3 < < # q P J U U s.Y.k.Y.Y.!.J.-.-.c.b.0X3XH.S.V.[. X4Xn.N.;X#Xz.z./.Y.o.#.` b a F s y tXtXtXtXtX",
"tXtXtXtXtXtXtXtXtXtXtXtXtXtX3 i , @ # J U K 4.f.f.z.z.f.OXL._.`.b.|.9X{.F.[.J.S.[.c.*Xc.qX6X9X/.E.a.E.o.#.^ / c , 3 y tXtXtXtXtX",
"tXtXtXtXtXtXtXtXtXtXtXtXtXtX< < = t q +.Y.Y.Y.Y.z.z.f.E.+X6X9X;X,X-X<X2X{.&XwX-XN.W.%X|.6X,X6X/.4.z.R.#.b t.=.^ , 3 tXtXtXtXtXtX",
"tXtXtXtXtXtXtXtXtXtXtXtXtXtX, , u o.+.o.a._.z.Y.z.E.Y.E._.9X3X6X,X9X`.*XS.B S.n.B [.`.`.{.7X&XY.i.Y.6.R.o.@.<.G # tXtXy tXtXtXtX",
"tXtXtXtXtXtXtXtXtXtXtXtXtXtX, v P U +.6.j.f.f.Y././.#X,XG.@X].H.3X].].6X'.S.R W n.n.;XqX<X|..X_.Y.R.7.E.b v ..v < y y tXtXtXtXtX",
"tXtXtXtXtXtXtXtXtXtXtXtX# < b / q U ` X.6.2.z./._._.Q.G.%X}.I.}.rX0X8XqX].3X'.1X1X&X{.3X:X:X&XoX/.#XT.+.'  .@.v p tXtXtXtXtXtXtX",
"tXtXtXtXtXtXtXtXtXtXtX< , / I L P J &.%.<.P.Y.;X%X;X}. X4X4X3X X9X9X5X1X:X X].<X{.b.+X|.W.:X6X(./.~.+Xi.i.#.o.r , 3 tXtXtXtXtXtX",
"tXtXtXtXtXtXtXtXtXtXtX, : v P q J z.I.&.1.f._.;X4X|.[.@X-X5XqX;X[.6XwX4X4X4X1X:XR R N.OX[.$X-X.X+X/.+X%X;X;X3.1 tXtXtXtXtXtXtXtX",
"tXtXtXtXtXtXtXtXtXtXtX# @ q P 9 5.Y.#.1.t.E.#X+XoXS.Z.G.$X>X=X9XwX6X0XeX6X1XqX;XQ.6X`.[..X;X#X%X6X_.U.).p.A.Z.& tXtXtXtXtXtXtXtX",
"tXtXtXtXtXtXtXtXtXtXtX# @ P J 0 #./ ~ +.p.H._.F.XXF.-.>X-X4XqX$XrX9X9X3X5XS.3XqX9X&Xn._._.).$X;X~.U.q.A.t.*.A.2 : tXtXtXtXtXtXtX",
"tXtXtXtXtXtXtXtXtXtXtX# % 0 0 o.I / { <.<.~.N.b.;XU.D.%.Z.4XXXwX6X2X{.6XG.S.W '.b. X-.E.+X).;X/./.).Y.U.3.3.A .., tXtXtXtXtXtXtX",
"tXtXtXtXtXtXtXtXtXtXtX# # # 6 L | / _ @.1.k.Y./.Q.S.G.G.4X}.Q.4X6X*XC.Q.F.`.C.n.[..X;X/.+X9X,X/.;X~.).OXH.>.*.d , tXtXtXtXtXtXtX",
"tXtXtXtXtXtXtXtXtXtXtX# , # @ q v ^ @.i.E F.z.E.L.U.%X$X-X;X$X%XwX].[.6X{.-.}.{.`.2X+X%X+XOX%XoX%XZ..X,X#Xo.z p 3 tXtXtXtXtXtXtX",
"tXtXtXtXtXtXtXtXtXtXtXtX# # $ @ p / P.D.v.G.(./.;X_.R._._.D.$X9X6XD.wX'.D.3XI.;XqX4X;XU.)._.~.+XXX>.~.#X6.g , , C tXtXtXtXtXtXtX",
"tXtXtXtXtXtXtXtXtXtXtXtX# # # O , g j.:.-.r./.;X%Xz.OX/.D.+X%X6X&X,X-.D.4X;XS.F.,XqX%XT.+XY.P.Q.C.p.i.q.<.[ ~ s tXtXtXtXtXtXtXtX",
"tXtXtXtXtXtXtXtXtXtXtXtX# & # O # ` x 0.R V T.$X#Xx.).+XR /.;X;X;X-X8X`.`.[.6XN.,X%X#X#X_.R.R.Q.G.r.q.o.#.<.` 3 tXtXtXtXtXtXtXtX",
"tXtXtXtXtXtXtXtXtXtXtXtXtX: & r z b #.6.6.5.P.T.u.z.#X).J./. X,X4X9X6X=X[.{.<X0X,X#X%X,X#X).Y./.i.U P / <.H c H tXtXtXtXtXtXtXtX",
"tXtXtXtXtXtXtXtXtXtXtXtXtXtX< & g b @.[ ) 5._.a.p.i./.+X.X/.%X@X,XqX4X;X,X9XqX9X9X+X#X;XXX^././.#.j 7 s <.* y tXtXtXtXtXtXtXtXtX",
"tXtXtXtXtXtXtXtXtXtXtXtXtXtX& : : g / f _ #.7.U.U.,.2._._.XX$X;X,X4XrXeX6X,X4X#X+X_.).~.Z.E.T.i.k.P.p. .[ ^ , tXtXtXtXtXtXtXtXtX",
"tXtXtXtXtXtXtXtXtXtXtXtXtXtXtX& : b + O x ` #.p.M.I.A.~.Y._.+X+X+X_.E.%X,X;X%X/.z.+XH.2.r.%.@.p.@.<.<.[ b tXtXtXtXtXtXtXtXtXtXtX",
"tXtXtXtXtXtXtXtXtXtXtXtXtXtXtX& : b + o e j l [ l.A.&.3.j.~._.OX/.~.E.Y._.%X/.I.U.).m.>.T V i.@.@.>.z d , tXtXtXtXtXtXtXtXtXtXtX",
"tXtXtXtXtXtXtXtXtXtXtXtXtXtXtX+   * a . e r * 8 v 3.%.N.Z.P._.H.m.XX#XY.E.+XY./.!.}._.j.1.3.@.) 4 u m tXtXtXtXtXtXtXtXtXtXtXtXtX",
"tXtXtXtXtXtXtXtXtXtXtXtXtXtXtXtXtX+ , + X : g t H 1.t.c.-.v.C.v.A.z.z.f.f.f.f.R.p.U.+X).>.} } n n n tXtXtXtXtXtXtXtXtXtXtXtXtXtX",
"tXtXtXtXtXtXtXtXtXtXtXtXtXtXtXtXtX+ + + O o X X 3 %.&.O.0.V.2.y.Q._.Y.z.z.f.z./._./.I.A.1.&.>.2 2 tXtXtXtXtXtXtXtXtXtXtXtXtXtXtX",
"tXtXtXtXtXtXtXtXtXtXtXtXtXtXtXtXtXtXtXtXtXtX@ O 5 V T &.-.V.P.k.K.B.L.Y.z.s.s.Y.Y.q.` <.H.T M n tXtXtXtXtXtXtXtXtXtXtXtXtXtXtXtX",
"tXtXtXtXtXtXtXtXtXtXtXtXtXtXtXtXtXtXtXtXtXtXtX# < Q | %.V ,.R.j.Y.T d.E.f.8.s.Y.5.#.@.) N N * tXtXtXtXtXtXtXtXtXtXtXtXtXtXtXtXtX",
"tXtXtXtXtXtXtXtXtXtXtXtXtXtXtXtXtXtXtXtXtXtXtX: - ' ` *.( +.k.k.Y.+X~.f.s.f./.z.7.[ d y , , tXtXtXtXtXtXtXtXtXtXtXtXtXtXtXtXtXtX",
"tXtXtXtXtXtXtXtXtXtXtXtXtXtXtXtXtXtXtXtXtXtXtXn M ; c &.! J i.j.k.7.Q.j.s.z.k.7.b a r r 3 tXtXtXtXtXtXtXtXtXtXtXtXtXtXtXtXtXtXtX",
"tXtXtXtXtXtXtXtXtXtXtXtXtXtXtXtXtXtXtXtXtXtXtXtXB > 2 Z Z $...t.@.6.4.+.4.z.o.o.` g : y tXtXtXtXtXtXtXtXtXtXtXtXtXtXtXtXtXtXtXtX",
"tXtXtXtXtXtXtXtXtXtXtXtXtXtXtXtXtXtXtXtXtXtXtXtXtXtX> Z y 4 p ( q [ U 4.+.6.+.I ` # tXtXtXtXtXtXtXtXtXtXtXtXtXtXtXtXtXtXtXtXtXtX",
"tXtXtXtXtXtXtXtXtXtXtXtXtXtXtXtXtXtXtXtXtXtXtXtXtXtXtX> 4 N Q d @ 9 q I 6.I P b r tXtXtXtXtXtXtXtXtXtXtXtXtXtXtXtXtXtXtXtXtXtXtX",
"tXtXtXtXtXtXtXtXtXtXtXtXtXtXtXtXtXtXtXtXtXtXtXtXtXtXtXtX> 3 @ # # $ @ g I #.` z < tXtXtXtXtXtXtXtXtXtXtXtXtXtXtXtXtXtXtXtXtXtXtX",
"tXtXtXtXtXtXtXtXtXtXtXtXtXtXtXtXtXtXtXtXtXtXtXtXtXtXtXtXtXtX, # , # # # ~ h i tXtXtXtXtXtXtXtXtXtXtXtXtXtXtXtXtXtXtXtXtXtXtXtXtX",
"tXtXtXtXtXtXtXtXtXtXtXtXtXtXtXtXtXtXtXtXtXtXtXtXtXtXtXtXtXtXtX# # tXtXtXtXtXtXtXtXtXtXtXtXtXtXtXtXtXtXtXtXtXtXtXtXtXtXtXtXtXtXtX",
"tXtXtXtXtXtXtXtXtXtXtXtXtXtXtXtXtXtXtXtXtXtXtXtXtXtXtXtXtXtXtXtXtXtXtXtXtXtXtXtXtXtXtXtXtXtXtXtXtXtXtXtXtXtXtXtXtXtXtXtXtXtXtXtX",
"tXtXtXtXtXtXtXtXtXtXtXtXtXtXtXtXtXtXtXtXtXtXtXtXtXtXtXtXtXtXtXtXtXtXtXtXtXtXtXtXtXtXtXtXtXtXtXtXtXtXtXtXtXtXtXtXtXtXtXtXtXtXtXtX",
"tXtXtXtXtXtXtXtXtXtXtXtXtXtXtXtXtXtXtXtXtXtXtXtXtXtXtXtXtXtXtXtXtXtXtXtXtXtXtXtXtXtXtXtXtXtXtXtXtXtXtXtXtXtXtXtXtXtXtXtXtXtXtXtX",
"tXtXtXtXtXtXtXtXtXtXtXtXtXtXtXtXtXtXtXtXtXtXtXtXtXtXtXtXtXtXtXtXtXtXtXtXtXtXtXtXtXtXtXtXtXtXtXtXtXtXtXtXtXtXtXtXtXtXtXtXtXtXtXtX",
"tXtXtXtXtXtXtXtXtXtXtXtXtXtXtXtXtXtXtXtXtXtXtXtXtXtXtXtXtXtXtXtXtXtXtXtXtXtXtXtXtXtXtXtXtXtXtXtXtXtXtXtXtXtXtXtXtXtXtXtXtXtXtXtX",
"tXtXtXtXtXtXtXtXtXtXtXtXtXtXtXtXtXtXtXtXtXtXtXtXtXtXtXtXtXtXtXtXtXtXtXtXtXtXtXtXtXtXtXtXtXtXtXtXtXtXtXtXtXtXtXtXtXtXtXtXtXtXtXtX",
"tXtXtXtXtXtXtXtXtXtXtXtXtXtXtXtXtXtXtXtXtXtXtXtXtXtXtXtXtXtXtXtXtXtXtXtXtXtXtXtXtXtXtXtXtXtXtXtXtXtXtXtXtXtXtXtXtXtXtXtXtXtXtXtX"
};
