/* XPM */
static char *result[] = {
/* columns rows colors chars-per-pixel */
"64 64 217 2 ",
"   c #711E05",
".  c #7F2608",
"X  c #7E3F29",
"o  c #822C0F",
"O  c #8D320D",
"+  c #9B370E",
"@  c #8F3717",
"#  c #943F10",
"$  c #9D3D19",
"%  c #AC3E1A",
"&  c #A0430E",
"*  c #AD4A0C",
"=  c #BA4C0E",
"-  c #B9580E",
";  c #A0451E",
":  c #BA4C1F",
">  c #8D4225",
",  c #814835",
"<  c #AC4A20",
"1  c #A04E2F",
"2  c #B15323",
"3  c #BB5825",
"4  c #BB502C",
"5  c #A55C3E",
"6  c #BB5C31",
"7  c #BB6837",
"8  c #B9613D",
"9  c #C84E0F",
"0  c #C55F0F",
"q  c #D45F11",
"w  c #E35F16",
"e  c #E36E18",
"r  c #F26217",
"t  c #F47118",
"y  c #FF731C",
"u  c #C94F20",
"i  c #C95A23",
"p  c #D75C25",
"a  c #C85F31",
"s  c #F45F25",
"d  c #CA6625",
"f  c #D76B27",
"g  c #CC6A38",
"h  c #D86130",
"j  c #D86D36",
"k  c #E56024",
"l  c #E66A28",
"z  c #F16E2C",
"x  c #FF6F29",
"c  c #E86231",
"v  c #E66D35",
"b  c #F66F34",
"n  c #E67A39",
"m  c #F37A37",
"M  c #FF7D36",
"N  c #855745",
"B  c #B96A47",
"V  c #A06C55",
"C  c #BE7352",
"Z  c #817270",
"A  c #AA7D66",
"S  c #C86241",
"D  c #CA6D46",
"F  c #CB784E",
"G  c #D77045",
"H  c #D77C4E",
"J  c #E67043",
"K  c #ED754F",
"L  c #E57D4A",
"P  c #F27F49",
"I  c #FF8226",
"U  c #F38837",
"Y  c #FF8D33",
"T  c #FF9B3A",
"R  c #FFA93D",
"E  c #FFBD33",
"W  c #FFB63B",
"Q  c #9C8A79",
"!  c #AA9C7D",
"~  c #ADA075",
"^  c #BBA47F",
"/  c #DC8A5D",
"(  c #FF8246",
")  c #FB8843",
"_  c #FF8942",
"`  c #FB894F",
"'  c #FF8B4F",
"]  c #FB9044",
"[  c #FF9144",
"{  c #FC904F",
"}  c #F59A4D",
"|  c #FF9C4B",
" . c #E88853",
".. c #F18C50",
"X. c #E69753",
"o. c #FF9252",
"O. c #F2975D",
"+. c #F8915A",
"@. c #FF9C5A",
"#. c #F6A84D",
"$. c #FFAA4C",
"%. c #F6B14F",
"&. c #FFB84E",
"*. c #F1AC5D",
"=. c #FFAA5D",
"-. c #EEB75F",
";. c #FFB75E",
":. c #C28461",
">. c #C3986F",
",. c #DE9D65",
"<. c #FF9F67",
"1. c #F09E68",
"2. c #DFB86F",
"3. c #D8A97B",
"4. c #CAB774",
"5. c #EDAB6F",
"6. c #FFAA6C",
"7. c #F2B76E",
"8. c #FFB96D",
"9. c #FFAE79",
"0. c #EFB87D",
"q. c #FFB97B",
"w. c #FFCB41",
"e. c #FFC450",
"r. c #FFC55F",
"t. c #FFD35E",
"y. c #FFE24A",
"u. c #DBD273",
"i. c #EDC462",
"p. c #F2C46F",
"a. c #FFC66F",
"s. c #F0CF6F",
"d. c #EBDE6F",
"f. c #F2D569",
"g. c #F0C37E",
"h. c #FFC57B",
"j. c #EBD17E",
"k. c #EBDF7F",
"l. c #FFD270",
"z. c #FFD37E",
"x. c #FFE162",
"c. c #FFEC62",
"v. c #F0E66C",
"b. c #FEFA61",
"n. c #E2E774",
"m. c #E5EA7F",
"M. c #FFE071",
"N. c #F1EA70",
"B. c #FFEC71",
"V. c #FFE07F",
"C. c #FEFB74",
"Z. c #F5F37B",
"A. c #B3AD84",
"S. c #C69480",
"D. c #C4B884",
"F. c #CCBE98",
"G. c #FFBB86",
"H. c #F2B68B",
"J. c #D6C389",
"K. c #DBD487",
"L. c #EBCF8E",
"P. c #F1C38D",
"I. c #FFC689",
"U. c #FFD48C",
"Y. c #E4C69B",
"T. c #EFCF9A",
"R. c #EBDF9B",
"E. c #FFD599",
"W. c #FFDF9C",
"Q. c #E9E08E",
"!. c #EFEA8D",
"~. c #F2EB82",
"^. c #FFEC80",
"/. c #FFE08E",
"(. c #FFEB8D",
"). c #FEFC80",
"_. c #F9F288",
"`. c #FFF688",
"'. c #FEFE8A",
"]. c #F1E99D",
"[. c #FFEB9C",
"{. c #F7F294",
"}. c #FFF492",
"|. c #F7FA92",
" X c #FEFD93",
".X c #F7F79A",
"XX c #FFF59A",
"oX c #FEFE9B",
"OX c #DFD2A0",
"+X c #EDD3AC",
"@X c #FCD4AB",
"#X c #F0DEAA",
"$X c #FFE3A8",
"%X c #F2E9AA",
"&X c #FEEEAA",
"*X c #F8F2A0",
"=X c #FFF5A1",
"-X c #FEF7A7",
";X c #FAFBA3",
":X c #FEFEA2",
">X c #FFF6AF",
",X c #FEFEA9",
"<X c #FAFBAE",
"1X c #FEFEAF",
"2X c #F4EAB6",
"3X c #FDEBBA",
"4X c #FAF3B1",
"5X c #FEF6B6",
"6X c #FEFEB6",
"7X c #FFF6BD",
"8X c #FEFEBD",
"9X c #F8F4C2",
"0X c #FEFEC3",
"qX c #FFFDCA",
"wX c #FFFED4",
"eX c #FFFEE1",
"rX c None",
/* pixels */
"rXrXrXrXrXrXrXrXrXrXrXrXrXrXrXrXrXrXrXrXrXrXrXrXrXrXrXrXrXrXrXrXrXrXrXrXrXrXrXrXrXrXrXrXrXrXrXrXrXrXrXrXrXrXrXrXrXrXrXrXrXrXrXrX",
"rXrXrXrXrXrXrXrXrXrXrXrXrXrXrXrXrXrXrXrXrXrXrXrXrXrXrXrXrXrXrXrXrXrXrXrXrXrXrXrXrXrXrXrXrXrXrXrXrXrXrXrXrXrXrXrXrXrXrXrXrXrXrXrX",
"rXrXrXrXrXrXrXrXrXrXrXrXrXrXrXrXrXrXrXrXrXrXrXrXrXrXrXrXrXrXrXrXrXrXrXrXrXrXrXrXrXrXrXrXrXrXrXrXrXrXrXrXrXrXrXrXrXrXrXrXrXrXrXrX",
"rXrXrXrXrXrXrXrXrXrXrXrXrXrXrXrXrXrXrXrXrXrXrXrXrXrXrXrXrXrXrXrXrXrXrXrXrXrXrXrXrXrXrXrXrXrXrXrXrXrXrXrXrXrXrXrXrXrXrXrXrXrXrXrX",
"rXrXrXrXrXrXrXrXrXrXrXrXrXrXrXrXrXrXrXrXrXrXrXrXrXrXrXrXrXrXrXrXrXrXrXrXrXrXrXrXrXrXrXrXrXrXrXrXrXrXrXrXrXrXrXrXrXrXrXrXrXrXrXrX",
"rXrXrXrXrXrXrXrXrXrXrXrXrXrXrXrXrXrXrXrXrXrXrXrXrXrXrXrXrXrXrXrXrXrXrXrXrXrXrXrXrXrXrXrXrXrXrXrXrXrXrXrXrXrXrXrXrXrXrXrXrXrXrXrX",
"rXrXrXrXrXrXrXrXrXrXrXrXrXrXrXrXrXrXrXrXrXrXrXrXrXrXrXrXrXrXrXrXrXrX< < < ; rXrXrXrXrXrXrXrXrXrXrXrXrXrXrXrXrXrXrXrXrXrXrXrXrXrX",
"rXrXrXrXrXrXrXrXrXrXrXrXrXrXrXrXrXrXrXrXrXrXrXrXrXrXrXrXrXrXrXrX< ; ; rXrXrX; rXrXrXrXrXrXrXrXrX$ $ rXrXrXrXrXrXrXrXrXrXrXrXrXrX",
"rXrXrXrXrXrXrXrXrXrXrXrXrXrXrXrXrXrXrXrXrXrXrXrXrXrXrXrX< ; rX< < < < rXrXrX; $ ; $ rXrXrXrXrX; $ < rXrXrXrXrXrXrXrXrXrXrXrXrXrX",
"rXrXrXrXrXrXrXrXrXrXrXrXrXrXrXrXrXrXrXrXrXrXrXrXrXrXrXrX< rXrX< < rXrX< < ; $ ; < 3 $ ; ; $ ; ; $ rXrXrXrXrXrXrXrXrXrXrXrXrXrXrX",
"rXrXrXrXrXrXrXrXrXrXrXrXrXrXrXrXrXrXrXrXrXrXrXrXrXrXrXrX< ; ; < < rXrX< < ; ; ; 2 ; ; ; ; $ $ ; ; rXrXrXrXrXrXrXrXrXrXrXrXrXrXrX",
"rXrXrXrXrXrXrXrXrXrXrXrXrXrXrXrXrXrXrXrXrXrXrXrXrXrXrXrX< 2 i < ; rXrXrXrX< h $ 2 # $ ; ; $ ; $ ; rXrXrXrXrXrXrXrXrXrXrXrXrXrXrX",
"rXrXrXrXrXrXrXrXrXrXrXrXrXrXrXrXrXrXrXrXrXrXrXrXrXrX& rX& i a 3 ; < rXrX& ; u p # % # ; ; $ ; $ ; < rXrXrXrXrXrXrXrXrXrXrXrXrXrX",
"rXrXrXrXrXrXrXrXrXrXrXrXrXrXrXrXrXrXrXrXrXrXrXrX& & & & # < p l 3 < # # & & p s 3 z : [ 3 < ; $ $ h 6 3 3 rXrXrXrXrXrXrXrXrXrXrX",
"rXrXrXrXrXrXrXrXrXrXrXrXrXrXrXrXrXrXrXrX; < ; 2 p 2 ; m : l M p = - B ` 9 p Y M _ k x [ 3 ; * < ; 3 _ 1 S < rXrXrXrXrXrXrXrXrXrX",
"rXrXrXrXrXrXrXrXrXrXrXrXrXrXrXrXrXrXrXrX; : 2 2 & i i _ s I s r B :.:.6.<.] ] /  .U t M l < # ; ; $ v 2 2 6 rXrXrXrXrXrXrXrXrXrX",
"rXrXrXrXrXrXrXrXrXrXrXrXrXrXrXrXrXrXrXrX# ; : 3 * # 9 x e T R &.R R &.r.2.t.r.>.>.X.m Y T l p u i h z b c a rXrXrXrXrXrXrXrXrXrX",
"rXrXrXrXrXrXrXrXrXrXrXrXrXrXrXrXrXrXrX< 2 < i 6 # g 0 y R #.&.e.e.x.t.B.~. X).f.x.u.*.} Y R ;._ M l [ =._ h # @ rXrXrXrXrXrXrXrX",
"rXrXrXrXrXrXrXrXrXrXrXrXrXrXrXrXrXrX< v m p & f k 9 ` [ #.R R s.t.x.x.Z.oX{._.m.4.n.2.*.*.$.$.| _ c ] [ M m a @ rXrXrXrXrXrXrXrX",
"rXrXrXrXrXrXrXrXrXrXrXrXrXrXrXrXrXrX< _ _ M f ( =.| [ ] T X.5.i.4.Q ~ ).!.Q.OXK.~.k.^.p.,.s.r.@.=._ | | [ M i $ $ rXrXrXrXrXrXrX",
"rXrXrXrXrXrXrXrXrXrXrXrXrXrXrXrXrX2 l p M m =.T T R T U #.*.Z Q ! C.J.oX-X).i.C.oX:XB. XV.P.U.V.T ;.=._ =.M b @ @ rXrXrXrXrXrXrX",
"rXrXrXrXrXrXrXrXrXrXrXrXrXrXrXrXrXi i # p Y ;.T Y Y %.*.&.v.! ^ '.{.Z .XOXu.t.v.Z.oX).s.R. Xr./.t.&.&.[ | [ b : < rXrXrXrXrXrXrX",
"rXrXrXrXrXrXrXrXrXrXrXrXrXrXrXrXrX< # z M t I [ ;.l.#.$.x.n.j.4.:X~ Z A..Xd.^ V.~. XoX,X!.!.).e.r.B.t.| $.| h : 4 2 2 rXrXrXrXrX",
"rXrXrXrXrXrXrXrXrXrXrXrXrXrXrXrXrX2 2 y I x Y Y &.B.%.i.v.N.d.Z L.^ ~ F.Q.u.Q J.K.K.R.! D.oX:Xc.e.t.t.M.b = # i 2 a 3 2 rXrXrXrX",
"rXrXrXrXrXrXrXrXrXrXrXrXrXrXrX< & O * T Y Y W y.x.r.t.y.).d.`.^.D.D.J.J.k.!.N.A.K.Q !.^ *XoX Xc.c.&.a.$._ 7 [ k < 2 3 rXrXrXrXrX",
"rXrXrXrXrXrXrXrXrXrXrXrXrXrX< ; & m l =.M.).C.C.y.b.b.b.C. X'.'.Y.L.Q.k.R.D.,X[.A.J.!.F.{.OX_.).T &.&.$.y _ =.j ; 2 rXrXrXrXrXrX",
"rXrXrXrXrXrXrXrXrXrXrXrXrXrX; 3 M Y _ | t.C.b.b.C.c.b.C.b.,X}.W.(.XX!.J.~ Q A.^ Z D.J.D.F.2XF.e.=.;.I a.;.i O.6 & rXrXrX2 rXrXrX",
"rXrXrXrXrXrXrXrXrXrXrXrXrX# m i h T I $.$.W b.C.b.Z.C.U.0.L.U.W.$X@XY.].OXK.Q Q ! ^ {.2XR.Q.d.m.^.V.$.l.h d 1 2 : 3 6 6 rXrXrXrX",
"rXrXrXrXrXrXrXrXrXrX2 ; 2 b f 3 & q v | | 8.l.C.).'.2.^ /.$XP.W.0X3X$X%XJ.Q.Y.OXD.(.OXJ.].!.|.K.U.(.8.Y | n 8 p 3 a rXrXrXrXrXrX",
"rXrXrXrXrXrXrXrXrXrX< ; M M M l w I ! 1.<.c.C.:X X'.E.[.&X1X$X[.%X3X3XW.K.Y.J.R.!.A.d.{.K.Q.].!.B.V.8.l.8.=.u i * 2 6 rXrXrXrXrX",
"rXrXrXrXrXrXrXrXrXrX< < # z M * Y ;.O.,.8.y.).,X,X!.E.oX-XwX6X=XJ.$X0X/.#X2XOXR.! D.4.K.~.k.k..X^.a./.,XXX,Xz.v rXrXrXrXrXrXrXrX",
"rXrXrXrXrXrXrXrXrXrXrX& & ( l 9 ;.$.@.=.G.B.&X X}.! H.W.E.[.&X%X&X6X%XqX+X%X9XQ.K.F.J.4.k.Q._.;XoX X1Xh.l.9.U.8 rXrXrXrXrXrXrXrX",
"rXrXrXrXrXrXrXrXrXrXrX# l b * f P 3 P ' 9.l.'.Q.K._.E.&X1X4X8XE.eX&X1XL.%XL.-X;X,XXXK.d.).^._.1X(./.r.a.q.J 9.O.> $ rXrXrXrXrXrX",
"rXrXrXrXrXrXrXrXrXrXrX& 3 * * 2 G g D ` =.V.2.R.|.~.3.>.$X:XE.qX>XW.Y.6X! ! Q D.! K.Z ^.^. X X).).8.t.8.J O./ L 8 rXrXrXrXrXrXrX",
"rXrXrXrXrXrXrXrXrXrXrX& < & & 7 F j +.{ 6.-.r.2.u.T.T.P.,XE./.<X2X%XD.J.].^ S.D.J.Q. XV.).:X:X`.'.z.a.8.q.O./ ' ; < rXrXrXrXrXrX",
"rXrXrXrXrXrXrXrXrXrXrX< < & & # p ) $.] A z.l.t.d.j. X XoX:XE.;X7XF.J.=X%XZ K.J.J.*X)._.).`.oX_.oXI.9.&X[.@.v c a rXrXrXrXrXrXrX",
"rXrXrXrXrXrXrXrXrXrXrX< * & + , u _ 0./ :.*.d.|. X).~.C..X^ Q.*X6XJ.5XJ.J.J.K. X6X:X).V.U.'._.^.(.<.8./.=.M $ a ; a rXrXrXrXrXrX",
"rXrXrXrXrXrXrXrXrXrXrXrX& & # @ X G =.8 F  .!. X).).j.C.Z `. X,XK.*X~ K.J.Q.Q.J.:X,X Xz.'.c.a.h.U.@.) 8.=.| v h a rXrXrXrXrXrXrX",
"rXrXrXrXrXrXrXrXrXrXrXrX$ & $ rX< h J X.Z J i.(._.t.~.J.Z Z.,X'..X!.R.J.D.R.,XJ.}.'.`.^.l.M.;.z.9.1.{ | @.[ o.b > rXrXrXrXrXrXrX",
"rXrXrXrXrXrXrXrXrXrXrXrXrX$ + < < u o.| [ [ 7.5.7.&. X/.A.). X'.:X1X1X~.K.J.Y.*XoXoX`._.`.h.^.x.@.[ p M ] =.n _ rXrXrXrXrXrXrXrX",
"rXrXrXrXrXrXrXrXrXrXrXrXrX& < @ u p _ m k _ l.[ +.=.(.{.K.B. XXX'.1X6XoX).oX-X:X1X^.M.U.I.l.t.;.=.9 O 1 g u $ g rXrXrXrXrXrXrXrX",
"rXrXrXrXrXrXrXrXrXrXrXrXrXrX$ ; < m ( @ ( ;.$.=.9.L O.^.^.`.V. X,XoX8X0XoX,X X XC.).h.G.8.;.r.[ =.=.' 6 3 ( 1 2 rXrXrXrXrXrXrXrX",
"rXrXrXrXrXrXrXrXrXrXrXrXrXrXrX$ $ < o   o._ o.{ <.G.h.z.^.(. X'.'. X).oXoX XoXM.r.M.V.<.=.@.{ =.) @.<.M M 2 2 rXrXrXrXrXrXrXrXrX",
"rXrXrXrXrXrXrXrXrXrXrXrXrXrXrX@ ; : o .   $ h ;.8.6.P 8.;.z. X).^.M.V.).). X`.9.8.a.g. ...Z ' ( ` K j 2 < rXrXrXrXrXrXrXrXrXrXrX",
"rXrXrXrXrXrXrXrXrXrXrXrXrXrXrXrXO o o o @ o $ + J +./ ,.8.h.).z.9.I.'.b.C.b.x.M.a.9.r.[ L 1.( J g g S 1 4 rXrXrXrXrXrXrXrXrXrXrX",
"rXrXrXrXrXrXrXrXrXrXrXrXrXrXrXrXrXO @ O o @ @ . 6 :.:.5.>.>.9.S.8.l.b.b.b.b.w.e.@.8.r.8.<.O.L , N N rXrXrXrXrXrXrXrXrXrXrXrXrXrX",
"rXrXrXrXrXrXrXrXrXrXrXrXrXrXrXrXrXrX@ @ rXO O O 1 :. .X.Q ~ >.^ 2.V.c.x.y.W t.M.l.l.a.h.9.F ,.S N N rXrXrXrXrXrXrXrXrXrXrXrXrXrX",
"rXrXrXrXrXrXrXrXrXrXrXrXrXrXrXrXrXrXrXrXrXrX@ @ N V V +.=.s.a.l.4.N.b.w.y.W W e.r.;.' ( 9.Q Q N rXrXrXrXrXrXrXrXrXrXrXrXrXrXrXrX",
"rXrXrXrXrXrXrXrXrXrXrXrXrXrXrXrXrXrXrXrXrXrXrX+ 1 8 A A :.=.l.r.v.! -.B.W R I $.$.M o.( P Q $ rXrXrXrXrXrXrXrXrXrXrXrXrXrXrXrXrX",
"rXrXrXrXrXrXrXrXrXrXrXrXrXrXrXrXrXrXrXrXrXrXrX$ > D J / L $.t.x.x.4.%.$.e.R &.;.| | m 8 ; N rXrXrXrXrXrXrXrXrXrXrXrXrXrXrXrXrXrX",
"rXrXrXrXrXrXrXrXrXrXrXrXrXrXrXrXrXrXrXrXrXrXrXN V > n F H I E &.t.W l.$.W $.&.Y [ i $ 3 < rXrXrXrXrXrXrXrXrXrXrXrXrXrXrXrXrXrXrX",
"rXrXrXrXrXrXrXrXrXrXrXrXrXrXrXrXrXrXrXrXrXrXrX1 N 1 1 8 :.g o.r.;.R &.| T x.Y o.M p < 3 * rXrXrXrXrXrXrXrXrXrXrXrXrXrXrXrXrXrXrX",
"rXrXrXrXrXrXrXrXrXrXrXrXrXrXrXrXrXrXrXrXrXrXrXrXN rX1 8 < 5 2 L J R I x I Y _ b M ; & < rXrXrXrXrXrXrXrXrXrXrXrXrXrXrXrXrXrXrXrX",
"rXrXrXrXrXrXrXrXrXrXrXrXrXrXrXrXrXrXrXrXrXrXrXrXrXrXrX1 1 C B 7 . z I y T _ ( z p 2 rXrXrXrXrXrXrXrXrXrXrXrXrXrXrXrXrXrXrXrXrXrX",
"rXrXrXrXrXrXrXrXrXrXrXrXrXrXrXrXrXrXrXrXrXrXrXrXrXrXrXrX1 1 1 ; + O & p | _ z d ; < rXrXrXrXrXrXrXrXrXrXrXrXrXrXrXrXrXrXrXrXrXrX",
"rXrXrXrXrXrXrXrXrXrXrXrXrXrXrXrXrXrXrXrXrXrXrXrXrXrXrXrXrXrX+ & & $ o 3 M _ v < ; rXrXrXrXrXrXrXrXrXrXrXrXrXrXrXrXrXrXrXrXrXrXrX",
"rXrXrXrXrXrXrXrXrXrXrXrXrXrXrXrXrXrXrXrXrXrXrXrXrXrXrXrXrXrXrXrX$ rXrXrX* ; 3 rXrXrXrXrXrXrXrXrXrXrXrXrXrXrXrXrXrXrXrXrXrXrXrXrX",
"rXrXrXrXrXrXrXrXrXrXrXrXrXrXrXrXrXrXrXrXrXrXrXrXrXrXrXrXrXrXrXrXrXrXrXrXrXrXrXrXrXrXrXrXrXrXrXrXrXrXrXrXrXrXrXrXrXrXrXrXrXrXrXrX",
"rXrXrXrXrXrXrXrXrXrXrXrXrXrXrXrXrXrXrXrXrXrXrXrXrXrXrXrXrXrXrXrXrXrXrXrXrXrXrXrXrXrXrXrXrXrXrXrXrXrXrXrXrXrXrXrXrXrXrXrXrXrXrXrX",
"rXrXrXrXrXrXrXrXrXrXrXrXrXrXrXrXrXrXrXrXrXrXrXrXrXrXrXrXrXrXrXrXrXrXrXrXrXrXrXrXrXrXrXrXrXrXrXrXrXrXrXrXrXrXrXrXrXrXrXrXrXrXrXrX",
"rXrXrXrXrXrXrXrXrXrXrXrXrXrXrXrXrXrXrXrXrXrXrXrXrXrXrXrXrXrXrXrXrXrXrXrXrXrXrXrXrXrXrXrXrXrXrXrXrXrXrXrXrXrXrXrXrXrXrXrXrXrXrXrX",
"rXrXrXrXrXrXrXrXrXrXrXrXrXrXrXrXrXrXrXrXrXrXrXrXrXrXrXrXrXrXrXrXrXrXrXrXrXrXrXrXrXrXrXrXrXrXrXrXrXrXrXrXrXrXrXrXrXrXrXrXrXrXrXrX",
"rXrXrXrXrXrXrXrXrXrXrXrXrXrXrXrXrXrXrXrXrXrXrXrXrXrXrXrXrXrXrXrXrXrXrXrXrXrXrXrXrXrXrXrXrXrXrXrXrXrXrXrXrXrXrXrXrXrXrXrXrXrXrXrX",
"rXrXrXrXrXrXrXrXrXrXrXrXrXrXrXrXrXrXrXrXrXrXrXrXrXrXrXrXrXrXrXrXrXrXrXrXrXrXrXrXrXrXrXrXrXrXrXrXrXrXrXrXrXrXrXrXrXrXrXrXrXrXrXrX"
};
