/* XPM */
static char *result[] = {
/* columns rows colors chars-per-pixel */
"128 128 78 1 ",
"  c #020000",
". c #0B0604",
"X c #0D0907",
"o c #0E0C0B",
"O c #130E0D",
"+ c #14110E",
"@ c #1A130F",
"# c #161412",
"$ c #1A1614",
"% c #1C1916",
"& c #1A1718",
"* c #1E1B1A",
"= c #211B17",
"- c #221E1C",
"; c #1F201D",
": c #24211E",
"> c #28221F",
", c #231F20",
"< c #262322",
"1 c #2A2624",
"2 c #272825",
"3 c #2C2926",
"4 c #2B2728",
"5 c #2E2B29",
"6 c #302726",
"7 c #312B27",
"8 c #322E2B",
"9 c #2F302A",
"0 c #34312E",
"q c #39332F",
"w c #342F30",
"e c #363331",
"r c #3A3533",
"t c #3C3936",
"y c #3E3738",
"u c #3E3B39",
"i c #403734",
"p c #413B36",
"a c #423D3B",
"s c #483F3C",
"d c #44413E",
"f c #49433E",
"g c #453F40",
"h c #464341",
"j c #4A4543",
"k c #4D4946",
"l c #4E4748",
"z c #4E4B49",
"x c #504745",
"c c #514A46",
"v c #524D4B",
"b c #55514E",
"n c #59534E",
"m c #554F50",
"M c #565351",
"N c #5A5553",
"B c #5D5956",
"V c #5F5B59",
"C c #605752",
"Z c #615B56",
"A c #625D5A",
"S c #685F5B",
"D c #65615E",
"F c #69625E",
"G c #666361",
"H c #6A6562",
"J c #6D6966",
"K c #6F6B68",
"L c #716A66",
"P c #736D6A",
"I c #76716E",
"U c #78716E",
"Y c #777371",
"T c #7A7572",
"R c #7E7876",
"E c #807B77",
"W c #807B78",
"Q c #8C8984",
/* pixels */
"juhj0uuehuu9uhruw952-<ea%18e8178q8883q3-q3-258rhZSAPh86<pqcfrffvap>8jdfdZq6qj8-jyzNr3euddvbjudadzhkuDve0u323d5e0<<lzaw8lj0NNjjzd",
"dvweder8wawwzeh0e55&r<5mr1=1131134-=,,5538rqeNBBzNNavj%prtfcfpfs6j%ffxtffpaq>=uauNvu3turjnhzuudhNhdNA09tu#&r4t34*gdVer0Vjnbhhbuh",
"b<e5<u9rujzhtrhz5<*uetuagar21=1=8<43rtgtralj0bbHMvlvbl+173xpq8i3fp3Cadjj7tf8-<rjbAur8lurdbhhrheVubhButrde<3ee23<0cvju5hVbNtBzjzh",
"re5ruwrhzhjr*<;2<<e88uphuagupaalu68588lxjhpat35ZMBJvBf$-8fpr-prBM%ffpanrdp07*aejGNv95rdjNbueerthBzzhdeeeu;:22e52:8u85hzhdhjzMjbu",
"eewtreMrtj090r8<#hr8jteddhrcyu0rar282*5aygalujjcvzjDUb::7yaqdfq8off8dcqqapqrhljFNnve5rutku5thedzdtddk4ue5*:4<5u-3hch5eevuhMGakt5",
"ete54h4ezd5ruj53ud:0aq8eNbtllrr888&22e;9hjjBhzVvhBacdba+7qrqpf3tqdccbqq8pa>#lrudtMb0eeuudhuua8jhthdva9uu**;<-*55dzJc28vhBbJjau99",
"5eeeauhbd805tt-$t5ut8at-ldvblwe528ejaaeethpllunDFADnjnl-8tq0q3rittfcq08prq228vbja3a2:rabuzht0zvMkt2uureu#55*:4&2ahNh2rrlMjbwwruu",
";urubMMK*u052;*u3jd8eu*=030jvht5ahhrahbu,2jmlduNAVvBLN0:8q7tq0607qq07qpt,%tt7BnVNaa9<5abjuebjbNt5eeure2t**0<;32ehcu8a8thjVj5rueu",
"eugukzzu4w52*521057<<<5e80<rN58ehktrtJje0#*u3dbzllvjNBh,<0r8086p8qffs82:=3cmmcNaJMhu#:;uVhujrew2de<je5tz+03-<$:rVbb830edjeeehgu2",
"gu5ur59*rr:238r*0<5e8eerea<eb8eazhkhbz4j<0<*udNkablnrzVeX161-116338>->1=8c8VBNHljVaa5<<<0u59we5tuu5zu0A&*5e9*3*tdvN-&<et9aeuethr",
"e9u4<90uu**r525eur5<ahurr0r90d8vehahbrh900ee;rejznjjvbjar0r624-3-13:88:*rlBBbbvbjzkjjr<255u55;et9djr4ur.522w5:<vcuDe<:0u2urgh9er",
"5t55tuu5<aej23ewtreu00uraae330rttdBMztb95550&:urduvbvzANbhubjlahl8r<jezj8rAchcvbzuM4rr553e2545trzue59u**w5re<-rlhzrh*2dd*uguwute",
"g22r&w;&<ute88rrhaaturhjttequ2daaaAzBjde8ree<w;eddjvbvBZzbvlNjuMha538<0j<e00ae0jrtr924a842*58uhttueae943eea2$2hBjzld<<3<<9eeuetu",
"9trr+*<re5t-uarduhdhaj5rea0er3z0rBbmvz5eee<ura4<0BjMJNBTvAzNaMjhr<e8huheNhuzurhedtajh8<eu:r<<t.<5<<e022o5u2#2wzzNlNlu2#3559a94ee",
"r95;&uehl<<trtjBvddujM5eaertr0jhbMjzbbte0ttue9u0#8jMBAlDvnvvaha85aaeuuduNuzjlhhahjvalr2<redh< 5hb<r05,5-:&$38ycNLVzcju<;94etuh5w",
"4w;&urbrjv-uuzvtuuejKD4NGr8ujrzhkjzNhM59utdda9092#DMNjcdlBbjuedvMvBABBBzujdvzAdvShuld5e458jtzu<40<39*2#*:*bGgrjjhDDNv4j5&4<4;&<9",
"<#5<4aruM3wder9rthhrztMMhzhhdhhjuvNbBk95utrtuuw5&rADNjVDeuruhjnNvvVBNvMaHAdvDBBhBMMvrewr9tuzzlg$+$<<&*eavjrl0bbddajhAh0jh0<&$:55",
"*reh28d0#0auuzhrhGhurtMzMjbkddukMbjbVt9rr9dzerre*zjbjhtt0ubzbbzljBNlBnVAABnMBNGNbSNa9ehr44uzhdjNt&*4aljjzcrqubIvhjZbzBraaajr824&",
"lh0Vjlfr20hdarjjjheAVrBBeMhaMekhAkzNzt5ueeuuera93ubNa0rubjhzzbdvNAMBNBASNaDlDBcPvjldu5wet5;jbadBhjrbajM8zzrBHtjvzjtjjndeh5awrtVj",
"zdbNDja39dbrjdzzVVjBuvzjhDjhkkukjhnvhk9etaeue9r52jJhrrBurzzVPVlBASjNMBHNDbBNMUJzjNtuhtw9rw<<zNaajuzzhdMdlvNdbjNbjhrd0lr<2<<2:rjl",
"dBVDGVh;ujuajzuAMzM9NMbBBABhVjj2vAMjahrr9weua99e*0JredhztVGJPHHANvBaVNcNbnvNvIdun0e0tagewdh5*MJb<jhBuMAhuee0<r3ee::35&5t<the<3vj",
"jJjSBA<tajbjbgBHuNvjzNnhMbMbhezb*Bbbej552ej954t50uMuezzzjNJVvvvBzYScFNzzIzbzNHdNv5erghzjzh<2-5Z3VzrjBn<*08tt250de00t9ee53NNze#hz",
"dAWvNz<rzjhjhjA9bNVbbbjvbbhbhtfAueaete*ueue0eue*tv3azjdFbNADJIDaGJvJbJPAddNbDdNN5jubBbbMu<uje<5dJNhzj<ethauu:jbhz8h750r*vBHzud<z",
"daGDt29zb3dkhbdHGMvzzMbzkvhtMedbk5jr2<24uue9tte5gh2jkjNjlVIVBDIJrBHAvJJJAzbDzjAduMdubMberujue53bVjel*5duaautuattr<3<<08ubNdtVd&3",
"3hezr<dh2hzhkjbGtjbkkzkeMhkMk9hbabeezu9utu5ea52rapeujBvjbVVZVDndvBcGJNDNADvvNbdrjhjjMkrzuuh92aMdbh<5eatadhhzz<httu99ehbAbJbaue22",
"*jjht<z<jahzkzAakbkvMMjbjMGkkrMur5hh*9rttj0ej2yua3utvbjNnNlDzNbdzFNBNDzjnGDdv3euabzj9uhuhuuw0jlzhd<re0rhdjVnzddejh5edtBdhzduahj<",
"5*aajr28j9hBdVAbbBBz9JMAhVkhtrr2uuegz22h5r05358ct8azGbVDbDPNBjjjKHuvNbZNBte0&dhdzabthurhuh9ta0zv02aeuhudzhGjkjeb9u9MejbGNhhjaut0",
"r<8hur50eeueBAjMBBMkbvMdkbdu59huwh9tuu2t5ee8e8rc8ehvhzHvlTndvNznlcavnBu0tha8uJ9uzdzkzmhuugwwuaNe008auvgvdNzuju9he3hezBHhtzkdgvht",
"4u-earu<erajGBbzMvbzvdvzjh5r9eau59r;9au4;5ed<5da5bzMvFdtdztddjdzbBNlqpzVvertbbtzhhhruhu9e9we4z0*jt3hbzddbzzBhberzNVbbBjuhbzhvj94",
"ee8*clar<jkMhMBBBMbhzbetjue9rga5utrgb5du&5803taujdddbljjbjjzbnhjvvNGjRPuujdubjtrbejvjdu9e25zmu<eDB<duNjbMhVbzz#NNuNdzvMaMzBbzh52",
"eee32jga2rhzzzVzVAjueezu0ru2uu2ee95kze5t$8253rz5tdjDbtnNHNzjkbvbljDBblpdlevjhzdhrhruudz9,9eMz:*NnN8tlBhNzubjG*tJrjzvBzzdvBzbr0du",
"e0eu$0aNr<MhbejMMuhdhhrudba;92rrdudr4eej5<2#ujbbehlB4vBHVdzDbDbjcBBl0hldnbtvMuubBhuutk92utuu2rhjuM0uj0zzbujBd3uhzurNzbhMJhbua4rr",
"ue02,*huj8ejBjarevhujhzuk0;u20jurj5dauy5&&+etBAN<wrrzbNzjbbbMGMzbGvudhhhuaMzehkhhjhea33*8dB3ehehbVt050bjvNdz:05NVhvVbMzNbhjeMuee",
"te<ru0-zj55arzehuh9uad02etdjheuu8rrue8:o<3auaAAb825ueujjebNBMbjVBr9drtuuheztrzzujjg0e3#0*t0<utazBth3bzddVtu520jTbbjbbhuVhBhugrdr",
"e2zdrd#5ju52rrzuhjuvardhjjue,d2euuu<-<*2*0ujVADAa<reeaghtbatth5jhjzhhdzVzb#9bzegbhau250atur5duvajzteuujhz5:0auNbaDhh9jzjhHjj9att",
"50hu05ozGht*eudhvaujkjzhuu99e8<52e;5r38r5%ezJBNZzu2euurtejhdahzrMkzbddBbV<5Arujzue8<d5traadrduujzba5urd233uuehdzAaar9kzVBw9adhre",
"5ree0%8zvj<82rudtddvbhhhe9908d<4&:33lu83q<>=5NcNNv<eu8ug5thhz5hh5dzahMhDu&hhehju5<rrdr0ldrje5ravzVeuzzd0u8eu9dAehabud5jk9r9e99eu",
"e4ee53ujhAr2<555uthbu0lN55505u#5rue58r-63<:6*-avjht34ruheh4jjztbzr5zMMAB;MB5hur<5hlMlrtljrh28thzMjetdt5rtutdhebjbaeaeaz5etattuee",
"0d0e32tulBMru*rubeh0tht<50<0**45Nu*<q=686+83a6*tt5459eauj&00eeutuau0hjwerh550*-wgvvMhB0hahrp23hA5ur<hahtuhudahBjhbrMuer9we9ueuuh",
"jt9<truBNbjbrr<ue*:uutt84023*ez9<50fi-3=<:-ai58-uzr2<524*3utughghhzbae2eruu5-58zzMuAJpajat5dh*r8rMa9zajthuzdudvhkjjwe9uuated5hru",
"ue822SzMJvVn0ue:45a8<-5<,3e2ezdl<61<-*%:=->88qd8-ac58y:;ree5erdruheeeu2urte*rjhjvAAbvdttftr85*:-zjNu5jdedahjvv8zhr04eh0ztrA4ra5t",
"r115wtDpzNMDntj*,8<5*&88a8h5dbduO@%:++:>--8qpq780@t8:<ar52hr4e2<<<25er2233,*<urvvMBSbjetdr685-<weeBj0leNhhbhjjh89hrrjrde2h999ueg",
"w<80rNMNdNnlNbuh*$-<rdehcgar0HF O$6:+:3318r1ffrr3*Ota8ee21aaaujjrjuute44<tua818lNbGAabztadu8r<=a5rj;ejjmzubbh<eeuuuueru3urte9ruu",
"82d<lNjABMFbjbuur2awhv0hze8dIVG3.3:*57q:70q8=ba6:6>O8urju20ljhNMaukkeurth8*r8uhwuBF8jljjtvdhr3259huz:&wNvtzu4uaeeee9rkrdjere;rur",
"2a3gNYVANBNDbHd588cjaataMbcGubub%--1--qt63880>>+<81@Obraavye3<aucpvqe8a8q6<336>1-<8faduavvrua85-24e<u35rt5erdj-222ktduduurbew<ee",
"acalNADbDNbzjVd3yr5urjaNvalMbFkk<#q86-6r<668pr*16**:MDdaBZjzbaja<r:>22q8>>fp>q8q8167e8ruzdrdlN23-*03952500uet25u;5h0tuudehur5952",
"hjBlvNSvhVhdzv0hqh83e8rttBaBlnAe8*3-1qr-03668r88*:<u8BbAbNlPdZjj5:q7v8prfpf-88aqqqrp86<31ajarba3w<*<4<u205253rz8e<du55d8ede5*29u",
"evNNjhVlvjNrdd2u,=tr118$aAjclvBNapX=q71-1:613qr<*NueraDZDNnlBdd>80qfqpscff76qiC8qppqr0-31=2t<8n88t0<5:9e&*255r21z3ut5heerr&,rjhu",
"yNbdb0vat77>>7iq7qqqtfp=@-lvvjpvjr-:$<-<:3-:::8tddvhhNaNBNBrZb=6ipxx>fdfd7ddfffffxc8q>dpad0@--=8y8zrjae&o3555eru2rr5eh0u<5zhau8r",
"tr06>7>1p777pfttppppnv30q=$6ubdBNlvzazAt50r5>4rjzhea8ahwFlVcut=tfvf7fcin>iq>iicfviq7i06:0xaqtr81*5rhaueae*&<555559hr55322tarhuhj",
"868pdfxjn7pffqqs0vpfjdq6q8<$O<t080*rv<:0e<&5:***:4r8taertbBN05q8qdp6fcf787pp6q77===71O=3>%$p<$:#ol0erthhutr5,22e0hr2&4*vvmNmdag8",
"irapdxCn7qffqqftps7fpf3>r18q3#%0zu5-8BevNzu9ta<ou8e24<p8jjvbh&0q7>%fddti>pfqpftf:pnf3qfcf<x-+:3@bzabNjejeture-*#05<*8jr8ADmjhz35",
"fftfffvinfdffftfpfdqpqq8t>06>qf3<zvc2hAhjee2:4gjrtbue842AvldafirrqnprpfN>pqfdpnfrfvp7dpfrvq@qr6-GPNulbaj8r8e5rr<<*waaajVuNVCj3rr",
"tpdfnxqCPfnffdf0qp8dxp3pqt3qtrr1*8jjgqajeuajHbujahthr8e2BzHZGarCpcCZnnfZ7qfdqvfiafp8qap3p>$><3@15NBbMtte5utru9u55jrllNdYJjnB03as",
"qpffZfnNfCFfZqd:pidfc3r8066a6j8=trtcfll*beVmbudNMzhjvth-uvBBBr-i8ffnnvcfdppfqDffpn>:0*+31r038:+lezAgu<8ru&5ree9u:ueBlJDDFBjd>dif",
"pfqfZfncnfff>7qcpfCp67:10>fjv7%qeAvldja0jjzBbBANjuNhhv8u5jDAja-qprpqfjp6>777df9fpt$:>-0t8p617>8lA38u:duhj5ewwae5hw<2nNDVNBp6ppxp",
"qfvddCfFc>d>qNn7ppqpqp0dpfqdq16=0dMbjh<DuBMjzDMbdNzzjvtu3ebNBh3rqrapafa:q>3>0dq87$q>3r08p0888*<eaajhhpajeuur9wt5-lAjrceBSd>qpsjx",
"fZcfvCfq>fic0F>7fpfxtf>q0qq9-1<-raeru4auejdjbABNNzzABduuu2NGjl:t7pp8vx*rd300pqp08183a870681<$:NMh8d0azzd0ure;wtw<5GuBdv251ifqavj",
"dfipp77tnftfcn0ftf7nqtf>d0p9a8<0dbBSa9zrjbNDFVVbDBDNNhMbj48lNj+$33qpp1>q77pqpptp%7q678i03600:ivAHt28de0lhe5ew9zup2<NNhjb:qjfq6sq",
"qp7p77cnfffpc7qfqdnc00f>pp1p8:8Ntbzl0ekAkjbGTPbAHANZVVzhbq:2abzr--3>>:r89q9qqq0*131388q6>061*yjbl<8rarzduhjzbzbjer5cjvbe:xfr>dqq",
"nffpqcififnqqqfffdcCqiqqq>08t>5bvjzu5jdjzTbDdAZLLPZVBAdhhze<ebzMZj1=*83188qc<t861>3q17>q088-8uNah5etudruzzjvjgaju55uaGj8fp7>pqqN",
"fpfcfffiqCfqffpfffvp>qt3<0ppq=8aPat0uDvDHBAHJIINBbHADMkdje<e;JzzANmwe-=16t8f0q0q>88388q7086*zdbVz4e5j9ejzNuhVzvju:hjdbA8===iq>iC",
"fdffdfddCdf7cfqZnp8:ndft3t060>0hNbtuzjAbDJnPDNNBLTHAbeltta4e5jMuzPlla<t8-=>31-q7=-11qp1:7q%<dNbDN;5e45uhrrz5edh8e<rBpbzx@pfdtftf",
"cfffftpffdddcfffncpipfq>76803:hvuj0eNhMAVTJVHDDIPDNHuzzujaz555jbPBArrmja8uq<:3>18<--*>%*:$Ov8BJVV&;<4uuuNu2ee4ta2wuAbcdt>tqqd7qt",
"7qpCdpffitispvffCBp>qpptt8ti<5ubj9ezrjAdDPvUIVbFbvPdjGzjMrBu59uzQWmthHhMhlVhabuuvuhzN5lg-u05NdFNhd485w5er4uuzr4<#eMvvju038saqsb8",
"fffi>pcqdffdfqcfvZx03dtqrq6035udd4rDjlBDAPFvjNhPbMdhVuwzdBMh4h5jADGhBHNav0tNheuub0uruzBjzhjaIdjBjNvhh85w3&euutr92jhbbzveqjq=qfpf",
"ffdfbdddfddpdnLCnq0$>df7n>p-3djdedjuNjZHcJJNJbTVFDbGdedjaBuh<ur4AGNrAbHjju8rNlhlhVuMgMvtvhwNdNABNaNNeveV5zt*&42;jKFvvzjr1dpavqxc",
"fcfffddfqdfiZdCxtf7%>qtxvr6-2bNNueuajNZvJBbJAFZNRduaujDhMhjj;tt9SFl8AblBlBu555<r58reheujwauzdpjjbzhzuazGVaa5*euehHbIjNj5iqrfpnna",
"cfcf7pfq7ffiqffpp77bpqqp-0>-rFNztabhvJNjMNBKBbNJjujjrHBjjjah:d4jhBD5vjdeeuuh8j<59<e<<*4252580ta5tNBllrj8luhlAuuarMMhzNj2qsqipncv",
"nfnnpdcfffsncBdn70nq3xd8s661tbMna5uMGvvvANBJtzJNuNaVbmzuzuzte<8zvvj0rq:0dbbutzdea0r530re855e52002terDcjDhNArhGahKvJSGvju8pnfvnic",
"i>dfffpfftfCcdf>0fbfddp0*ta>hNbztrdMNbVvGZMvJNFrMMAvbMhzwhee55tdjla:al3jhvhuuhvtutt30uutweub0arda80<rVl8zNSAAJAtaJNNJBuhq7nvdcni",
"qdqdppviqpfcdt37tt0utfq-10$=lnzctzjjNnBASBlBNAzdHBbGh9jtreet;jbjla00BdddNruzzbada9dr0eaurjb0udjjaaua51a55hNMBvNNvaBDZna5>qcnpfti",
"ffffiddffnf7p:3dpqt>0:77>$7:bbvjtzBMMbVMDMujBvekbJAuejdrea94hMvNuehbjezhjhjVzhdNzz0rdhaMtkkrhzzuaahhtu923e9drczNBjtVzBnu>fnidpvd",
"ffqpfq7fnp3pttqptdq979t0%330jnnjtezVVVzAJtMMD3bdVze5uBrrre5*avVlaebh9bjzzjNzhjjjzz3tjabBu2zhzjkjjgdtduu0ee$3uabbbvbNAjBv7qqdffCf",
"fff9fdi>070pdq6jc7q0f8d7>6:eNvlh5w<hAGbGebkMtdkzAeuavr9ehe4uevNl9dkehdBVdzhzkkhzjtheuhbvehhzdahajddjutuelu2:;2eDBuvVVjdd6qpdZZfc",
"ffidqdq>t07f03fqqf>t60p><<-eNBbl5eAjghPAbBBhubtBz9uaMwteee53vlMeujrb9dzkadjNjjjjhaMhehzMrjhaahjjllNztuuula00t;*<eBpjDhlz=qxvfdcf",
"ff99qq7d8>p00tq8xa-6pptq<-5jbNcz955MAdV0thVezkrh5hhuegte040uvd0abutazekhdzbaAkahbhaVjuBkjujkvBdjzfzhhddadj549r0&-*hjjVtdt:pqqiqq",
"tfp>9>p9870q>r:a6<r:f63>:jrzBbbl5wuuueh4tehubah9rzgteeee2a5jhr3uau9ahekkBzkzakjujkhhbjejtvhjkFtujzdbhdMajN02h990r<etzvfjt0*8pi7d",
"d>t>7q:qdq87tp06ptr6a>:8tarhNNjj94eujjeu4t9zBezhdzhugue2<tbhla8hGBjztbhekhzhhhejdMjhjBadvhzhdldhdfbzuazjkv9au5e5t0rzdlvZa:<>0qqq",
"pfpqtff7prrr1*$::7f-O5urdt0jtjlue5wt9uzregtue5dduhuw9w25jajdjeyzKzbztthzkkdukhtuzBddbkbMtkhkhdluukvdMjzzrurdjzeht<:evNNDalj->ptp",
"97d0as3i6r8q6q6:7*+<ttrr<$ru5etuee&e<;w2u58g0drrhruru5*llMVMj$2vdzuzbMMMMutahuajzkjkkzbahaeub<dtzmgluw;5erauuzedr2eavnBzDtld:00q",
"pf=:ti1r-1$68<8r0:ruupr<5hhjuueu5;<254t5;4<w4uujudurr<j5jNMNlc15uu99uudjrA9zMuhjzkhazhzzbNuueaaNkru2;eu5rudaazue8-8hj0duBjlj<*8r",
"r8dt8-1#>3&13O-@*djuw52NNGhrzjzn444#*urua9222ewu4ae3;4ueANvgNG85e9br<rrd4ew5eahjhdjhuzjzjhbeee942rewuhu5tkhuhjht8<*Nbdvj5jutja*p",
"q07>-3$<%==2-38tatl43dhrjMzwjMaNere55tlkjzzw5<4509u4<urhjcNalHat;2b9<ru95ee0055e9euahBBBBVzr#244hu2t59ertugruBrte15rvaljNaBdaa3-",
":6*#<-885eMtlBrzjr<2udvr::3bNlzturt9g**5tlvcu05<2e<&atvbNuNjNVha3:ue4e<ueutt4uurw949huhee<hut44awerg4uur9hzuheruu:rtjAuhvANn:tN2",
"adlztdrhhazvfBljb-4dlNHVjHVdjBb0e<94e9r;aeghhu8aerrw<ahdaBabnANad5*50<r:<2e&4rr8u5wuet5uhgb9ette9e9uj5uuureuat0he28zBBctuLmAvdcB",
"bcvarzzzjzulvzShu0dNBuvDIHVJl:ddtrdrg4;;jvzaauzduavj5NvbjtvNzcG8hza#9w;5r5r<eu859e9teuuhgzzrueu5h29gt2<u29t9te3e0<uldAAN8lHDMAjN",
"davjvgzbghhMNjANtavaABJHbMtutj53zzdeee5*rANNvhauhjjjzbjdb3lnvhMGzrte;<#9359ereew5w59erj9rh5uuaeuk,w5wz42eug25<5-<,uDdjvnh8lnrhBl",
"54uajuNzvVBnAANNeujzVJVTBajjdbbr550uuuwr0zNNvNzbjteeNMlh8<0euMbBMlyar8,,<:55;<<594w5etreeraetr2ut;45eeurue2-2*485djjBdzja50dt-de",
"0ee0e*4javNhvvPM0aBjdKKj5;;rh9zAbtbu55r*0bzNVzzbbvjzBu5<eh0942euBvrqjhvjwe:8*<-,;24ew8teuuhw5ue2222ewuue5#<<8layjjVJjvu03d000t3t",
"hjhruew;0eNhjlGb4aKJGBu0tzzh9tbjuz5uaeu<4vBNMBnNzjz5a80tvtzdt5;<48vuaMuBaddtvjeet<42-52<959u5r:3e5ww2e;;-8uvAGarbubutr9ufuldttue",
"hvvhJutjh2tcamnagueJJd0rrjuzj5udteajehj2eAMvvjvzh53r80udedjzureu24#$hlhrjjaljhzhvurue-ru<5:2:<53525;54u5eeavB58ze5r5uadkdvNuudjN",
"uAhNzhahut5utecaezMb5taedjjhbeduj5h5eut3<bBlvjht<rraduNdadhd9wutr45oujzjjAajvhNvzajrNe8auda4<8&4%1<dthjarurtjtutua5udzzudjeuzubh",
"hbzVMhuuedt2<rHdwhah*wduhjadV5abuudh0e0<dvlfjee5ulbhj0Ntdzzjzaejebe2rbvMbPhBvDNjjzld8B3utzawjgatct2Baglarte&duujdAt5bhMuvdzbzvdj",
"czVNJvureteu5bFb4;;;5erahjuuatruaje4535rjdhr558uazvMeVerjz0hMeuzd5a5:djbadYfJJGNzzjjuree58h85alhhutaurhhpe3euhjajGArjbzNnnzFjbhz",
"zbNMNVeuuzu55aBDhz*59e9wMrHKeeuer4r4<<r0rt555ubzrrbjDz5zNz2Brebzheu5:tBBBeNIBDljAAl5r1--221p8geayjuuJPth2utbduGbGBzGztbnjbzNzlbz",
"NMVvrbjzzzg54wNjuNt*5euu0vM;wruw503<ert4:3rdjtaMudAzu9zJz;uajzBehuu22trNUBtjnLjfVf8q6qr718>-=*<8avvj5lrejzhzlzVjbBnbtNzzzVcVlzbj",
"ANhthuNDzutkt5vGuuzhO542re2gure92-550,:0uuuudkkhteh9dAvk99arrh9jbt0e*thhbVJlrjur0=1qtxq0r8<r:1Xtjzvzt2uvMtGbbNzzJAjhnnbnzAnlncbN",
"rt*8eahazrVz22uMNruua&5eutghge;<8u05r<rad0djzMhuhhzbBufrzuteu999r8ht*<vGbjjVnz7>3affdq7qq86rq3>0zuvv0tjvdBbBvnjnNjjNBNblJbjbNdau",
"r<3ddrjzeNge;5lzjlzuhz#rwueuw;5e8r2ue4aerrueudhhAMBjhdheueedrarbrjte$6lMvvtdu5>qssqfd6trqr3qf8*ajlua0dlhVnTNbBjhNNbbDJzZbvbUbtrq",
"juuudjjhju-58<cMhBbnub8<4eu42udud:td5t:0tudhzjMbzzjubuezrdduhrdetu25*NvjAj98>7dflhfx83pqaaq8r8*jbjjeuajNGbJvJzMhBBbnBNvblNBR%udd",
"zutukuueaeuhw2bhAjDvhzl5;5;<rudu<rfdej:dtjajbvhuDktzk9uuudktutthte5:rmvvd88tpppvffjqd7pf6qrrq0:abzu0rjjbNDANzDjDzDvNzNNBvVVu5edd",
"90eeerddhuar52ljNBjbbhvA82ryhjuu5ruujjddkuhdGMjBBjvatur9ududuzd55<5eaavp.xsjLFxfxffqq7qp80prx7>rNd50jzBbYFBvvkMAzNVDbzKBbuN<rzbj",
"rtuddhhrhwue3*chHNVjBVcMjMljrua8tt0zkN0ujhbvDbdvBAu9reudjtkueatuae5trvs cnnxFncfqvpuift08qq1r0*jjbu;uzVBFDDNzDBIbNNljhbVzae9nj5e",
"tuhhhuuhuuue<ahBvvBDANNzhVztjmr2tjbrah00<55e3<tehettteezuuthrr5he2rraj$qFffffffft>7dffb30rqrr1:jjt455uzzJANJDMjjzejhdkzbdM0br:dd",
"uduruuraue420NNacvaBvNNBjjlvNz*8aauz003%<zujddd9%;2;55kkjuuhe8ur5u80at-aqitfcdfff073cpp0rp8qs8>dhu49tuurhulaMhhhrbAuujhhJv:30ude",
"duwruree44aerutNl<o#AvNNmhvBljhO30tu5*:<jjh4uhjbje925;e559hhehu,5huaf$qaffnCdfpsq9pf8dpp030p6--laV*<e9ehtjuVVdubBehhuMuMBouluhdd",
"ueue0e5*rrtrret5535-&ajjMzcvAlv5-<12:r0du8rzjazhha9jur5;499#<0-uj,j0=>xpfffffdfqptqpppb78pr61>ljANz4<45ttegb9erGjuhuudhb2rvtjeau",
"rut4w55&zae828<eh0&t0oeVfzjdDBhlet<uw*<08:bbeaheeuue2uereueru2-<=<7%7pqsvffvfnpq8qfpfdp381864-zAvBbut0<5uhhz5eet9Mghhuhm;uut<rr9",
"eee3-4u*hu35ur80j<ue55*5NdblnDdjzur<#29;<jh<ret0hr9u99arabde2<rr5q=fffpfffnfffqqrdtfpt3p76q%<8tNjbvlbd38wrhwuu5eztjueehh&te5erwr",
"9225r5r*w0tarueu49ur90u;*jjVzBNuly*<8tuujr4ej8utreaehw5euur42<e58rqxiinfvfffC7ddd0tfffqfaq%<taAANbrbNht5te2geehjtgeweekj4u5eewe5",
"<48re:*0reu5rruuu3uu9u9t:&ujJzFnat*-509ere5aa5u8aeer59e09924rew8pfsdpnfxfpnnpt7dittffftqs,-ttabvldNjadtuhtr423459e9eett&22<55<<2",
"0535;2ruetaadgzuwhzrr9ete*ojNvDNNBf&450edh0ee8eaue550080u<<p0>87fpqpcffnpxff7jv7ppqffqapq=8aajdzBj0u0<<5urtreg8,5922$&$*<<332528",
"0334tzrukzejuuk5abuzd425e-2NNDvBhhNe&<:85533<8eeeuer58et*5tt3>ppp8rpfdpffcxqrpp0rqqtrtr6-<a3Ncu090errrhu3<4dlavt;5;,w5agutvuyat8",
"33tdujhjrathhze5uhheee4w3<08rNBSch03:t05<<2358u5uere492<dtr3>qiqpffpfsfcaftpq07qqtfafr=3,hrah1<5dah535te24<<ejhurrugurauljzlcjtw",
"0uuhzzurzukhhh9hhuj9d2r54;adhddjGf-6*0adr*:2<w24eee8*25ruu77ttippfanfffffpt3tq70rfsaa-->8ttl-2dNaeeeeuu0ra-*#euzjrughluzaavMlga2",
"uuafrkhzzzhbBrevbj5u;955<84zvuu4q1rq$1edzh1rj5;*<55#58ut85-rifdfffjffxppd97dttidjppf8-35hwd25ehb0u8jdejtah083*#tNuuvvhzcbzNlbj00",
"ujddGVvkzkdumuhrdhh*5e<5:-tfrh,8ifp8pq:0jvathvjr5*;hauaee81rpqpfpftfvvdf7tqqfftqpaaq7488wxr5tudte0zrdh0hare534*#oMMNjmBBBDHLvr3j",
"dzbbGtjkhzdk9uVuhz*9wee55-Nh1-pqqrpqrr>+*8ftuvjvrvuhhjqjqaqqfpcqssfffqxqp7iqtqfqfrp8118r08<tatvldjhevV9jzr:4054e+MVuMvAMnbdHd<au",
"uujjkbzuDzuzg99zh;ret229$ea67rsrpCiprqq8r*$0ezvzzrhcdlB87xf8fcc7ajffpcdqdfdqdq7dqai161rlj4dr8ahBdzuNubj5N:teee902*dNvcBPjNbj4rtd",
"tkbdhzzkhtmrehhr54u0-552&u=qasppN77:q83ri13=%tvvMMrahzgrqpdipfdsdfdfpc>pd7q7q3fdpp885e2vtrj9eubMtbzrtubeee09eee0e0zcbNjvNzz:8uhd",
"bkazMzhdhBMezewerur2504-hq>030>06p07d57d1888%7lVAzVVvvf-dpfd7dffiifdfpdtqdpttcqdqpq=wtae9vNejjbkkabruzkG2e5uhde95*tBvJANjj30buaj",
"jzkbutMhkBj9hbe5ar888r&jl16386afvd37qpq78r781>dSVASJSr5rftcf7pffvpdffqt7f73fxpqttq:et0l0hzdudzjubBhehbhBb&0ruert0-jNhJJjja<Dz3VV",
"udukdzhhhrgeh9w954e55<8at:30jqqrr:qqrq0qar787%aSMHDvAB889fn>dpCnf7fxtttdqqfkppdqi8<drge8d59tjjjhvbehahDabe<00a0ure*BjBNhe:lvhtGu",
"edhd9jjjeehe5ruguue52<8h63qcr8qf00rpq8ptqr8r7=7AzHAnBvaqfq%qdZnfFfiqpqtp7Ddfqtd70<trjt0zjuhNh9tzaMvjhzzzhu&35artu*;hjVjd<0Du0hhh",
"jrduejBetug9u5ejjue53*1h=rq38qrtrrrptirq6ir0r-,BBbABzj7af>0cCcifpf>9p>fpnjfqtp0q:erdjedBhjkvddzuhjuhBzDedu$9urrur;0ldnj35enudduh",
"dtddhMueezgtget5u35ee$3a188q8qp3r67iqrrqp8q08>=GVHUBvl-s=7qZZifdtn>t7tBfpcvqpji>5utbttNr9dazebkrhdjzzhJ2z0&rj4zz8*tblnt3h0Njjavd",
"huthzud5geuguedd90452%83176r8q1886wq2q888w773<$bBAvNc7i-qiffddnpcf>>djpfnt7rq717jazj5rdudjBduzezkzkzbMu9u;;er4r512avzt<dluDhzuVh"
};
